<svg height="900" viewBox="0 0 1440 900" width="1440" xmlns="http://www.w3.org/2000/svg"><g fill="#fff" transform="translate(509 398)"><path d="m89.6388717 95.633457h-6.3980162l-26.7250464-71.7054249c-.1332921-.3994731-.3332301-.865525-.5331681-1.2649982-1.33292-3.3289426-2.865778-7.1905161-2.865778-9.7205125 0-1.9973656 2.132672-2.5299964 2.532548-2.5965753.133292 0 .266584-.1331577.399876-.2663154.066646-.13315771.133292-.33289427.133292-.46605198-.066646-.26631541-.266584-.46605197-.599814-.46605197-.266584 0-2.799132.06657885-6.4646621-.93210394-3.5988841-.9986828-8.9305642-3.1292061-14.3288903-8.05604123-.199938-.19973656-.466522-.19973656-.733106-.06657885-.199938.1331577-.266584.46605197-.199938.66578853l4.8651581 13.24919174-18.2610043 50.5333496-4.9318041 13.6486648v.0665789c-1.866088 5.1931505-6.26472413 17.3770807-12.19621824 17.3770807h-2.73248605c-.33323 0-.59981401.2663154-.59981401.5992096 0 .3328943.26658401.5992097.59981401.5992097h22.39305639c.33323 0 .599814-.2663154.599814-.5992097 0-.3328942-.266584-.5992096-.599814-.5992096h-1.599504c-3.8654681 0-6.1980781-2.9294696-6.1980781-7.9228836 0-3.1957849.533168-6.5247276 1.466212-9.1213028 0 0 0 0 0-.0665789l4.7985121-13.1826129h36.1887787l11.1298822 30.2267993h-8.4640422c-.33323 0-.599814.2663154-.599814.5992097s.266584.5992097.599814.5992097h29.3908866c.33323 0 .599814-.2663154.599814-.5992097s-.33323-.5326308-.66646-.5326308zm-50.317731-79.8946238 17.7944824 48.4694051h-35.3223807z"/><path d="m118.696528 77.923482c-1.399566-.6657885-2.99907-.7989462-3.932114-.7989462-2.865778 0-4.598574 2.1305233-4.598574 5.5926237 0 8.9215663-.599814 13.8484014-3.865468 14.1147168-.066646 0-.133292 0-.199938 0h-.066646c-2.199318 0-3.3323-1.4647348-3.3323-4.3276254 0-2.1305233.533168-3.4621004 1.066336-4.9268352.599814-1.5978924 1.266274-3.3289426 1.266274-6.1918333v-48.0033531h12.729386c.33323 0 .599814-.2663154.599814-.5992097s-.266584-.5992097-.599814-.5992097h-12.729386v-17.3105018c0-.2663154-.199938-.5326308-.466522-.5992097-.133292 0-.33323 0-.399876.0665789-.133292.0665788-.199938.2663154-.266584.3994731-1.532858 8.4555144-4.6652202 12.716561-7.0644762 14.8470843-2.33261 2.1305233-4.3319901 2.5299964-4.5319281 2.5965752h-8.9972102c-.33323 0-.599814.2663154-.599814.5992097s.266584.5992097.599814.5992097h8.4640422v43.8088853c0 3.9281524.266584 9.5873549 2.3992561 13.9815592 2.265964 4.5939409 6.3313702 6.9242007 11.9296342 6.9242007h.399876c6.398016-.1997365 9.930254-3.9947312 11.796342-7.1905161 1.99938-3.4621004 2.66584-7.4568316 2.66584-9.3210394.066646-1.6644714-.733106-2.9294696-2.265964-3.661837z"/><path d="m275.181339 95.633457h-8.597334v-62.8504374c0-.3328943-.266584-.5992097-.599814-.5992097h-21.393366c-.33323 0-.599814.2663154-.599814.5992097s.266584.5992097.599814.5992097h8.66398v62.3178065h-8.730626c-.33323 0-.599814.2663154-.599814.5992097s.266584.5992097.599814.5992097h30.65716c.33323 0 .599814-.2663154.599814-.5992097s-.266584-.6657885-.599814-.6657885z"/><path d="m341.960632 95.633457h-5.531618l-17.061376-32.0910072c-.133292-.1997366-.266584-.3328943-.533168-.3328943h-6.731246c4.598574-1.4647348 8.930564-4.3942043 12.32951-8.3889355 3.932114-4.5939409 6.198078-10.1199857 6.198078-14.7805054 0-6.0586756-3.065716-9.520776-8.397396-9.520776-8.264104 0-16.061686 8.3889355-22.592994 24.2347025v-45.47335664c0-.33289427-.266584-.59920968-.599814-.59920968h-12.129573-9.197148c-.33323 0-.599814.26631541-.599814.59920968 0 .33289426.266584.59920968.599814.59920968h8.66398v85.68698396h-8.730626c-.33323 0-.599814.2663154-.599814.5992097s.266584.5992097.599814.5992097h30.657161c.33323 0 .599814-.2663154.599814-.5992097s-.266584-.5992097-.599814-.5992097h-8.66398v-37.6836309-.0665788-.0665789-.0665788c0-.0665789.066646-.1331577.066646-.1997366 1.266274-2.9294695 7.064476-15.1133996 17.061376-15.1133996 3.398946 0 5.464972 1.8642078 5.731556 5.1931505.199938 2.9294695-1.066336 6.3915699-3.532238 9.3210394-2.799132 3.3289427-6.797892 5.5260449-11.263174 6.1918334-.266584 0-.466522.0665788-.733106.0665788-.199938 0-.399876.0665789-.733106.0665789-.133292 0-.33323.0665788-.466522.0665788-.33323 0-.66646 0-.933044 0h-.199938c-.066646 0-.133292 0-.133292.0665789h-.066646c-.066646 0-.066646.0665788-.133292.0665788 0 0-.066646 0-.066646.0665789 0 0-.066646 0-.066646.0665789-.066646.0665788-.066646.1997365-.066646.3328942 0 .0665789 0 .1331577.066646.1997366v.0665788l17.194668 32.3573227s0 .0665788.066646.0665788c0 .0665789.066646.0665789.066646.1331577 0 0 .066646 0 .066646.0665789.066646 0 .066646.0665788.133292.0665788h.133292 19.9938c.33323 0 .599814-.2663154.599814-.5992097 0-.3328942-.199938-.5992096-.466522-.5992096z"/><path d="m220.131742 32.2503888c-.066646-.0665789-.133292-.0665789-.199938-.0665789-2.399256-.8655251-4.931804-1.2649982-7.597644-1.2649982-4.465282 0-8.863918 2.3302599-13.062616 6.791043v-17.2439229c0-.3328943-.266584-.5992097-.599814-.5992097-2.066026 0-3.99876 1.8642079-6.398016 4.1944678l-.066646.0665788c-1.732796 1.6644713-3.66553 3.5286792-6.064787 5.0599928-3.132362 2.0639445-6.464662 2.9960484-9.9969 2.9960484h-14.195598c-.33323 0-.599814.2663154-.599814.5992097s.266584.5992097.599814.5992097h8.530688l-14.195598 48.5359839-15.195288-48.5359839h3.798822c.33323 0 .599814-.2663154.599814-.5992097s-.266584-.5992097-.599814-.5992097h-4.531928s0 0-.066646 0h-12.262865-6.731246c-.33323 0-.599814.2663154-.599814.5992097s.266584.5992097.599814.5992097h6.33137l19.927155 63.5828047c.066646.1997366.33323.3994731.533168.3994731h3.598884l-1.532858 5.2597299c-3.66553 11.58472-7.66429 17.177344-12.129572 17.177344-.066646 0-.133292 0-.199938 0-3.865469-.332895-5.598265-7.58999-5.598265-14.114717 0-5.25973-4.065406-5.8589393-5.864848-5.8589393-1.532858 0-4.798512.6657883-5.99814 3.3289423-.266584.59921-.399876 1.264999-.399876 2.063945 0 2.996048 2.399256 6.990779 4.66522 9.520776 2.532548 2.796312 6.864538 6.191833 13.062617 6.258412h.33323c5.065096 0 9.397086-5.858939 13.262554-18.042869l20.32703-69.5749017h4.531928c3.532238 0 6.731246-.8655251 9.796962-2.729733v87.8840857h-8.730626c-.33323 0-.599814.266316-.599814.59921s.266584.59921.599814.59921h30.657161c.33323 0 .599814-.266316.599814-.59921s-.266584-.59921-.599814-.59921h-8.66398v-33.822057c.533168 1.6644714 1.199628 3.4621004 2.265964 5.1265717 3.3323 5.3928871 8.464042 8.189199 15.32858 8.189199 7.464352 0 13.129262-3.7949947 16.861438-11.3849839 2.865778-5.7923602 4.398636-13.9149803 4.398636-22.8365466 0-6.5913065-1.532858-13.2491918-4.398636-18.7752366-3.265654-6.2584122-7.930874-10.7191954-13.529138-12.7831398zm6.931184 20.9057599c0 10.3197222-1.799442 19.8404982-5.131742 26.8312778s-7.864228 10.852353-12.862678 10.852353c-3.798822 0-6.064786-2.5299964-7.397706-4.6605197-1.66615-2.729733-2.33261-5.9255179-2.465902-7.9894624 0 0 0 0 0-.0665788 0-.0665789 0-.1331577 0-.1997366v-15.7126093s0 0 0-.0665789c0-4.7936774 2.66584-11.9176147 6.864538-18.1760269 4.465282-6.7244641 9.397086-10.6526165 13.595784-10.7191953 5.131742 3.5286792 7.397706 9.5873548 7.397706 19.9070771z"/><path d="m259.919405 24.460663c5.065096 0 8.197458-3.2623638 8.197458-8.4555144 0-2.8628907-.933044-5.1931505-2.732486-6.65788529-1.399566-1.19841936-3.265654-1.79762903-5.464972-1.79762903-5.065096 0-8.197458 3.26236382-8.197458 8.52209322 0 5.1265717 3.132362 8.3889355 8.197458 8.3889355z"/><path d="m429.466832 95.633457h-8.66398v-86.28619369c0-.33289427-.266584-.59920968-.599814-.59920968h-12.129572-9.197149c-.33323 0-.599814.26631541-.599814.59920968s.266584.59920968.599814.59920968h8.597335v85.68698401h-8.730627c-.33323 0-.599814.2663154-.599814.5992096 0 .3328943.266584.5992097.599814.5992097h30.657161c.33323 0 .599814-.2663154.599814-.5992097 0-.3328942-.199938-.5992096-.533168-.5992096z"/><path d="m398.476441 91.1060949c1.866088-3.4621003 2.33261-7.3236738 2.33261-8.9215663 0-1.5313136-.733106-2.7297329-2.199318-3.3955215-1.33292-.6657885-2.932424-.7323674-3.732176-.7323674-2.732486 0-4.398636 2.0639445-4.398636 5.3928871 0 9.1213029-.466522 13.2491918-3.265654 13.4489284-.066646 0-.133292 0-.199938 0s0 0-.066646 0c-.133292 0-.266584 0-.399876 0-1.732796-.1331577-2.599194-1.3315771-2.599194-3.4621004 0-2.8628907.533168-4.4607832 1.066336-6.1918333.599814-1.7310502 1.132982-3.5286792 1.132982-6.8576219v-31.6915341-.0665788c0-11.4515628-8.33075-17.709975-23.526038-17.709975 0 0 0 0-.066646 0-8.264104 0-12.929324 4.1278889-15.461873 7.5899893-2.799132 3.8615735-3.865468 8.2557778-3.865468 10.1199857 0 4.2610466 4.798512 4.7936774 8.930565 4.7936774 3.065716 0 4.731866-2.5299964 4.731866-7.0573585 0-5.3263082.733106-14.1812957 5.531618-14.3144534 5.398326 2.0639445 10.33013 5.5260448 10.33013 17.1107653v4.7936774c0 2.9960484-2.865778 5.5260448-6.33137 7.8563047-.066646 0-.199938.0665788-.266584.0665788-.399876.2663154-.733106.5326309-1.132982.7989463-1.532858.9986828-3.199008 1.9307867-4.931804 2.9294695l-.066646.0665789c-8.597334 5.0599928-18.394297 10.7857742-18.394297 20.1733925 0 7.5899892 5.265034 12.1173512 14.128953 12.1173512 3.465592 0 7.264414-1.2649982 10.530068-3.5286792 3.065716-2.1305233 5.33168-4.8602563 6.597954-7.723147.066646-.0665788.066646-.1997365.133292-.2663154.266584 2.5965753.933044 4.993414 2.199318 6.9242008 2.066026 3.0626272 5.66491 4.527362 11.129882 4.5939408h.399876.399876c5.131742-.0665788 8.930564-2.4634175 11.32982-6.8576219zm-25.65871-8.9215663v.0665789c0 .7323674-.133292 1.5313136-.266584 2.3302598s-.066646.3994732-.33323 1.0652617c-.066646.1997366-.133292.3994731-.266584.5992097-.66646 1.4647347-2.33261 3.8615735-5.464972 3.8615735-6.464662 0-10.263484-4.7270986-10.263484-9.3210395 0-6.6578853 3.199008-12.3836667 9.597024-17.1107652 2.865778-1.7976291 5.598264-3.7949947 7.064476-6.0586757v21.305233c-.066646 1.1318405-.066646 2.1971022-.066646 3.2623638z"/></g></svg>