<svg width="2880" height="1800" viewBox="0 0 2880 1800" fill="none" xmlns="http://www.w3.org/2000/svg">
<g id="case-header">
<g id="Group 21">
<path id="Vector" d="M1431.13 750V807.92C1431.13 816.967 1429.71 825.685 1427.08 833.858C1426.05 837.044 1424.85 840.147 1423.46 843.157C1415.15 861.266 1400.62 875.883 1382.63 884.253C1379.65 885.634 1376.59 886.849 1373.43 887.879C1373.41 887.883 1373.39 887.896 1373.37 887.9C1365.28 890.533 1356.64 891.957 1347.67 891.957H1290C1291.1 871.194 1296.38 851.548 1305.02 833.862H1332.53L1315.1 816.327C1325.92 800.11 1339.82 786.138 1355.94 775.24L1373.37 792.779V765.098C1390.96 756.41 1410.49 751.101 1431.13 750Z" fill="#F5F7FA"/>
<path id="Vector_2" d="M1431.13 991.98V1050C1410.48 1048.9 1390.95 1043.59 1373.37 1034.9V1007.23L1355.93 1024.76C1339.81 1013.87 1325.92 999.89 1315.09 983.678L1332.52 966.142H1305.01C1296.37 948.452 1291.1 928.806 1290 908.043H1347.58C1356.58 908.043 1365.25 909.471 1373.37 912.117C1376.54 913.151 1379.63 914.365 1382.62 915.755C1400.62 924.121 1415.16 938.734 1423.48 956.83C1424.85 959.82 1426.05 962.905 1427.08 966.079C1427.09 966.1 1427.09 966.121 1427.1 966.142C1429.72 974.282 1431.14 982.965 1431.14 991.984L1431.13 991.98Z" fill="#F5F7FA"/>
<path id="Vector_3" d="M1573.25 966.14H1545.74L1563.18 983.676C1552.35 999.892 1538.46 1013.86 1522.34 1024.76L1504.9 1007.22V1034.9C1487.32 1043.58 1467.78 1048.9 1447.13 1049.99V992.075C1447.13 983.022 1448.55 974.305 1451.19 966.136C1452.21 962.95 1453.42 959.843 1454.8 956.832C1463.12 938.728 1477.65 924.107 1495.64 915.737C1498.61 914.355 1501.68 913.145 1504.83 912.119C1504.86 912.111 1504.88 912.102 1504.9 912.098C1512.99 909.46 1521.62 908.037 1530.59 908.037H1588.27C1587.18 928.804 1581.9 948.454 1573.26 966.14H1573.25Z" fill="#F5F7FA"/>
<path id="Vector_4" d="M1588.27 891.957H1530.68C1521.69 891.957 1513.02 890.529 1504.89 887.883C1501.73 886.849 1498.64 885.631 1495.65 884.245C1477.65 875.879 1463.11 861.266 1454.79 843.17C1453.42 840.176 1452.21 837.09 1451.19 833.92C1451.18 833.9 1451.17 833.875 1451.17 833.854C1448.55 825.714 1447.13 817.03 1447.13 808.011V750C1467.78 751.101 1487.31 756.41 1504.89 765.098V792.771L1522.33 775.236C1538.45 786.13 1552.34 800.102 1563.17 816.319L1545.73 833.854H1573.25C1581.89 851.54 1587.17 871.185 1588.26 891.957H1588.27Z" fill="#F5F7FA"/>
<path id="Vector_5" d="M1564.98 1038.6C1564.98 1032.21 1570.04 1027.2 1576.62 1027.2C1583.2 1027.2 1588.25 1032.29 1588.25 1038.6C1588.25 1044.92 1583.2 1050 1576.62 1050C1570.04 1050 1564.98 1044.92 1564.98 1038.6ZM1586.19 1038.6C1586.19 1033.21 1582.13 1029.13 1576.62 1029.13C1571.11 1029.13 1567.05 1033.29 1567.05 1038.6C1567.05 1043.92 1571.18 1047.92 1576.62 1047.92C1582.05 1047.92 1586.19 1043.84 1586.19 1038.6ZM1572.33 1044.76V1031.9H1577.38C1579.91 1031.9 1581.67 1033.21 1581.67 1035.44C1581.67 1037.52 1580.37 1038.37 1578.38 1038.37V1038.91C1579.53 1038.91 1580.6 1039.6 1580.9 1041.07L1581.82 1044.76H1580.06L1579.3 1041.45C1578.91 1039.76 1577.54 1039.14 1576.16 1039.14H1574.02V1044.76H1572.33ZM1574.02 1037.83H1577.38C1579.37 1037.83 1580.06 1036.68 1580.06 1035.44C1580.06 1034.06 1579.14 1033.29 1577.38 1033.29H1574.02V1037.91V1037.83Z" fill="#F5F7FA"/>
</g>
</g>
</svg>
