<svg height="900" viewBox="0 0 1440 900" width="1440" xmlns="http://www.w3.org/2000/svg"><g fill="#fff" transform="translate(592 444)"><path d="m8.72571429 12h1.93714281l-4.19999996-12h-2.26285714l-4.2 12h1.90285714l.87428572-2.60571429h5.07428571zm-5.4-4.26857143 1.92-5.72571428h.12l1.92 5.72571428z"/><path d="m23.16 12h1.7657143v-8.69142857h.1028571l5.2457143 8.69142857h1.9714286v-12h-1.7657143v8.69142857h-.1028571l-5.2971429-8.69142857h-1.92z"/><path d="m45.9428571 12h3.7371429c2.6914286 0 4.5257143-1.68 4.5257143-4.14857143v-3.56571428c0-2.46857143-1.8342857-4.28571429-4.5257143-4.28571429h-3.7371429zm1.8171429-1.6114286v-8.75999997h1.92c1.8171429 0 2.6914286 1.33714286 2.6914286 2.67428571v3.51428572c0 1.37142857-.8571429 2.57142854-2.6914286 2.57142854z"/><path d="m68.1085714 12h1.8342857v-4.56h2.3142858l2.4514285 4.56h2.0914286l-2.7257143-4.83428571c1.3028572-.48 2.3657143-1.76571429 2.3657143-3.48 0-2.17714286-1.56-3.68571429-4.0285714-3.68571429h-4.3028572zm1.8342857-6.17142857v-4.23428572h2.3314286c1.4742857 0 2.28.92571429 2.28 2.09142858 0 1.42285714-.96 2.14285714-2.2114286 2.14285714z"/><path d="m91.1657143 12h7.3028571v-1.6114286h-5.4514285v-3.6685714h4.5257142v-1.61142857h-4.5257142v-3.48h5.2628571v-1.62857143h-7.1142857z"/><path d="m113.674286 12h2.228571l1.234286-9.44571429h.102857l1.234286 9.44571429h2.245714l1.628571-12h-1.731428l-1.08 9.44571429h-.12l-1.182857-9.44571429h-2.091429l-1.182857 9.44571429h-.102857l-1.097143-9.44571429h-1.731429z"/><path d="m157.371429 12h1.834285v-5.22857143h5.451429v5.22857143h1.851428v-12h-1.851428v5.05714286h-5.451429v-5.05714286h-1.834285z"/><path d="m187.697143 12h1.937143l-4.2-12h-2.262857l-4.2 12h1.902857l.874285-2.60571429h5.074286zm-5.4-4.26857143 1.92-5.72571428h.12l1.92 5.72571428z"/><path d="m202.337143 12h1.834286v-4.56h2.314285l2.451429 4.56h2.091428l-2.725714-4.83428571c1.302857-.48 2.365714-1.76571429 2.365714-3.48 0-2.17714286-1.56-3.68571429-4.028571-3.68571429h-4.302857zm1.834286-6.17142857v-4.23428572h2.331428c1.474286 0 2.28.92571429 2.28 2.09142858 0 1.42285714-.96 2.14285714-2.211428 2.14285714z"/><path d="m224.914286 12h3.737143c2.691428 0 4.525714-1.68 4.525714-4.14857143v-3.56571428c0-2.46857143-1.834286-4.28571429-4.525714-4.28571429h-3.737143zm1.817143-1.6114286v-8.75999997h1.92c1.817142 0 2.691428 1.33714286 2.691428 2.67428571v3.51428572c0 1.37142857-.857143 2.57142854-2.691428 2.57142854z"/><path d="m252.325714 7.37142857 4.148572-7.37142857h-2.057143l-2.965714 5.45142857h-.102858l-2.982857-5.45142857h-2.005714l4.165714 7.37142857v2.93142853h-2.605714v1.6971429h7.011429v-1.6971429h-2.588572z"/></g></svg>