<?xml version="1.0" encoding="UTF-8"?>
<svg width="2880px" height="1800px" viewBox="0 0 2880 1800" version="1.1" xmlns="http://www.w3.org/2000/svg" xmlns:xlink="http://www.w3.org/1999/xlink">
    <title>Artboard</title>
    <g id="Artboard" stroke="none" stroke-width="1" fill="none" fill-rule="evenodd">
        <g id="logo-futuregoals" transform="translate(1055.000000, 740.000000)" fill="#F4EDE4" fill-rule="nonzero">
            <path d="M723.97918,103.493869 C715.638235,104.247563 708.083862,103.063772 701.811767,101.376154 C693.552757,99.1478425 687.346209,95.9897031 684.359693,94.1955842 C679.509162,91.4020029 677.620569,89.120441 678.792235,87.7113617 C681.258467,84.389376 692.008289,88.1660358 690.320436,85.1266846 C687.284759,79.7484254 673.425517,69.3933316 663.806392,67.2100779 C659.406503,66.1983262 655.793186,66.8168465 654.699359,70.2043713 C650.827948,82.1160066 671.569698,102.105271 679.832804,104.280332 C679.980287,104.317197 679.980287,104.321293 680.135962,104.358159 C686.436735,105.689411 691.434747,102.801618 697.080043,104.300813 C697.538876,104.423698 697.964937,104.669467 698.42377,104.792352 C712.840167,110.551554 689.787861,144.635707 679.36168,141.928145 C678.919233,141.817548 678.50956,141.575875 678.09579,141.338298 C672.024435,137.43056 673.495161,130.487567 669.070692,123.388921 C665.109153,116.933372 660.25043,113.181289 656.624822,112.333383 C652.536285,111.374882 649.893893,113.902213 651.135203,120.157051 C653.408888,130.876703 670.590579,160.045463 681.840203,163.138064 C682.126974,163.215892 682.598098,163.207699 682.888966,163.285526 C691.733809,164.49799 689.435542,149.051368 694.294265,143.419147 C696.789174,140.691104 699.533984,139.998853 702.19686,140.744354 C706.637716,141.981394 710.828672,146.868114 713.811092,152.893567 C719.169617,163.699238 725.994771,190.01707 708.755727,189.160973 C702.475437,189.005319 695.01529,187.235777 687.628884,185.187697 C679.394454,182.902039 671.131347,180.186285 663.712167,178.302052 C661.712962,177.798224 659.857143,177.331261 657.96855,176.99128 C651.487522,175.635451 644.219921,174.422987 637.779859,172.948369 C630.188616,171.207501 623.592879,169.134844 620.663716,165.92755 C616.984852,162.040293 618.422805,157.305132 620.676006,146.655114 C622.236861,139.998853 625.731373,124.949559 628.656439,108.872128 C632.109983,90.3247127 634.453314,70.6426605 635.350498,65.5224597 C637.669247,52.0870527 640.643474,48.7814511 662.81908,52.0460911 C672.348077,53.5493821 686.166351,56.1832134 699.783885,59.7182001 C721.812008,65.3709018 743.09043,73.3092611 745.962238,79.4862715 C750.546481,89.4972882 738.41606,102.146232 723.97918,103.493869 M655.735832,217.248346 C650.954947,224.908168 641.87659,225.350553 633.277551,223.32705 C625.362667,221.451008 617.787811,217.444962 614.309686,214.880766 C605.714745,208.646409 614.059786,201.232359 615.227354,201.355244 C617.931197,201.674744 616.616146,205.021307 618.693189,205.471885 C618.975863,205.533328 619.279021,205.471885 619.725565,205.435019 C623.662524,204.755057 621.224969,200.052664 615.702575,197.828449 C615.030711,197.558102 614.219559,197.254986 613.379728,197.074755 C607.070762,195.727119 596.689645,197.410641 597.578637,203.915344 C598.86501,212.767147 617.279817,220.484314 625.293023,224.850821 C647.689852,237.069669 649.988118,261.208343 643.765183,276.274022 C637.39067,292.203991 618.430998,303.128451 591.347509,297.361057 C589.954619,297.066134 588.561731,296.775306 587.193422,296.361594 C556.631808,288.333119 545.066736,271.510187 550.687451,250.52146 C554.948052,235.058453 564.845755,230.102099 576.480471,232.236199 C580.261754,232.92845 584.170035,234.439933 588.233993,236.524879 C613.453469,250.038113 601.60982,266.062293 592.183241,264.042886 C591.003382,263.805309 590.007877,263.342443 588.92634,262.605134 C585.099993,259.901668 593.16236,259.324109 588.717406,256.235604 C588.106994,255.854661 587.472001,255.600699 586.812426,255.469622 C582.437118,254.613524 578.004455,259.295436 584.817319,264.755618 C587.8489,267.291142 592.330724,269.232722 597.017384,270.219897 C604.952753,271.887034 613.416599,270.70734 615.346159,263.616886 C620.348268,244.901528 589.176241,232.527026 574.809004,223.052607 C554.960342,209.940796 561.384016,192.138882 571.617651,182.136058 C581.09339,172.7026 596.947739,169.847576 614.5432,173.517735 C619.119249,174.468045 623.896037,175.885317 628.71789,177.732685 C651.610424,186.863027 662.982949,206.082213 655.735832,217.248346 M542.178541,274.033422 C540.171142,283.331707 537.434526,285.703384 531.043626,285.655696 C529.474577,285.674711 525.254944,285.056191 519.494941,284.27792 C504.025684,282.070089 478.019634,278.870988 466.94617,278.059948 C465.663893,277.949352 464.504518,277.863332 463.607334,277.789602 C463.091146,277.74864 462.706053,277.719966 462.189865,277.683102 C452.681352,276.966273 451.644879,273.00119 452.775577,265.837005 C454.045564,258.435243 458.216036,203.915344 458.293874,192.503441 C458.277487,181.087441 452.226615,167.115436 462.165285,159.021423 C466.610238,155.388129 474.996247,154.482877 483.242966,155.207898 C494.541751,156.182784 505.668473,160.184732 507.544776,164.088374 C510.101136,169.720595 504.545969,184.376657 499.691342,183.36081 C497.606106,182.889751 498.269777,177.863762 494.758878,177.13055 C491.649459,176.569376 488.613781,216.338999 487.581405,228.062211 C486.577706,240.817655 483.787832,257.300606 492.132873,259.692764 C498.093617,260.282611 514.140513,247.932686 516.27491,242.488889 C518.069278,237.979016 506.496012,240.387559 508.052771,234.214644 C509.642302,227.341287 529.040324,224.555898 535.849092,225.592226 C543.460818,226.694093 546.373593,232.924353 547.024974,236.610898 C547.913964,240.592366 544.075327,264.595868 542.178541,274.033422 M446.921348,146.462595 C434.827798,145.799016 422.877633,142.337761 413.909889,135.534038 C389.354082,117.072642 394.53235,39.0817426 394.987087,29.2796301 C395.187828,21.9393103 406.416967,19.4816138 418.44497,19.8011144 C430.141138,20.0919418 442.36988,23.0411774 446.089712,26.2771444 C454.897684,34.2073114 448.150367,59.5502574 437.232579,59.0669105 C437.076903,59.0628144 436.761455,59.0464297 436.605779,59.0423335 C430.796615,58.3050246 436.695907,45.7380037 429.313598,42.9280375 C428.838377,42.7805757 428.527025,42.6494985 428.203383,42.63721 C422.447476,42.4405944 420.460562,56.9614839 422.181189,67.5131938 C426.888333,94.4536423 445.811134,126.891139 457.331142,127.673505 C457.921071,127.714467 458.375809,127.612063 458.978028,127.526044 C470.797098,124.892212 474.328479,65.6494407 466.479142,46.2008699 C461.399196,33.5724065 460.084145,27.5346657 466.864236,25.8060859 C475.119148,23.6474092 491.51017,24.6673533 500.236207,25.50297 C516.741937,27.0717995 510.293682,33.8591378 507.245714,45.1153873 C504.271488,56.9082339 506.922073,99.901536 495.836318,124.630058 C488.675232,140.326545 467.421391,147.539885 446.921348,146.462595 M433.869163,275.524425 C433.225976,275.491655 432.582789,275.462982 432.066601,275.438405 C406.179357,274.332442 398.846208,253.507561 402.324333,248.801072 C403.40587,247.428859 404.737308,247.072493 406.195744,247.101166 C407.65418,247.125742 409.37071,247.674628 410.956146,247.711494 C412.414582,247.752455 413.881212,247.285493 415.122521,245.671606 C418.45726,241.038848 395.613887,220.959468 383.200792,221.078257 C381.705485,221.086449 380.480563,221.340411 379.399025,221.979412 C371.127725,226.485189 379.517831,236.369225 388.809217,253.986812 C395.941626,267.577873 387.912033,273.296113 376.756634,274.778924 C375.851256,274.91 374.568979,275.04927 373.020415,275.073847 C367.735632,275.127097 359.230818,273.554171 355.474116,262.031671 C348.636671,241.464849 362.991617,205.697174 368.419786,189.824551 C372.033103,178.629744 371.303884,164.215355 373.815181,157.727036 C375.63413,152.897663 385.78583,151.271487 397.105098,151.394371 C412.066359,151.513161 428.928505,154.941647 430.13704,156.776727 C432.324695,159.775116 430.296813,163.498526 430.161621,166.910629 C430.034623,171.334482 436.851583,200.384453 439.842197,215.249421 C443.811929,233.084104 455.823545,275.831637 433.869163,275.524425 M328.157112,267.528719 C317.587545,274.086672 306.128989,277.601178 295.19891,278.604737 C277.492838,280.20224 260.700337,275.413828 250.347897,265.963986 C225.042389,242.873928 224.841649,189.382166 248.733785,169.806614 C257.668756,162.441717 270.335849,157.710652 283.49455,156.510477 C299.983892,154.982608 317.374516,159.185269 328.796202,170.015519 C354.92925,194.998002 355.10541,251.127691 328.157112,267.528719 M181.031206,203.022381 C183.612147,198.250354 171.633305,191.897209 160.682743,192.245382 C159.506981,192.228998 158.523766,192.437902 157.54055,192.64271 C146.819405,194.916079 141.829586,206.999752 147.909135,225.084302 C152.788342,239.986135 166.049461,263.690616 188.376645,270.203512 C192.395538,271.342245 197.455001,271.796919 201.613184,271.030936 C207.31993,269.982319 210.912763,266.664429 206.369488,260.139245 C201.985986,253.695984 190.293916,249.3049 186.828081,249.997152 C186.561793,250.046305 186.299602,250.095459 186.188991,250.247017 C180.38802,255.006756 183.493342,256.714855 180.031604,257.931415 C176.598543,259.13159 166.536972,249.997152 161.592217,240.46129 C157.360293,232.187045 160.592615,225.633188 167.012193,224.289647 C168.10602,224.064358 169.224427,223.961954 170.523091,224.080743 C179.093453,224.904071 189.490956,228.430866 199.130564,227.611634 C208.794753,226.907094 217.016893,224.310128 220.564662,227.341287 C223.415987,229.708868 220.003409,236.520783 227.971552,253.343715 C232.904016,263.98554 237.942996,280.112125 232.236249,283.040879 C230.175593,284.130458 228.426289,284.662959 226.636018,284.953787 C222.154193,285.674711 218.254106,284.404901 214.153277,285.117633 C213.256093,285.277383 212.38349,285.555922 211.404371,285.986019 C206.836516,287.821099 197.459098,292.609511 186.430698,294.870591 C180.842757,296.009324 174.738627,296.529536 168.396887,295.611997 C139.35516,291.397047 120.911676,267.770393 117.994804,235.603243 C115.467121,208.462082 128.736433,180.989133 161.645474,174.20589 C183.837467,169.655056 205.439531,175.639547 214.218825,188.612088 C222.125516,200.224703 225.206259,220.132044 207.983601,222.987068 C207.573928,223.052607 207.164255,223.122241 206.754581,223.195972 C188.03252,225.194899 174.68537,214.114784 181.031206,203.022381 M94.1559259,132.355417 C89.3094927,131.36005 80.9685478,130.024702 75.8967948,131.409204 C72.1687695,132.420955 70.1613712,134.952383 73.029083,140.068487 C79.379016,151.164987 95.3439774,162.36389 100.055219,167.053994 C104.967199,171.686752 108.314229,177.183799 96.3886441,182.672654 C94.2132801,183.643445 91.4397925,184.6511 88.3180839,185.503102 C77.8263549,188.349933 63.5861177,190.037552 58.0268535,187.108797 C50.964089,183.295271 48.8542725,171.101 46.5601031,158.959981 C44.2044826,146.827153 41.9963445,121.316264 36.8221731,107.930011 C31.6070344,94.5478541 26.9326641,89.2146528 24.1509837,85.1635502 C21.3324326,81.0059467 23.3767015,74.3742629 33.9954286,70.3395446 C40.8861304,67.6524633 56.6011911,62.3725122 73.4141757,58.0715435 C92.7548431,53.0660352 113.414658,49.4737022 122.390597,50.9360316 C135.160108,53.0086888 134.918401,70.2903908 136.335869,77.6143258 C137.786113,85.331493 127.814669,89.210557 116.92146,92.4751972 C112.771472,93.3845445 97.9290152,95.7603174 96.5115461,91.4388684 C94.3320849,85.40932 112.775568,78.0567115 105.561225,72.4859329 C103.320313,70.6631413 96.1469372,71.1751614 88.0108284,73.1904724 C72.4760243,76.9917096 53.8522845,86.502995 59.5139669,93.4910446 C65.6918375,101.236884 76.5399816,106.287451 84.143515,104.337678 C84.6023488,104.222986 85.2086645,104.063235 85.6347247,103.825658 C89.4733618,102.318271 90.6245434,100.466807 93.5373194,99.7376897 C94.7622416,99.4345737 96.536126,99.381324 98.891747,99.7213048 C106.622278,100.946057 125.094439,126.432369 117.884192,132.662629 C116.335628,134.071709 114.647775,134.858171 112.869793,135.288268 C107.097499,136.672771 100.575503,133.854612 94.1559259,132.355417 M159.085018,40.0033788 C170.637799,37.8692791 183.251634,38.2379336 187.573686,40.6259952 C197.872868,46.5654282 196.541431,72.7480871 185.730157,74.5340132 C185.578578,74.5585902 185.26313,74.607744 185.111551,74.6364171 C179.257322,75.1115718 182.419998,61.6024339 174.587048,60.3776819 C174.091344,60.3408164 173.755412,60.2711817 173.439963,60.3244318 C167.745507,61.3279912 168.827044,75.9349001 172.714842,85.9049554 C182.96896,111.284766 208.311339,139.10589 219.7658,137.496099 C220.351632,137.410079 220.773595,137.221656 221.347138,137.008656 C232.383731,131.994955 223.481535,73.3092611 211.728013,55.9087706 C204.112189,44.599271 201.564023,38.9670501 207.848409,35.8744488 C215.492909,32.0568271 231.761028,29.6810539 240.474775,28.6979754 C256.955925,26.830126 252.064428,34.8012547 251.429434,46.4384471 C250.974697,58.5876597 262.535672,100.098152 256.845313,126.57983 C253.113191,143.406859 233.81349,154.843339 213.481414,158.026056 C201.477992,159.873425 189.023929,158.951788 178.798488,154.155184 C150.817814,141.182643 139.613254,63.8184569 138.015529,54.1351331 C136.679995,46.9095057 147.208594,42.1784401 159.085018,40.0033788 M269.405891,25.5357393 C274.690674,24.5239876 293.125964,22.6069845 313.400687,21.4600594 C342.106481,19.6905181 374.757429,19.7355758 378.968869,20.2803652 C387.907936,21.2552514 389.984978,25.8470475 389.132859,41.5271505 C388.305319,57.2400228 391.365577,70.4706218 375.974158,70.2944869 C363.257905,70.1552174 355.674856,55.3189235 360.0051,51.6651482 C360.472127,51.2801091 361.733921,51.1203588 362.999811,51.099878 C363.79048,51.0793972 364.577052,51.0753011 365.367721,51.0589164 C367.268605,51.022051 369.005618,50.8745892 369.308777,49.8587413 C370.713955,46.2909853 360.517192,36.5626038 354.400772,36.7305464 C353.597813,36.7510272 352.962819,36.8943928 352.331923,37.2876243 C342.643154,42.8870759 354.724414,116.101852 356.862907,127.321236 C357.8748,131.982666 357.723221,138.184254 354.712124,140.670624 C351.55764,143.410955 343.585402,145.045323 335.707388,145.401689 C327.538506,145.758055 319.58675,144.709438 317.206549,141.936337 C313.404783,137.352733 313.687458,135.685596 315.154087,115.81512 C316.485525,95.9405485 322.356141,41.3714965 316.280688,37.7750674 C314.789479,36.9722199 313.003303,36.6936809 310.922164,36.8165658 C299.475897,37.4637592 281.786212,50.8377237 282.863652,55.2206157 C283.855061,59.3290648 286.022232,62.5691279 291.823204,62.1144541 C298.697518,61.2132987 294.576207,56.6993296 294.191114,53.8115363 C294.072309,52.2959569 296.518058,50.9647047 299.8487,50.7353197 C304.764777,50.387146 311.114711,52.7834 310.856617,61.4222029 C310.463331,73.4976845 299.62338,83.0130657 285.03492,84.2501063 C256.411059,84.680203 261.093623,54.9052113 259.659767,44.9310601 C258.35291,36.9353544 256.755185,28.1408975 269.405891,25.5357393 M515.111439,42.481556 C515.873431,35.1781015 524.259439,31.3522874 530.425019,30.4265551 C533.571308,30.016939 549.581334,30.3651127 566.976054,32.9211169 C584.530548,35.4525443 603.408285,40.2696292 612.142516,47.3150256 C634.260767,65.0473051 626.247561,96.3624536 609.643509,106.099027 C596.697839,113.816194 594.518378,110.895632 596.767484,117.98199 C599.07804,125.174848 614.10485,141.77249 612.277708,151.775314 C610.356341,161.868255 606.415285,164.219451 591.712117,161.458639 C573.86266,158.161229 563.170192,147.068826 560.662992,138.729043 C558.84814,132.941168 559.843645,131.298608 562.072267,131.642685 C563.702767,131.896647 566.193579,133.4409 568.500038,135.091653 C570.507437,136.697347 572.44519,137.778734 573.915917,138.028599 C575.976573,138.372677 576.873757,136.721924 575.046615,131.286319 C572.38374,123.245556 558.819463,102.38381 547.770579,100.892807 C541.67874,100.057191 539.568923,106.688875 541.30184,113.173097 C543.665654,121.004956 553.170071,138.983005 553.641194,146.368383 C554.337639,155.42909 542.797147,155.355359 532.944509,154.073261 C525.549909,153.073798 513.001622,151.091256 510.252715,143.804186 C507.262102,135.837154 514.939376,108.282281 516.04959,96.0511451 C517.524413,80.6741584 514.402704,49.6580295 515.111439,42.481556 M766.753149,68.2668873 C763.86905,62.4093776 757.936983,50.2847421 705.80608,37.8733752 C688.497391,33.7362529 672.671719,31.2785566 666.407816,30.4183628 C653.097537,28.6570138 640.114996,28.4112441 630.389356,34.5145235 C629.029241,33.2447137 627.669126,31.9749039 626.18611,30.7870173 C612.42519,20.0141147 588.193025,14.8939139 570.306697,12.4771791 C552.834139,10.1014059 534.247269,9.44602022 527.778531,10.306214 L527.364761,10.3881372 C525.472071,10.6748684 523.616252,11.1254461 521.719465,11.657947 C514.386316,6.57870779 505.811858,5.8004372 502.391088,5.51370595 C489.822317,4.36678098 472.558692,3.67043367 461.554872,6.57870779 C459.617118,7.11120867 457.761299,7.76659437 456.032478,8.58582649 C443.131872,1.00792927 423.27092,0.147735539 419.026706,0.0248507208 C408.022886,-0.220918916 399.698328,1.37658373 393.311525,3.91620331 C389.972688,2.35966227 386.056214,1.17177569 381.320392,0.68023642 C378.350262,0.35254357 371.717655,0.188697146 363.184164,0.188697146 C348.640768,0.188697146 328.652817,0.68023642 312.126603,1.62235336 C293.089094,2.60543191 272.523503,4.44870419 264.940454,5.8413988 C261.687649,6.49678458 257.935043,7.60274795 254.268469,9.44602022 C247.344994,7.52082473 240.79432,8.21717204 237.910221,8.50390328 C225.378321,9.81467468 208.278565,12.4362175 198.016253,17.4335335 C196.205498,18.2937272 194.513549,19.3177674 192.948597,20.4646924 C178.814875,15.508338 159.072727,18.4575737 154.910448,19.1948826 C141.891037,21.4068094 133.152709,25.4210468 127.216546,30.09067 C126.643004,29.9268236 126.106332,29.7629771 125.446758,29.6400923 C111.022168,27.1004727 85.925593,31.852019 67.5066894,36.2758726 C50.7346721,40.2491484 33.9175907,45.4103109 25.5110984,48.4824313 C9.19381819,54.3399411 3.46658806,64.8261124 1.52883424,70.5607373 C-1.2733299,78.7940201 -0.204083031,87.7236508 4.57680216,95.0967399 C5.07250668,95.8750098 5.65014574,96.694242 6.2687522,97.5544362 C8.65714644,100.995211 11.3364086,104.927525 14.5523425,113.652348 C17.1455734,120.738706 18.919458,135.402961 20.1976381,146.09394 C20.8572118,151.70568 21.5167855,156.989727 22.2173266,161.085888 L22.4221631,162.191851 C24.8965887,177.183799 27.985524,195.780369 44.016033,204.791923 C49.9931638,208.068851 57.4901818,209.133853 64.8683946,209.133853 C75.0487715,209.133853 85.0202154,207.04481 90.3377723,205.73404 C92.3123965,205.201539 94.2911179,204.628075 96.2288714,204.013652 C92.9310029,214.090207 91.4889539,225.149841 92.3533636,236.946784 C95.3644609,279.915509 122.148889,311.496908 160.555744,317.43634 C163.976515,317.968841 167.520187,318.214611 171.149891,318.214611 C176.094645,318.214611 181.162302,317.723072 186.311893,316.739993 C197.524646,314.60999 207.08232,310.595752 212.768583,308.219979 C213.387189,307.97421 213.964828,307.72844 214.5015,307.48267 C214.747304,307.523632 214.956237,307.523632 215.202041,307.564593 C217.881303,307.769401 221.875616,308.056132 226.615534,307.359785 C230.945779,306.7044 234.981059,305.393628 238.733665,303.468433 C242.318304,301.707084 246.398648,298.716886 249.364682,293.801494 C260.450436,299.044579 273.432977,301.952854 286.989061,301.952854 C289.70929,301.952854 292.470487,301.829969 295.190716,301.584199 C310.315848,300.314389 325.191079,295.480919 338.214587,287.616291 C339.615669,286.797058 340.934816,285.81398 342.249867,284.830902 C349.669047,293.555724 360.468031,298.389193 372.995835,298.348232 C375.302294,298.30727 377.52682,298.143424 379.382638,297.856693 C389.436017,296.545921 396.482394,293.268993 401.386181,289.336678 C409.96064,294.907457 420.427788,298.184385 431.923216,298.634963 L434.602478,298.757848 L435.057215,298.757848 C439.260461,298.757848 443.254774,298.020539 446.925445,296.709767 C451.251593,298.962656 456.360217,300.355351 462.255413,300.764967 L467.118233,301.133621 C477.544414,301.829969 503.050662,304.738242 519.535908,306.909208 L521.969367,307.2369 C527.696597,307.97421 531.035432,308.383826 533.919531,308.383826 L534.247269,308.383826 C540.142465,308.383826 546.816041,307.114016 552.670269,303.017855 C561.363533,309.53075 572.40832,314.528067 585.923436,317.886919 C587.656353,318.378457 589.471206,318.747112 591.486797,319.156728 C597.836731,320.385576 603.891699,321 609.577962,321 C640.569733,321 661.258225,303.714203 668.714276,284.175516 C674.072801,270.535301 674.48657,253.782004 668.50944,238.585248 C673.249357,235.06255 676.215391,231.089274 677.780342,228.467731 C682.233489,221.340411 683.921342,213.066167 682.725097,204.546153 C683.675538,204.791923 684.580916,205.078654 685.531358,205.324423 C693.606014,207.372504 703.003916,209.502507 711.942983,209.58443 L712.852458,209.58443 C724.143049,209.58443 733.827721,204.505191 739.513983,195.493637 C752.496525,174.930911 737.535263,145.110862 735.806442,141.792971 C732.508573,135.443922 728.42823,130.241798 723.811213,126.309484 C724.102082,125.572175 724.347885,124.834866 724.556818,124.097558 C724.597786,124.015634 724.638753,123.892749 724.67972,123.810826 C725.830902,123.728903 727.027148,123.606018 728.223393,123.483133 C743.71723,121.762745 758.305689,112.382538 765.393034,99.6434779 C770.997359,89.5669226 771.534034,78.1386343 766.753149,68.2668873" id="Shape"></path>
            <path d="M401.490585,176.004788 C401.338982,176.004788 401.187379,176 401.187379,176 C395.166569,175.926998 389.899442,187.558621 391.198898,198.441006 C392.390065,208.553681 407.15188,218.256935 419.020241,218.997986 C426.799647,219.337805 409.698812,176.565693 401.490585,176.004788" id="Path"></path>
            <path d="M308.994248,252.76654 C328.390071,249.639858 323.479377,224.6183 311.228958,204.922632 C302.217248,190.435402 287.687587,173.688212 274.263136,175.081448 C271.032523,175.409506 267.890975,176.632639 265.154265,178.823747 C255.98062,186.417696 262.810249,208.170818 277.704265,232.803566 C277.704265,232.803566 291.841232,255.532763 308.994248,252.76654" id="Path"></path>
            <path d="M583.946992,91.7668797 C588.293499,92.46558 592.274682,91.6183054 595.504464,88.8917685 C611.242385,76.0943119 569.848871,46.3553827 550.56151,44.1669252 C547.327577,43.7573424 544.982042,44.0906304 543.508298,45.2872549 C535.056067,53.089407 563.991259,88.4099067 583.946992,91.7668797" id="Path"></path>
        </g>
    </g>
</svg>