<svg width="2880" height="1800" viewBox="0 0 2880 1800" fill="none" xmlns="http://www.w3.org/2000/svg">
<g id="case-header">
<g id="Logo (Smaller Icon)" clip-path="url(#clip0_713_164)">
<g id="symbol">
<path id="Vector" d="M1440.5 1051.31C1442 1051.31 1444.44 1049.7 1444.67 1049.52C1445.05 1049.22 1448.14 1047.33 1450.73 1044.19C1452.72 1041.77 1453.3 1040.25 1454.33 1040.36C1455.36 1040.47 1455.75 1043.51 1455.81 1044.01C1456 1045.41 1456.56 1048.71 1456.69 1052.94C1456.94 1060.93 1454.3 1066.54 1448.96 1072.45C1448.96 1072.45 1448.4 1072.91 1447.7 1073.61C1447.02 1074.31 1445.28 1075.61 1444.41 1076.16C1442.79 1077.2 1441.28 1078.22 1440.5 1078.22C1439.71 1078.22 1438.2 1077.2 1436.57 1076.16C1435.71 1075.61 1433.97 1074.31 1433.28 1073.61C1432.59 1072.92 1432.02 1072.45 1432.02 1072.45C1426.69 1066.54 1424.06 1060.93 1424.3 1052.94C1424.44 1048.71 1424.99 1045.4 1425.18 1044.01C1425.25 1043.51 1425.63 1040.47 1426.67 1040.36C1427.69 1040.25 1428.27 1041.77 1430.27 1044.19C1432.86 1047.33 1435.94 1049.22 1436.33 1049.52C1436.56 1049.7 1439 1051.31 1440.5 1051.31M1440.5 1050.15C1438.91 1050.15 1434.39 1044.72 1433.71 1043.55C1432.95 1042.22 1432.02 1040.2 1431.55 1037.64C1431.25 1035.96 1430.82 1034.06 1433.53 1027.16C1434.67 1024.25 1436.15 1020.59 1436.77 1019.15C1437.39 1017.72 1438.34 1014.77 1438.04 1012.9C1437.92 1012.16 1437.43 1011.22 1436.79 1011.55C1436.16 1011.88 1435.39 1014.96 1434.57 1016.44C1433.79 1018.4 1432.86 1020.11 1431.76 1022.12C1430.66 1024.13 1429.25 1026.65 1428.52 1029.46C1428.07 1030.69 1427.68 1032.87 1427.47 1033.69C1427.25 1034.52 1427.29 1035.79 1426.81 1035.22C1426.33 1034.66 1426.07 1032.72 1426.63 1030.07C1427.15 1027.6 1428.48 1024.41 1430.02 1020.6C1431.34 1017.31 1435.22 1010.53 1435.13 1009.95C1435.09 1009.61 1435.01 1009.17 1434.21 1008.87C1433.26 1008.71 1432.98 1009.31 1432.42 1009.99C1429.03 1013.88 1425.15 1020.95 1423.54 1024.92C1422.79 1026.75 1422.28 1028.32 1421.9 1029.66C1421.52 1031.02 1420.89 1032.79 1420.56 1034.95C1420.24 1037.1 1419.7 1039.22 1419.55 1041.97C1419.34 1045.16 1419.07 1046.08 1419.13 1048.49C1419.23 1052.14 1420.03 1055.1 1419.45 1054.9C1419.03 1054.58 1418.08 1050.63 1417.91 1049.29C1417.73 1047.93 1417.72 1046.43 1417.67 1044.98C1417.63 1043.54 1417.71 1041.84 1417.73 1040.2C1417.75 1038.56 1418.48 1031.28 1421.09 1025.36C1422.54 1022.07 1424.89 1016.66 1428.75 1011.87C1429.46 1010.64 1430.54 1009.85 1430.3 1009.22C1430.05 1008.58 1427.65 1008.69 1426.67 1010.1C1423.46 1013.62 1419.23 1020.22 1418.05 1022.81C1416.88 1025.39 1415.6 1028.47 1415.22 1030.1C1414.84 1031.74 1413.7 1035.66 1413.4 1037.19C1413.08 1038.73 1413.22 1041.55 1412.59 1040.59C1411.96 1039.64 1412.26 1036.2 1412.33 1035.75C1412.45 1033.08 1413.18 1030.67 1413.36 1029.93C1413.53 1029.18 1414.58 1024.73 1416.48 1021.32C1419.85 1015.26 1424.72 1010.76 1424.67 1010.12C1424.62 1009.48 1421.46 1010.71 1417.59 1014.64C1415.34 1016.92 1411.67 1023.25 1410.38 1026.73C1409.5 1029.08 1408.51 1031.94 1408.33 1035.44C1408.15 1038.94 1407.87 1043.79 1407.22 1045.02C1406.58 1046.25 1406.57 1046.18 1405.71 1047.35C1404.85 1048.51 1402.48 1049.18 1400.87 1049.27C1400.7 1049.2 1399.65 1049.44 1400.53 1049.7C1402.97 1050.43 1404.62 1050.84 1407.13 1049.91C1409.63 1048.98 1411.3 1046.49 1411.83 1046.2C1412.36 1045.91 1413.03 1045.71 1413.26 1046.9C1413.45 1047.94 1413.5 1051.11 1414.77 1054.63C1416.04 1058.16 1418.36 1062.54 1421.36 1065.85C1426.45 1071.21 1431.48 1075.19 1437.51 1077.54C1438.52 1077.94 1439.78 1078.51 1440.5 1078.51C1441.22 1078.51 1442.47 1077.94 1443.49 1077.54C1449.52 1075.19 1454.56 1071.21 1459.65 1065.85C1462.65 1062.53 1464.96 1058.16 1466.24 1054.63C1467.5 1051.11 1467.55 1047.94 1467.75 1046.9C1467.98 1045.72 1468.65 1045.91 1469.17 1046.2C1469.7 1046.49 1471.37 1048.98 1473.87 1049.91C1476.38 1050.84 1478.04 1050.43 1480.48 1049.7C1481.34 1049.44 1480.3 1049.2 1480.14 1049.27C1478.53 1049.18 1476.16 1048.51 1475.29 1047.35C1474.43 1046.18 1474.42 1046.25 1473.78 1045.02C1473.14 1043.79 1472.85 1038.94 1472.67 1035.44C1472.5 1031.94 1471.49 1029.08 1470.62 1026.73C1469.33 1023.25 1465.65 1016.92 1463.41 1014.64C1459.53 1010.71 1456.37 1009.48 1456.32 1010.12C1456.28 1010.75 1461.14 1015.26 1464.52 1021.32C1466.42 1024.73 1467.47 1029.18 1467.65 1029.93C1467.82 1030.67 1468.55 1033.08 1468.67 1035.75C1468.73 1036.19 1469.04 1039.63 1468.41 1040.59C1467.77 1041.55 1467.91 1038.73 1467.6 1037.19C1467.3 1035.66 1466.16 1031.74 1465.78 1030.1C1465.4 1028.47 1464.12 1025.39 1462.95 1022.81C1461.77 1020.22 1457.53 1013.62 1454.32 1010.1C1453.35 1008.69 1450.95 1008.58 1450.7 1009.22C1450.46 1009.85 1451.53 1010.64 1452.25 1011.87C1456.1 1016.65 1458.45 1022.07 1459.91 1025.36C1462.52 1031.28 1463.25 1038.56 1463.27 1040.2C1463.29 1041.84 1463.37 1043.53 1463.33 1044.98C1463.28 1046.43 1463.28 1047.93 1463.09 1049.29C1462.92 1050.63 1461.97 1054.58 1461.54 1054.9C1460.97 1055.1 1461.77 1052.13 1461.87 1048.49C1461.93 1046.08 1461.65 1045.15 1461.45 1041.97C1461.3 1039.22 1460.76 1037.1 1460.43 1034.95C1460.11 1032.79 1459.48 1031.02 1459.1 1029.66C1458.72 1028.31 1458.2 1026.75 1457.46 1024.92C1455.86 1020.95 1451.98 1013.88 1448.59 1009.99C1448.02 1009.31 1447.75 1008.71 1446.78 1008.87C1446 1009.17 1445.92 1009.61 1445.87 1009.95C1445.78 1010.53 1449.66 1017.32 1450.98 1020.6C1452.52 1024.41 1453.85 1027.6 1454.37 1030.07C1454.92 1032.72 1454.67 1034.65 1454.19 1035.22C1453.72 1035.79 1453.76 1034.52 1453.53 1033.69C1453.31 1032.87 1452.93 1030.69 1452.48 1029.46C1451.75 1026.64 1450.34 1024.12 1449.24 1022.12C1448.14 1020.12 1447.22 1018.4 1446.43 1016.44C1445.62 1014.97 1444.84 1011.88 1444.21 1011.55C1443.57 1011.22 1443.07 1012.17 1442.95 1012.9C1442.66 1014.77 1443.61 1017.72 1444.23 1019.15C1444.85 1020.6 1446.33 1024.25 1447.46 1027.16C1450.18 1034.06 1449.75 1035.96 1449.44 1037.64C1448.98 1040.2 1448.04 1042.21 1447.28 1043.55C1446.6 1044.72 1442.09 1050.15 1440.5 1050.15" fill="white"/>
<path id="Vector_2" d="M1509.67 962.912C1509.63 963.94 1509.37 966.09 1509.11 967.038C1508.85 967.993 1508.74 968.707 1508.74 968.707C1506.3 976.284 1502.77 981.398 1495.74 985.163C1492.02 987.159 1488.88 988.334 1487.59 988.869C1487.12 989.062 1484.3 990.25 1483.69 989.409C1483.09 988.575 1484.11 987.306 1485.21 984.362C1486.62 980.544 1486.71 976.938 1486.78 976.444C1486.82 976.151 1486.99 973.227 1486.24 971.931C1485.49 970.636 1482.89 969.321 1482.61 969.208C1482.15 969.034 1479 967.298 1474.97 966.624C1471.89 966.097 1470.28 966.357 1469.86 965.409C1469.45 964.468 1471.88 962.612 1472.28 962.298C1473.39 961.443 1475.97 959.3 1479.56 957.07C1486.33 952.858 1492.51 952.337 1500.28 954.02C1500.28 954.02 1500.96 954.287 1501.91 954.534C1502.86 954.787 1504.85 955.635 1505.76 956.116C1507.46 957.01 1509.1 957.812 1509.49 958.486C1509.89 959.167 1509.76 960.989 1509.68 962.919M1510.43 961.417C1510.26 960.335 1510.13 958.953 1509.77 958.332C1509.41 957.711 1508.28 956.904 1507.43 956.216C1502.38 952.17 1496.42 949.794 1489.26 948.051C1484.89 947.103 1479.94 947.283 1476.26 947.938C1472.58 948.599 1469.82 950.141 1468.83 950.495C1467.69 950.888 1467.53 950.214 1467.51 949.607C1467.5 948.999 1468.81 946.315 1468.37 943.685C1467.92 941.035 1466.73 939.806 1464.87 938.057C1464.22 937.43 1464.54 938.458 1464.67 938.564C1465.41 940.006 1466.02 942.397 1465.44 943.732C1464.86 945.06 1464.92 945.04 1464.18 946.209C1463.45 947.384 1459.39 950.054 1456.45 951.957C1453.52 953.859 1451.55 956.163 1449.95 958.092C1447.59 960.963 1443.96 967.312 1443.11 970.396C1441.66 975.723 1442.17 979.088 1442.75 978.808C1443.32 978.534 1444.78 972.065 1448.33 966.103C1450.33 962.745 1453.65 959.607 1454.2 959.08C1454.76 958.559 1456.48 956.717 1458.73 955.288C1459.07 955.001 1461.89 953.025 1463.04 953.085C1464.18 953.165 1461.68 954.447 1460.5 955.488C1459.33 956.523 1456.5 959.461 1455.28 960.609C1454.06 961.757 1452.04 964.414 1450.4 966.717C1448.75 969.034 1445.16 976.017 1443.73 980.564C1442.99 982.112 1444.1 984.255 1444.78 984.149C1445.44 984.048 1445.59 982.72 1446.29 981.465C1448.49 975.743 1452 970.99 1454.12 968.086C1457.92 962.859 1463.85 958.599 1465.26 957.751C1466.67 956.917 1468.1 955.996 1469.36 955.315C1470.64 954.634 1471.94 953.886 1473.2 953.372C1474.45 952.838 1478.34 951.69 1478.82 951.897C1479.29 952.297 1476.33 953.085 1473.12 954.834C1471.02 955.976 1470.35 956.67 1467.7 958.452C1465.4 959.948 1463.84 961.483 1462.13 962.845C1460.43 964.201 1459.21 965.643 1458.24 966.644C1457.27 967.659 1456.17 968.874 1454.96 970.443C1452.32 973.827 1448.15 980.73 1446.49 985.604C1446.19 986.438 1445.8 986.973 1446.42 987.734C1447.08 988.274 1447.49 988.114 1447.81 987.994C1448.35 987.78 1452.29 981.017 1454.46 978.227C1456.99 974.982 1459.08 972.238 1460.95 970.556C1462.96 968.74 1464.77 967.986 1465.49 968.119C1466.23 968.246 1465.1 968.847 1464.5 969.455C1463.9 970.049 1462.21 971.471 1461.36 972.479C1459.3 974.522 1457.83 977.012 1456.65 978.961C1455.46 980.917 1454.44 982.586 1453.15 984.242C1452.27 985.691 1449.99 987.901 1450.03 988.615C1450.07 989.329 1451.13 989.289 1451.82 989.029C1453.59 988.348 1455.65 986.045 1456.59 984.803C1457.53 983.541 1459.95 980.43 1461.89 977.987C1466.5 972.178 1468.35 971.598 1469.96 971.023C1472.4 970.149 1474.61 969.955 1476.15 969.955C1477.5 969.955 1484.45 971.157 1485.23 972.532C1486.03 973.907 1483.59 980.537 1482.92 981.712C1482.15 983.04 1480.88 984.856 1478.9 986.539C1477.6 987.647 1476.18 988.975 1468.85 990.064C1465.77 990.518 1461.86 991.072 1460.31 991.252C1458.76 991.445 1455.74 992.08 1454.27 993.281C1453.7 993.749 1453.13 994.65 1453.73 995.037C1454.33 995.431 1457.38 994.563 1459.07 994.523C1461.15 994.229 1463.1 994.169 1465.38 994.129C1467.66 994.083 1470.54 994.042 1473.34 993.261C1474.63 993.048 1476.71 992.28 1477.53 992.066C1478.35 991.839 1479.43 991.165 1479.17 991.873C1478.92 992.567 1477.38 993.755 1474.81 994.597C1472.42 995.384 1469 995.825 1464.93 996.399C1461.43 996.893 1453.62 996.92 1453.16 997.287C1452.9 997.494 1452.55 997.781 1452.68 998.616C1453.03 999.537 1453.69 999.463 1454.56 999.617C1459.61 1000.61 1467.66 1000.44 1471.89 999.857C1473.85 999.59 1475.45 999.236 1476.81 998.903C1478.18 998.562 1480.02 998.215 1482.05 997.421C1484.07 996.619 1486.18 996.032 1488.62 994.79C1491.49 993.382 1492.43 993.148 1494.47 991.893C1497.58 989.99 1499.74 987.807 1499.85 988.408C1499.79 988.935 1496.85 991.739 1495.77 992.567C1494.7 993.395 1493.4 994.156 1492.17 994.91C1490.95 995.665 1489.44 996.446 1488.01 997.247C1486.58 998.061 1479.93 1001.07 1473.51 1001.76C1469.94 1002.15 1464.08 1002.81 1458.04 1001.86C1456.61 1001.86 1455.38 1001.32 1454.96 1001.83C1454.53 1002.37 1455.83 1004.4 1457.54 1004.54C1462.18 1005.57 1470.02 1005.95 1472.84 1005.67C1475.65 1005.4 1478.95 1004.98 1480.56 1004.49C1482.15 1004 1486.12 1003.02 1487.59 1002.53C1489.08 1002.02 1491.45 1000.5 1490.94 1001.53C1490.43 1002.55 1487.3 1004 1486.89 1004.17C1484.53 1005.4 1482.08 1005.98 1481.35 1006.19C1480.62 1006.42 1476.25 1007.73 1472.34 1007.78C1465.41 1007.88 1459.1 1005.91 1458.57 1006.28C1458.05 1006.63 1460.7 1008.76 1466.02 1010.17C1469.11 1010.97 1476.42 1011 1480.08 1010.38C1482.55 1009.96 1485.52 1009.4 1488.63 1007.8C1491.74 1006.21 1496.08 1004.02 1497.46 1003.97C1498.84 1003.92 1498.8 1003.96 1500.23 1004.12C1501.67 1004.28 1503.44 1006.01 1504.31 1007.36C1504.34 1007.53 1505.06 1008.33 1504.86 1007.45C1504.27 1004.96 1503.79 1003.31 1501.73 1001.61C1499.67 999.904 1496.7 999.697 1496.18 999.377C1495.67 999.07 1495.16 998.589 1496.07 997.788C1496.87 997.1 1499.58 995.478 1502 992.614C1504.41 989.75 1507.04 985.544 1508.41 981.278C1510.49 974.188 1511.41 967.832 1510.43 961.423" fill="white"/>
<path id="Vector_3" d="M1401.46 957.065C1405.05 959.294 1407.63 961.437 1408.74 962.292C1409.14 962.599 1411.58 964.455 1411.16 965.403C1410.74 966.351 1409.12 966.091 1406.04 966.625C1402.02 967.306 1398.87 969.035 1398.41 969.208C1398.13 969.322 1395.51 970.63 1394.78 971.932C1394.04 973.234 1394.19 976.151 1394.24 976.445C1394.3 976.939 1394.4 980.544 1395.81 984.363C1396.9 987.307 1397.93 988.576 1397.33 989.41C1396.72 990.251 1393.89 989.07 1393.44 988.869C1392.14 988.335 1388.99 987.167 1385.28 985.164C1378.25 981.399 1374.72 976.292 1372.28 968.708C1372.28 968.708 1372.17 967.987 1371.91 967.039C1371.65 966.091 1371.39 963.941 1371.35 962.913C1371.27 960.983 1371.14 959.161 1371.53 958.48C1371.93 957.806 1373.56 957.005 1375.27 956.11C1376.18 955.629 1378.17 954.781 1379.11 954.528C1380.07 954.281 1380.74 954.014 1380.74 954.014C1388.51 952.331 1394.69 952.852 1401.46 957.065ZM1437.91 970.377C1437.06 967.299 1433.43 960.943 1431.07 958.073C1429.47 956.15 1427.5 953.847 1424.57 951.944C1421.63 950.041 1417.58 947.371 1416.84 946.196C1416.1 945.028 1416.15 945.048 1415.59 943.719C1415.01 942.384 1415.61 939.994 1416.35 938.552C1416.49 938.445 1416.81 937.417 1416.15 938.038C1414.3 939.794 1413.11 941.022 1412.66 943.672C1412.22 946.303 1413.53 948.987 1413.51 949.594C1413.5 950.202 1413.33 950.876 1412.2 950.482C1411.21 950.135 1408.44 948.593 1404.77 947.925C1401.08 947.264 1396.13 947.091 1391.77 948.039C1384.6 949.781 1378.65 952.158 1373.6 956.203C1372.75 956.891 1371.62 957.699 1371.27 958.32C1370.91 958.941 1370.77 960.316 1370.61 961.404C1369.63 967.813 1370.55 974.169 1372.63 981.259C1374 985.531 1376.64 989.731 1379.04 992.595C1381.46 995.459 1384.17 997.081 1384.96 997.768C1385.88 998.57 1385.36 999.044 1384.85 999.357C1384.34 999.678 1381.36 999.885 1379.3 1001.59C1377.24 1003.29 1376.77 1004.95 1376.19 1007.43C1375.98 1008.31 1376.7 1007.52 1376.74 1007.34C1377.61 1005.99 1379.37 1004.26 1380.81 1004.1C1382.24 1003.94 1382.2 1003.9 1383.58 1003.95C1384.96 1004 1389.29 1006.19 1392.41 1007.78C1395.52 1009.37 1398.49 1009.94 1400.96 1010.35C1404.62 1010.97 1411.93 1010.95 1415.01 1010.14C1420.35 1008.74 1422.99 1006.61 1422.46 1006.25C1421.93 1005.89 1415.61 1007.86 1408.7 1007.76C1404.78 1007.71 1400.42 1006.39 1399.69 1006.17C1398.96 1005.95 1396.51 1005.37 1394.15 1004.14C1393.74 1003.97 1390.61 1002.52 1390.1 1001.5C1389.58 1000.47 1391.94 1001.99 1393.44 1002.5C1394.92 1003 1398.87 1003.98 1400.48 1004.46C1402.08 1004.96 1405.37 1005.37 1408.2 1005.65C1411.02 1005.92 1418.86 1005.55 1423.49 1004.51C1425.21 1004.38 1426.5 1002.35 1426.07 1001.81C1425.66 1001.29 1424.43 1001.83 1423 1001.83C1416.94 1002.8 1411.09 1002.12 1407.52 1001.73C1401.1 1001.05 1394.44 998.042 1393.02 997.228C1391.59 996.427 1390.08 995.646 1388.85 994.891C1387.63 994.137 1386.34 993.376 1385.26 992.548C1384.18 991.72 1381.24 988.916 1381.17 988.389C1381.29 987.788 1383.45 989.978 1386.56 991.874C1388.61 993.129 1389.54 993.362 1392.4 994.771C1394.85 996.013 1396.95 996.6 1398.98 997.401C1401 998.196 1402.85 998.543 1404.2 998.883C1405.56 999.217 1407.17 999.564 1409.13 999.838C1413.37 1000.42 1421.42 1000.59 1426.47 999.598C1427.34 999.444 1428 999.518 1428.35 998.596C1428.48 997.755 1428.14 997.468 1427.88 997.268C1427.42 996.894 1419.61 996.867 1416.11 996.38C1412.04 995.806 1408.62 995.365 1406.23 994.577C1403.66 993.736 1402.11 992.554 1401.86 991.853C1401.6 991.153 1402.68 991.827 1403.5 992.047C1404.32 992.261 1406.39 993.028 1407.69 993.249C1410.48 994.023 1413.37 994.057 1415.65 994.117C1417.94 994.157 1419.88 994.217 1421.96 994.497C1423.65 994.544 1426.7 995.412 1427.3 995.018C1427.9 994.624 1427.33 993.729 1426.76 993.262C1425.29 992.06 1422.27 991.426 1420.72 991.233C1419.16 991.052 1415.26 990.498 1412.18 990.044C1404.85 988.943 1403.43 987.628 1402.12 986.519C1400.14 984.837 1398.87 983.021 1398.11 981.693C1397.43 980.518 1395 973.888 1395.79 972.513C1396.59 971.138 1403.54 969.929 1404.88 969.936C1406.41 969.936 1408.62 970.13 1411.07 971.004C1412.67 971.585 1414.53 972.166 1419.14 977.967C1421.08 980.411 1423.51 983.522 1424.44 984.784C1425.37 986.032 1427.44 988.329 1429.21 989.016C1429.9 989.277 1430.96 989.317 1430.99 988.602C1431.03 987.888 1428.75 985.671 1427.88 984.229C1426.58 982.574 1425.56 980.905 1424.38 978.949C1423.19 976.993 1421.72 974.509 1419.66 972.466C1418.82 971.458 1417.12 970.036 1416.53 969.442C1415.93 968.834 1414.81 968.234 1415.53 968.107C1416.27 967.973 1418.06 968.728 1420.07 970.544C1421.95 972.226 1424.04 974.963 1426.57 978.214C1428.74 981.012 1432.67 987.768 1433.22 987.988C1433.53 988.108 1433.95 988.268 1434.61 987.728C1435.23 986.973 1434.84 986.439 1434.54 985.605C1432.88 980.725 1428.7 973.828 1426.08 970.443C1424.87 968.875 1423.76 967.659 1422.79 966.645C1421.81 965.643 1420.6 964.201 1418.9 962.846C1417.19 961.484 1415.63 959.955 1413.33 958.453C1410.68 956.671 1410.02 955.97 1407.91 954.835C1404.71 953.086 1401.74 952.298 1402.2 951.897C1402.69 951.69 1406.58 952.839 1407.83 953.373C1409.08 953.887 1410.39 954.641 1411.66 955.315C1412.93 955.996 1414.36 956.918 1415.77 957.752C1417.17 958.587 1423.1 962.859 1426.91 968.087C1429.02 970.998 1432.53 975.744 1434.73 981.466C1435.44 982.721 1435.59 984.043 1436.24 984.149C1436.92 984.256 1438.04 982.113 1437.3 980.564C1435.86 976.018 1432.27 969.035 1430.63 966.718C1428.98 964.408 1426.96 961.765 1425.74 960.61C1424.53 959.455 1421.69 956.517 1420.54 955.489C1419.35 954.441 1416.84 953.159 1417.99 953.079C1419.14 953.012 1421.95 954.995 1422.31 955.282C1424.55 956.711 1426.27 958.553 1426.82 959.074C1427.38 959.601 1430.7 962.739 1432.7 966.097C1436.24 972.059 1437.71 978.528 1438.28 978.802C1438.85 979.082 1439.37 975.717 1437.92 970.39" fill="white"/>
</g>
<g id="damai">
<path id="Vector_4" d="M1215.6 806.002H1183.26C1181.28 806.002 1180 806.657 1180 807.749V808.186C1180 810.927 1185.53 811.9 1185.53 816.496V873.157C1185.53 877.744 1180 878.737 1180 881.467V881.794C1180 882.996 1181.28 883.651 1183.26 883.651H1206.67V817.261C1206.67 813.756 1209.22 812.664 1212.35 812.664H1215.04C1237.6 812.664 1254.62 830.386 1254.62 851.93C1254.62 868.014 1241.71 876.979 1224.4 876.979H1217.64C1215.38 877.208 1213.41 882.46 1212.99 883.651H1222.28C1254.63 883.651 1276.9 868.342 1276.9 844.931C1276.9 821.52 1253.21 805.992 1215.61 805.992" fill="white"/>
<path id="Vector_5" d="M1523.89 872.938L1510.27 817.042C1509.13 812.009 1515.66 811.026 1515.66 808.176V807.74C1515.66 806.647 1514.38 805.992 1512.67 805.992H1496.36C1493.1 805.992 1490.97 807.194 1489.83 809.606L1467.13 861.124L1444.15 809.606C1443.02 807.203 1440.6 805.992 1437.19 805.992H1421.59C1419.75 805.992 1418.61 806.757 1418.61 807.849V808.176C1418.61 810.053 1421.26 811.125 1422.83 812.962C1423.08 813.26 1428.01 818.154 1432.66 827.546C1435.14 832.57 1433.67 829.582 1432.96 828.162L1432.76 827.745C1432.7 827.616 1432.66 827.537 1432.66 827.537L1432.76 827.745C1432.82 827.854 1432.87 827.993 1432.96 828.162L1458.9 880.692C1460.04 882.658 1461.59 883.532 1464.15 883.532C1466.71 883.532 1467.84 882.549 1468.69 880.573L1492.66 829.492L1502.59 872.919C1503.72 877.734 1497.63 878.717 1497.63 881.447V881.775C1497.63 882.976 1499.04 883.631 1500.88 883.631H1526.42C1528.41 883.631 1529.68 882.976 1529.68 881.775V881.447C1529.68 878.717 1525 877.724 1523.87 872.919" fill="white"/>
<path id="Vector_6" d="M1422.28 823.861L1412.09 872.937C1411.1 877.752 1406.41 878.735 1406.41 881.465V881.793C1406.41 882.994 1407.55 883.649 1409.53 883.649H1425.56C1427.55 883.649 1428.68 882.994 1428.68 881.793V881.465C1428.68 878.735 1422.58 877.742 1423.58 872.937C1423.58 872.937 1429.68 842.517 1430.32 839.28C1430.95 836.043 1424.68 825.311 1422.27 823.852" fill="white"/>
<path id="Vector_7" d="M1382.02 873.157L1348.11 810.698C1346.27 807.422 1343.71 805.992 1339.45 805.992H1324.7C1323 805.992 1321.86 806.757 1321.86 807.74V808.176C1321.86 809.586 1324.47 811.155 1326.03 813.091C1326.05 813.071 1331.66 818.611 1333.92 823.267C1335.28 826.087 1343.88 843.769 1350.46 857.282H1317.74C1317.74 857.282 1329.45 832.848 1330.4 830.654C1331.35 828.46 1325.94 821.302 1324.99 820.904L1298.58 873.137C1296.02 878.389 1290.92 878.717 1290.92 881.447V881.775C1290.92 882.976 1292.2 883.631 1294.04 883.631H1312.63C1314.76 883.631 1315.89 882.976 1315.89 881.775V881.447C1315.89 878.717 1307.94 877.724 1310.21 873.137L1314.32 864.39H1353.9C1356.43 869.593 1358.15 873.137 1358.15 873.137C1360.42 877.724 1352.47 878.717 1352.47 881.447V881.775C1352.47 882.976 1353.75 883.631 1355.59 883.631H1386.66C1388.5 883.631 1389.78 882.976 1389.78 881.775V881.447C1389.78 878.717 1384.82 878.27 1381.97 873.137" fill="white"/>
<path id="Vector_8" d="M1638.62 873.157L1604.71 810.698C1602.87 807.422 1600.31 805.992 1596.06 805.992H1581.31C1579.6 805.992 1578.48 806.757 1578.48 807.74V808.176C1578.48 809.586 1581.08 811.155 1582.65 813.091C1582.67 813.071 1588.27 818.611 1590.53 823.267C1591.9 826.087 1600.5 843.769 1607.08 857.282H1574.35C1574.35 857.282 1586.06 832.848 1587.02 830.654C1587.97 828.46 1581.24 821.639 1581.24 821.639L1555.2 873.147C1552.65 878.399 1547.55 878.727 1547.55 881.457V881.785C1547.55 882.986 1548.82 883.641 1550.67 883.641H1569.25C1571.38 883.641 1572.51 882.986 1572.51 881.785V881.457C1572.51 878.727 1564.57 877.734 1566.84 873.147L1570.95 864.4H1610.52C1613.05 869.603 1614.78 873.147 1614.78 873.147C1617.05 877.734 1609.11 878.727 1609.11 881.457V881.785C1609.11 882.986 1610.38 883.641 1612.23 883.641H1643.29C1645.14 883.641 1646.42 882.986 1646.42 881.785V881.457C1646.42 878.727 1641.45 878.28 1638.61 873.147" fill="white"/>
<path id="Vector_9" d="M1700.99 808.184V807.747C1700.99 806.655 1699.71 806 1697.87 806H1671.34C1669.36 806 1668.22 806.655 1668.22 807.747V808.184C1668.22 809.892 1670.32 810.914 1671.9 812.563C1681.53 820.992 1682.77 823.106 1676.25 823.295C1675.66 823.315 1675.71 823.315 1675.02 823.315C1673.62 823.325 1673.62 824.437 1673.62 824.437C1673.62 824.437 1673.62 824.417 1673.6 824.397V873.155C1673.6 877.861 1668.21 878.844 1668.21 881.465V881.792C1668.21 882.994 1669.35 883.649 1671.33 883.649H1697.86C1699.7 883.649 1700.98 882.994 1700.98 881.792V881.465C1700.98 878.844 1695.02 877.851 1695.02 873.155V816.494C1695.02 811.897 1700.98 810.914 1700.98 808.184" fill="white"/>
</g>
<g id="the">
<path id="Vector_10" d="M1394.93 749.379V749.27C1394.93 748.465 1396.78 748.287 1396.78 746.867V725.968H1391.62C1388.98 725.968 1388.59 730.048 1386.94 730.048H1386.37C1385.81 730.048 1385.47 729.761 1385.57 729.205L1386.42 724.906C1386.52 724.29 1386.9 723.992 1387.75 723.992H1411.5C1412.35 723.992 1412.73 724.28 1412.86 724.906L1413.9 729.244C1414.04 729.751 1413.67 730.048 1413.1 730.048H1412.54C1410.88 730.048 1410.27 725.968 1407.61 725.968H1402.46V746.857C1402.46 748.277 1404.35 748.455 1404.35 749.26V749.369C1404.35 749.696 1403.98 749.875 1403.31 749.875H1395.93C1395.32 749.875 1394.94 749.696 1394.94 749.369" fill="white"/>
<path id="Vector_11" d="M1424.01 749.377V749.267C1424.01 748.463 1425.76 748.285 1425.76 746.865V727.028C1425.76 725.608 1424.01 725.42 1424.01 724.616V724.506C1424.01 724.179 1424.38 724 1425 724H1432.38C1432.99 724 1433.37 724.179 1433.37 724.506V724.616C1433.37 725.42 1431.53 725.598 1431.53 727.028L1431.48 735.745H1447.98V727.028C1447.98 725.608 1446.23 725.42 1446.23 724.616V724.506C1446.23 724.179 1446.6 724 1447.22 724H1454.6C1455.21 724 1455.64 724.179 1455.64 724.506V724.616C1455.64 725.42 1453.7 725.598 1453.7 727.028V746.865C1453.7 748.285 1455.64 748.463 1455.64 749.267V749.377C1455.64 749.704 1455.21 749.883 1454.6 749.883H1447.22C1446.6 749.883 1446.23 749.704 1446.23 749.377V749.267C1446.23 748.463 1447.98 748.285 1447.98 746.865V737.751H1431.53L1431.48 746.865C1431.48 748.285 1433.37 748.463 1433.37 749.267V749.377C1433.37 749.704 1432.99 749.883 1432.38 749.883H1425C1424.38 749.883 1424.01 749.704 1424.01 749.377Z" fill="white"/>
<path id="Vector_12" d="M1470.12 749.377V749.267C1470.12 748.463 1471.92 748.324 1471.92 746.825V727.058C1471.92 725.559 1470.12 725.38 1470.12 724.616V724.506C1470.12 724.179 1470.5 724 1471.07 724H1491.64C1492.49 724 1492.82 724.288 1492.97 724.913L1494.11 728.855C1494.25 729.401 1493.92 729.699 1493.36 729.699H1493.12C1491.23 729.699 1489.9 725.837 1487.15 725.837H1479.21C1478.27 725.837 1477.6 726.234 1477.6 727.256V735.755H1484.89C1486.92 735.755 1487.11 733.352 1488.19 733.352H1488.48C1488.91 733.352 1489.2 733.611 1489.2 734.047V739.22C1489.2 739.617 1488.91 739.915 1488.48 739.915H1488.19C1487.11 739.915 1486.92 737.622 1484.89 737.622H1477.6L1477.56 746.15C1477.56 747.103 1478.17 748.086 1479.68 748.086H1488.62C1491.41 748.086 1492.36 744.075 1494.4 744.075H1494.72C1495.25 744.075 1495.53 744.472 1495.44 744.909L1494.35 748.96C1494.16 749.575 1493.83 749.913 1492.98 749.913H1471.18C1470.56 749.913 1470.13 749.734 1470.13 749.406" fill="white"/>
</g>
</g>
</g>
<defs>
<clipPath id="clip0_713_164">
<rect width="260.496" height="176.904" fill="white" transform="matrix(2 0 0 2 1180 724)"/>
</clipPath>
</defs>
</svg>
