<svg width="280" height="140" viewBox="0 0 280 140" fill="none" xmlns="http://www.w3.org/2000/svg">
<path d="M161.145 72.6358L155.921 19.1523L150.623 73.5232C154.056 73.1484 157.564 72.8508 161.145 72.6358Z" fill="#CCCCCC"/>
<path d="M173.901 72.2422L173.919 19.1519L155.922 19.1445V19.1519L161.146 72.6354C165.317 72.3818 169.581 72.2495 173.901 72.2422Z" fill="#888888"/>
<path d="M150.622 73.5228L155.92 19.1519V19.1445L108.887 19.1519L108.905 83.7142C119.962 78.895 134.341 75.3104 150.622 73.5228Z" fill="black"/>
<path d="M134.49 97.7378C135.136 97.8535 137.462 98.5297 137.462 100.17V126.473H145.326V96.8008H134.49V97.7378Z" fill="black"/>
<path d="M72.7268 96.8008V97.7378C73.6682 97.9344 75.7356 98.5095 74.905 100.36L63.1836 126.473H69.3673L73.0406 118.334H86.0172L89.229 126.473H97.3694L85.7403 96.8008H72.7268ZM74.7019 114.648L79.9627 102.972L84.5774 114.648H74.7019Z" fill="black"/>
<path d="M193.17 96.8008V97.7378C194.112 97.9344 196.179 98.5095 195.348 100.36L183.627 126.473H189.811L193.484 118.334H206.461L209.672 126.473H217.813L206.184 96.8008H193.17ZM195.145 114.648L200.406 102.972L205.002 114.648H195.145Z" fill="black"/>
<path d="M172.276 126.473L184.699 96.8008H178.81L169.71 118.56L161.035 96.8008H149.996V97.7378C151.27 97.9822 152.71 98.5297 153.356 100.17L163.84 126.473H172.276Z" fill="black"/>
<path d="M117.821 126.473L130.244 96.8008H124.355L115.255 118.56L106.579 96.8008H95.541V97.7378C96.8147 97.9822 98.2545 98.5297 98.9005 100.17L109.385 126.473H117.821Z" fill="black"/>
</svg>
