<svg width="280" height="140" viewBox="0 0 280 140" fill="none" xmlns="http://www.w3.org/2000/svg">
<path fill-rule="evenodd" clip-rule="evenodd" d="M81.1852 45.5161H48.5562C48.3132 45.508 48.0777 45.6003 47.9049 45.7713C47.7321 45.9422 47.6373 46.1768 47.6428 46.4198V52.7746C47.6373 53.0176 47.7321 53.2521 47.9049 53.4231C48.0777 53.594 48.3132 53.6863 48.5562 53.6782H59.4779V94.1487C59.4724 94.3917 59.5672 94.6262 59.74 94.7972C59.9128 94.9681 60.1483 95.0604 60.3912 95.0523H69.4959C69.7388 95.0604 69.9744 94.9681 70.1471 94.7972C70.3199 94.6262 70.4147 94.3917 70.4093 94.1487V53.5422H81.3115C81.5544 53.5503 81.79 53.458 81.9628 53.287C82.1356 53.1161 82.2304 52.8815 82.2249 52.6385V46.4198C82.1339 45.9116 81.7011 45.5354 81.1852 45.5161Z" fill="black"/>
<path fill-rule="evenodd" clip-rule="evenodd" d="M121.228 45.5161H88.5992C88.3562 45.508 88.1207 45.6003 87.9479 45.7713C87.7751 45.9422 87.6803 46.1768 87.6858 46.4198V94.0321C87.6803 94.2751 87.7751 94.5096 87.9479 94.6806C88.1207 94.8515 88.3562 94.9438 88.5992 94.9357H121.228C121.471 94.9438 121.707 94.8515 121.879 94.6806C122.052 94.5096 122.147 94.2751 122.142 94.0321V87.8133C122.147 87.5703 122.052 87.3358 121.879 87.1648C121.707 86.9939 121.471 86.9016 121.228 86.9097H98.6075V73.7143H115.903C116.146 73.7223 116.382 73.6301 116.555 73.4591C116.727 73.2881 116.822 73.0536 116.817 72.8106V66.4752C116.822 66.2322 116.727 65.9977 116.555 65.8267C116.382 65.6558 116.146 65.5635 115.903 65.5716H98.6075V53.5422H121.228C121.471 53.5503 121.707 53.458 121.879 53.287C122.052 53.1161 122.147 52.8815 122.142 52.6385V46.4198C122.268 45.9048 121.753 45.5161 121.228 45.5161Z" fill="black"/>
<path fill-rule="evenodd" clip-rule="evenodd" d="M199.222 45.5161H166.603C166.36 45.508 166.125 45.6003 165.952 45.7713C165.779 45.9422 165.684 46.1768 165.69 46.4198V94.0321C165.684 94.2751 165.779 94.5096 165.952 94.6806C166.125 94.8515 166.36 94.9438 166.603 94.9357H199.222C199.465 94.9438 199.701 94.8515 199.874 94.6806C200.046 94.5096 200.141 94.2751 200.136 94.0321V87.8133C200.141 87.5703 200.046 87.3358 199.874 87.1648C199.701 86.9939 199.465 86.9016 199.222 86.9097H176.611V73.7143H193.907C194.15 73.7223 194.386 73.6301 194.559 73.4591C194.731 73.2881 194.826 73.0536 194.821 72.8106V66.4752C194.826 66.2322 194.731 65.9977 194.559 65.8267C194.386 65.6558 194.15 65.5635 193.907 65.5716H176.611V53.5422H199.222C199.465 53.5503 199.701 53.458 199.874 53.287C200.046 53.1161 200.141 52.8815 200.136 52.6385V46.4198C200.272 45.9048 199.757 45.5161 199.222 45.5161Z" fill="black"/>
<path fill-rule="evenodd" clip-rule="evenodd" d="M230.96 72.936H210.681C210.438 72.928 210.203 73.0202 210.03 73.1912C209.857 73.3621 209.762 73.5967 209.768 73.8397V94.0215C209.762 94.2645 209.857 94.499 210.03 94.67C210.203 94.8409 210.438 94.9332 210.681 94.9251H230.96C231.203 94.9332 231.439 94.8409 231.611 94.67C231.784 94.499 231.879 94.2645 231.874 94.0215V73.9757C231.892 73.7163 231.806 73.4602 231.634 73.2648C231.463 73.0694 231.22 72.951 230.96 72.936Z" fill="black"/>
<path fill-rule="evenodd" clip-rule="evenodd" d="M229.535 65.1847H212.113V47.8499H229.535V65.1847ZM230.964 45.5161H210.685C210.442 45.508 210.207 45.6003 210.034 45.7713C209.861 45.9422 209.766 46.1768 209.772 46.4198V66.6016C209.766 66.8446 209.861 67.0791 210.034 67.2501C210.207 67.421 210.442 67.5133 210.685 67.5052H230.964C231.207 67.5133 231.443 67.421 231.615 67.2501C231.788 67.0791 231.883 66.8446 231.877 66.6016V46.4198C231.883 46.1768 231.788 45.9422 231.615 45.7713C231.443 45.6003 231.207 45.508 230.964 45.5161Z" fill="black"/>
<path fill-rule="evenodd" clip-rule="evenodd" d="M140.213 54.7188C142.164 53.6349 144.356 53.0569 146.588 53.0378C150.434 53.1117 154.247 53.7669 157.898 54.9812C158.398 55.1079 158.91 54.8222 159.064 54.3301L160.104 48.8887C160.252 48.1803 159.866 47.4685 159.19 47.2077C155.108 45.8688 150.853 45.1291 146.558 45.0117C143.713 44.9345 140.87 45.2385 138.105 45.9154C131.886 47.4604 127.99 52.1147 126.561 59.3634C125.929 62.9626 125.623 66.6115 125.648 70.2657C125.632 73.9067 125.937 77.5419 126.561 81.1291C127.99 88.3292 131.886 92.9933 138.134 94.5577C140.899 95.2347 143.742 95.5387 146.588 95.4613C150.882 95.344 155.137 94.6043 159.219 93.2654C159.933 93.0499 160.34 92.3003 160.133 91.5843L158.967 86.279C158.812 85.7869 158.301 85.5012 157.801 85.6279C154.147 86.8295 150.336 87.4843 146.49 87.5713C144.251 87.6149 142.043 87.0328 140.116 85.8903C137.745 84.4522 136.696 82.1202 136.064 79.0108C135.64 76.141 135.423 73.2444 135.413 70.3434C135.397 67.575 135.572 64.8089 135.938 62.0647C136.57 58.8387 137.872 56.2541 140.213 54.7188Z" fill="black"/>
</svg>
