<svg width="280" height="140" viewBox="0 0 280 140" fill="none" xmlns="http://www.w3.org/2000/svg">
<g clip-path="url(#clip0_1833_12248)">
<path d="M259.751 61.8084C258.453 59.4548 255.655 57.6696 252.616 57.6696C249.943 57.6696 247.592 58.765 247.592 61.605C247.592 63.9964 250.552 65.6185 253.633 67.6071C256.995 69.7155 260.482 72.3091 260.482 76.813C260.482 82.6938 254.768 86.3018 248.161 86.3018C245.445 86.3018 242.609 85.775 239.407 84.5584L239.932 76.7308C241.474 79.8551 244.353 82.3274 248.605 82.3274C251.889 82.3274 254.319 80.747 254.319 77.9878C254.319 75.6355 252.332 74.1764 249.903 72.7173C244.794 69.636 241.555 67.1598 241.555 62.7003C241.555 56.0071 247.147 53.7773 252.942 53.7773C256.304 53.7773 258.414 54.3863 260.56 54.3863L259.751 61.8084ZM231.422 68.8223C230.69 70.0402 229.762 71.7002 229.191 72.9194C228.707 75.23 228.463 78.3138 228.463 81.7184C228.463 83.1384 228.707 85.0435 229.354 85.6929H220.885C222.382 84.2742 222.992 75.5572 222.913 72.7981C221.778 68.8653 220.235 65.093 217.885 60.5096C216.389 57.6318 214.644 54.9118 213.549 54.3863C215.453 54.2259 217.885 54.1033 219.062 54.1033C221.168 54.1033 221.737 54.3863 223.035 57.2263C225.058 61.8097 226.558 65.2534 227.45 67.8105C229.599 64.4437 231.098 62.1331 233.044 58.9697C233.53 58.199 233.935 57.2263 233.935 56.2926C233.935 55.5611 233.812 54.7514 233.489 54.3863H241.879C240.258 54.7514 232.962 66.2288 231.422 68.8223ZM201.957 61.7288L196.934 72.6351H205.119L201.957 61.7288ZM211.807 85.9758C209.13 85.9758 208.929 85.8963 206.781 78.5159L206.012 75.7985C204.716 76.4061 202.403 76.6904 198.716 76.6904H194.988L194.339 78.0687C193.407 80.1394 192.151 82.5686 192.151 84.2755C192.151 84.681 192.191 85.1257 192.354 85.6942H170.225C171.483 84.2755 171.888 79.6934 172.495 71.3781L172.616 69.3921C172.941 64.6471 173.187 60.9973 173.144 58.4442C173.104 56.3357 172.9 54.9965 172.334 54.3889H180.886C179.669 55.3225 179.222 60.3493 178.657 68.6646L178.494 70.6505C178.29 73.733 177.886 76.8951 177.886 79.9777C177.886 81.395 178.453 81.7197 179.914 81.7197C185.099 81.7197 186.399 81.5985 188.747 80.0168C190.205 77.3398 191.87 73.973 193.488 70.4862L195.68 65.8232C197.746 61.4433 199.771 56.9811 199.771 56.131C199.771 55.5207 199.609 54.9548 199.368 54.3863H206.176C206.176 54.3863 208.931 64.6066 209.539 66.7947L210.875 71.7432C213.184 80.0572 214.645 84.1112 216.591 85.6929C214.967 85.8963 212.658 85.9758 211.807 85.9758ZM156.65 86.3018C148.584 86.3018 143.923 79.6516 143.923 72.1904C143.923 61.8097 149.555 53.7773 160.296 53.7773C163.66 53.7773 165.242 54.3863 167.955 54.3863L167.146 62.3756C165.605 59.5773 163.091 57.6709 159.729 57.6709C153.042 57.6709 150.327 64.8909 150.327 71.0951C150.327 77.8261 154.097 81.515 159.121 81.515C161.836 81.515 164.226 80.7848 168.24 77.9878C166.619 83.1802 162.849 86.3018 156.65 86.3018ZM128.686 58.199C127.916 58.199 126.981 58.199 126.254 58.2799C126.011 59.6177 125.807 61.9297 125.523 65.659L125.36 67.8509C125.768 67.9331 126.293 67.9748 126.781 67.9748C130.669 67.9748 133.346 65.6198 133.346 62.0535C133.346 59.6177 131.644 58.199 128.686 58.199ZM139.991 87.032C137.682 87.032 137.114 86.6656 136.345 85.6107L127.59 73.4448C126.901 72.5125 126.374 71.7419 125.281 71.7419H125.077L124.917 74.0942C124.713 77.298 124.591 79.8551 124.591 81.7602C124.632 83.8687 124.875 85.1648 125.444 85.6929H116.973C118.188 84.5975 118.632 80.9478 119.323 71.3768L119.445 69.3909C119.77 64.6875 120.013 61.0364 119.972 58.4833C119.93 56.2522 119.689 54.8726 119.079 54.3863C123.902 54.3863 130.629 54.3863 130.629 54.3863C134.398 54.3863 139.586 55.0369 139.586 61.159C139.586 66.1857 136.221 68.9449 132.048 70.241C132.453 70.6074 133.182 71.5398 133.629 72.1083L139.991 80.5436C143.963 85.775 144.286 86.0175 145.707 86.7478C143.923 86.9499 141.533 87.032 139.991 87.032ZM100.52 61.7288L95.4509 72.6351H103.678L100.52 61.7288ZM110.366 85.9758C107.693 85.9758 107.49 85.8963 105.342 78.5159L104.572 75.7985C103.273 76.4061 100.963 76.6904 97.2753 76.6904H93.5469L92.8993 78.0687C92.2503 79.5304 90.6695 82.5321 90.7099 84.2755C90.7099 84.681 90.7503 85.0865 90.9132 85.6942H83.416C85.5636 83.5453 88.2795 78.5576 92.0483 70.4875L94.2376 65.8245C96.2224 61.6076 98.3309 56.8221 98.3309 56.1323C98.3309 55.522 98.1706 54.9561 97.9256 54.3876H104.736C104.736 54.3876 106.516 61.1603 108.098 66.796L109.435 71.7445C111.746 80.0585 113.204 84.1125 115.15 85.6942C113.407 85.8963 111.218 85.9758 110.366 85.9758ZM71.7825 58.1586C71.1739 58.1586 70.3646 58.1586 69.5944 58.2407C69.2699 60.4301 69.0667 62.5386 68.9064 64.8492C68.9064 64.8492 68.7838 66.8351 68.7838 66.7543H69.5944C73.5665 66.7543 77.2154 65.376 77.2154 61.7288C77.2154 59.6177 75.4718 58.1586 71.7825 58.1586ZM70.7712 70.567H68.5427L68.2183 75.1895C68.0567 77.2185 67.9746 78.9201 67.9342 80.9478C67.9342 81.2333 68.8255 81.841 70.9315 81.841C75.3089 81.841 78.1876 79.6516 78.1876 76.041C78.1876 72.0261 74.9036 70.567 70.7712 70.567ZM71.2573 85.6929H60.3145C61.6932 84.475 62.0581 79.7312 62.6654 71.3768L62.7866 69.4313C63.1124 64.6862 63.3548 61.0364 63.3144 58.4833C63.274 56.2926 63.0303 54.8726 62.4217 54.3863H74.6612C77.579 54.3863 83.416 54.5493 83.416 60.6309C83.416 64.6862 79.6459 67.2002 76.2016 68.0947C81.0651 68.5811 84.7127 70.9321 84.7127 75.9602C84.7114 81.3938 79.6055 85.6929 71.2573 85.6929Z" fill="black"/>
<mask id="mask0_1833_12248" style="mask-type:luminance" maskUnits="userSpaceOnUse" x="-257" y="-84" width="398" height="258">
<path d="M-255.711 144.958V-4.37086C-255.71 -12.9691 -249.327 -19.1759 -240.904 -19.1759C-249.327 -19.1759 -256.154 -26.1495 -256.154 -34.7438L-256.193 -76.735C-256.193 -80.5008 -253.204 -83.5508 -249.524 -83.5508H113.147C128.439 -83.5508 140.835 -70.8985 140.835 -55.2928V158.931C140.835 165.985 135.23 173.212 128.314 173.212H-228.024C-243.322 173.212 -255.711 156.542 -255.711 144.958Z" fill="white"/>
</mask>
<g mask="url(#mask0_1833_12248)">
<path d="M35.6851 50.0026C34.6008 50.0026 34.3767 50.1917 34.0248 50.5842C33.8867 50.5751 33.742 50.5725 33.5909 50.5725C32.7568 50.5725 31.6856 50.695 30.7721 51.3066C29.8898 51.8894 29.4702 52.9209 29.9406 53.6758C29.9406 53.6758 30.256 53.213 31.2933 53.213C31.4393 53.213 31.6009 53.2286 31.7729 53.2429C33.2064 53.4124 34.2672 54.1674 34.1382 56.1612C34.0235 58.1536 33.2768 60.3756 30.2221 60.4017C30.2221 60.4017 29.8286 60.4017 29.4089 60.3625C27.9872 60.2074 27.5402 59.3141 27.5402 59.3141C27.5402 59.3141 28.7691 58.9803 28.7795 57.4195C28.7691 56.3581 27.8451 55.3867 26.512 54.9942C26.0754 54.8664 25.5958 54.8038 25.0967 54.8038C23.5251 54.8038 21.7606 55.4623 20.5708 57.0166C17.8732 60.5803 17.6542 65.7752 18.3123 70.6064C18.9744 75.448 22.0433 79.9323 22.1333 80.0549C22.1984 80.1409 22.2571 80.1879 22.3235 80.1879C22.3574 80.1879 22.3926 80.1722 22.4291 80.1422C23.7544 78.8552 25.0185 77.0962 25.5593 75.92C26.138 76.3816 25.8356 77.3635 25.5176 78.4118C25.2153 79.4837 24.4803 80.9063 24.2145 81.3653C23.9577 81.8138 23.6137 82.3354 24.0763 82.6079C24.1232 82.6366 24.1832 82.6523 24.2549 82.6523C24.8491 82.6523 26.2474 81.6157 27.8073 79.5346C29.5536 77.1927 30.4398 75.1141 30.4398 75.1141C30.5675 75.1428 30.7812 75.3593 30.746 75.9487C30.7226 76.5472 30.1074 78.7743 28.9098 80.8476C27.6992 82.9196 26.581 84.2158 26.3556 84.5105C26.2161 84.6813 26.3347 84.7882 26.4247 84.8573C26.5133 84.9173 28.6544 86.9175 31.7651 88.6074C35.4505 90.5725 37.0847 90.9259 37.0847 90.9259C37.0847 90.9259 38.715 90.5816 42.4004 88.6179C45.5098 86.9253 47.66 84.916 47.7395 84.8481C47.8294 84.7869 47.9441 84.6903 47.8086 84.5026C47.5962 84.2209 46.4741 82.9183 45.2661 80.8464C44.0724 78.7874 43.4338 76.5459 43.4247 75.9552C43.3999 75.3593 43.6006 75.1624 43.7231 75.1128C43.7231 75.1128 44.6184 77.2044 46.3647 79.5333C47.9324 81.617 49.3177 82.651 49.9145 82.651C49.9901 82.651 50.0501 82.6353 50.0996 82.6067C50.5479 82.3341 50.2143 81.8047 49.951 81.3614C49.706 80.905 48.9606 79.4915 48.6439 78.4106C48.3403 77.3504 48.0249 76.3699 48.614 75.9187C49.1561 77.0949 50.411 78.863 51.7403 80.1317C51.7755 80.1683 51.8159 80.1865 51.855 80.1865C51.9136 80.1865 51.9762 80.1409 52.0309 80.0613C52.1286 79.9309 55.2029 75.4545 55.8597 70.6051C56.5191 65.7635 56.3014 60.5803 53.6012 57.0153C52.4193 55.457 50.6417 54.7946 49.0596 54.7946C48.5657 54.7946 48.094 54.8585 47.6626 54.9824C46.319 55.3866 45.399 56.3672 45.4068 57.4182C45.4068 58.9791 46.6422 59.3128 46.6422 59.3128C46.6422 59.3128 46.2291 60.1839 44.7565 60.3612C44.4816 60.3951 44.2144 60.4108 43.959 60.4108C42.8513 60.4108 41.9182 60.0587 41.0581 58.8434C40.2241 57.6738 40.2514 55.2654 40.2032 54.4622C40.1654 53.6472 39.9908 51.8191 39.1346 51.0732C38.281 50.3078 37.2411 50.0509 35.9444 50C35.8493 50.0026 35.7646 50.0026 35.6851 50.0026Z" fill="black"/>
</g>
</g>
<defs>
<clipPath id="clip0_1833_12248">
<rect width="243" height="41" fill="white" transform="translate(18 50)"/>
</clipPath>
</defs>
</svg>
