<svg width="280" height="140" viewBox="0 0 280 140" fill="none" xmlns="http://www.w3.org/2000/svg">
<path fill-rule="evenodd" clip-rule="evenodd" d="M89.5824 28.3521C82.2747 28.3521 75.2882 30.8374 69.5081 35.6477C64.5716 39.7559 61.0918 45.1532 59.3425 51.1289C63.0029 45.9083 67.8477 41.5852 73.4808 38.5557C80.6503 32.6782 89.6305 29.5471 98.949 29.6973C95.8147 28.7976 92.6695 28.3521 89.5824 28.3521ZM56.7165 59.5253C54.775 64.1717 53.7003 69.271 53.7003 74.6183C53.7003 89.4394 61.9464 102.36 74.0685 108.99C65.1473 101.326 59.4902 89.933 59.4902 77.2107C59.4902 76.6532 59.5046 76.0989 59.5261 75.5469C59.3981 74.7584 59.2936 73.9655 59.2151 73.1685C59.2063 73.0806 59.1992 72.9926 59.1922 72.9046C59.1875 72.846 59.1828 72.7873 59.1776 72.7287C58.0829 70.0707 57.3311 67.2793 56.9737 64.4291C56.7676 62.7855 56.6858 61.1476 56.7165 59.5253ZM122.825 41.6094C120.105 39.9245 117.177 38.5468 114.088 37.5224C113.035 36.3667 111.897 35.2901 110.684 34.3023C115.122 35.9118 119.256 38.3895 122.825 41.6094ZM96.2981 35.6973C95.0793 35.581 93.8449 35.519 92.5964 35.519C87.249 35.519 82.1503 36.6098 77.5084 38.581C75.6359 39.8676 73.8684 41.3345 72.2338 42.9776C66.772 48.4682 63.2438 55.4378 61.9788 62.9368C67.2611 48.3246 80.422 37.5162 96.2981 35.6973ZM102.033 32.3263C103.608 32.4833 105.168 32.7465 106.704 33.1107C108.396 34.1621 109.976 35.3785 111.423 36.7354C109.231 36.1694 106.968 35.7817 104.651 35.5822C100.841 34.3907 96.7915 33.7482 92.5961 33.7482C90.2833 33.7482 88.0162 33.9464 85.8079 34.321C89.7798 32.8879 94.0029 32.1409 98.3116 32.1409C99.5459 32.1409 100.789 32.2023 102.033 32.3263ZM58.2923 56.2055C57.9672 58.8408 57.9639 61.544 58.3048 64.2626C58.4666 65.5535 58.7121 66.8323 59.0364 68.0913C59.2656 59.6869 62.1197 51.6331 67.2146 45.0168C63.6003 48.1523 60.5654 51.9441 58.2923 56.2055ZM132.53 49.9164C130.774 46.7749 128.585 43.8576 126.008 41.2671C119.99 35.2168 112.202 31.2871 103.925 30.0915C102.847 29.5976 101.737 29.161 100.597 28.7897C89.1991 25.0776 77.5559 27.1985 68.6526 34.6082C62.4716 39.7518 58.4821 46.8331 57.178 54.5691C53.844 60.4968 51.9375 67.3383 51.9375 74.62C51.9375 93.0743 64.1688 108.709 80.9094 113.769C86.8777 117.1 93.7463 119 101.057 119C124.013 119 142.623 100.291 142.623 77.2124C142.623 66.7789 138.819 57.239 132.53 49.9164ZM125.188 70.7773C124.904 70.7334 124.621 70.7334 124.227 70.7334C121.891 70.7334 120.714 71.9183 120.124 72.884H120.059V71.1287H117.352V82.9115H120.059V76.6586L120.06 76.6165C120.081 75.7492 120.137 73.5195 123.53 73.4978C124.344 73.4978 124.832 73.6254 125.111 73.6982L125.144 73.7068L125.188 73.7181V70.7773ZM67.6008 80.145H74.2057C74.6699 81.2524 75.3934 82.1933 76.3474 82.9124H64.8473V66.9599H67.6008V80.145ZM135.283 82.9016H137.994V71.0743H135.283V72.0402C134.56 71.2425 133.018 70.7308 131.403 70.7308C126.732 70.7308 124.832 73.8469 124.832 77.0069C124.832 81.7027 128.194 83.3043 131.403 83.3043C132.743 83.3043 134.488 82.708 135.283 81.7953V82.9016ZM127.584 76.9624C127.584 79.4642 128.98 80.9776 131.404 80.9776C133.827 80.9776 135.223 79.4642 135.223 76.9624C135.223 74.1975 133.456 73.0565 131.404 73.0565C129.33 73.0565 127.584 74.1975 127.584 76.9624ZM113.49 82.9016H116.201V71.0743H113.49V72.0402C112.767 71.2425 111.225 70.7308 109.61 70.7308C104.939 70.7308 103.04 73.8469 103.04 77.0069C103.04 81.7027 106.401 83.3043 109.61 83.3043C110.95 83.3043 112.695 82.708 113.49 81.7953V82.9016ZM105.792 76.9624C105.792 79.4642 107.188 80.9776 109.612 80.9776C112.034 80.9776 113.43 79.4642 113.43 76.9624C113.43 74.1975 111.663 73.0565 109.612 73.0565C107.537 73.0565 105.792 74.1975 105.792 76.9624ZM95.9226 70.7346C93.6782 70.7346 92.5861 71.5218 91.4318 72.3538L91.4261 72.358V66.9599H88.7195V82.9127H91.3823V81.3991C91.9502 81.9915 93.3467 83.3078 96.0316 83.3078C99.3498 83.3078 102.208 80.9379 102.208 76.9443C102.208 73.3679 99.7865 70.7346 95.9226 70.7346ZM91.5373 79.3583C92.5522 80.1458 93.6309 80.9827 95.4205 80.9827C97.5158 80.9827 99.4581 79.6228 99.4581 77.0325C99.4581 74.3784 97.4066 73.0616 95.3331 73.0616C93.4049 73.0616 92.2968 73.9708 91.4717 74.6477L91.4256 74.6856V79.2716L91.5373 79.3583ZM74.8178 76.9871C74.8178 80.6738 77.3283 83.3066 81.5194 83.3066C85.8633 83.3066 87.4347 80.3451 87.6311 79.3785H84.6621C84.2697 80.3 83.135 81.1123 81.4325 81.1123C78.0931 80.9807 77.6778 78.5234 77.5684 77.7775H87.8491C87.8491 73.5199 85.7324 70.7773 81.323 70.7334C77.0016 70.7334 74.8178 73.652 74.8178 76.9871ZM81.2585 72.9281C79.8401 72.9281 78.2032 73.4111 77.6574 75.6718H84.9703C84.5556 73.6738 83.2017 72.9281 81.2585 72.9281Z" fill="black"/>
<path fill-rule="evenodd" clip-rule="evenodd" d="M150.514 69.3033H152.579V71.2522C153.491 70.1097 154.725 69.0566 157.058 69.0566C159.311 69.0566 160.76 70.0649 161.511 71.364C162.503 70.0871 163.978 69.0566 166.392 69.0566C169.584 69.0566 171.542 70.849 171.542 73.7164V80.8852H169.477V74.1196C169.477 71.8793 168.136 70.6249 165.883 70.6249C163.791 70.6249 162.047 71.924 162.047 74.2092V80.8852H160.009V74.0749C160.009 71.9018 158.641 70.6249 156.441 70.6249C154.242 70.6249 152.579 72.1484 152.579 74.2765V80.8852H150.514V69.3033Z" fill="black"/>
<path fill-rule="evenodd" clip-rule="evenodd" d="M184.071 75.0158V74.9721C184.071 72.5406 182.047 70.5474 179.389 70.5474C176.658 70.5474 174.781 72.5406 174.781 74.9283V74.9721C174.781 77.4035 176.78 79.375 179.438 79.375C182.169 79.375 184.071 77.4035 184.071 75.0158ZM172.855 75.0167V74.9729C172.855 71.7747 175.635 69.0586 179.439 69.0586C183.218 69.0586 185.998 71.7309 185.998 74.9291V74.9729C185.998 78.171 183.194 80.8872 179.39 80.8872C175.611 80.8872 172.855 78.2148 172.855 75.0167Z" fill="black"/>
<path fill-rule="evenodd" clip-rule="evenodd" d="M187.941 69.3033H189.956V71.3193C190.846 70.0649 192.259 69.0566 194.588 69.0566C197.86 69.0566 199.77 70.9386 199.77 73.6939V80.8852H197.755V74.1196C197.755 71.9691 196.394 70.6249 194.013 70.6249C191.683 70.6249 189.956 72.0811 189.956 74.2539V80.8852H187.941V69.3033Z" fill="black"/>
<path fill-rule="evenodd" clip-rule="evenodd" d="M212.819 74.3386C212.604 72.2796 211.152 70.4833 208.384 70.4833C205.965 70.4833 204.137 72.1262 203.869 74.3386H212.819ZM201.771 74.9946V74.9509C201.771 71.6872 204.594 69.0586 208.437 69.0586C212.549 69.0586 214.914 71.7309 214.914 75.0387C214.914 75.2575 214.914 75.3889 214.888 75.5862H203.868C204.163 78.0395 206.287 79.4195 208.76 79.4195C210.668 79.4195 212.012 78.7841 213.14 77.8203L214.43 78.7624C213.033 80.0326 211.34 80.8872 208.706 80.8872C204.889 80.8872 201.771 78.4995 201.771 74.9946Z" fill="black"/>
<path fill-rule="evenodd" clip-rule="evenodd" d="M225.989 70.3711H228.057L222.583 81.7241C221.473 83.9991 220.212 84.8282 218.244 84.8282C217.159 84.8282 216.352 84.6369 215.469 84.2754L216.125 82.9786C216.756 83.2549 217.336 83.3826 218.168 83.3826C219.329 83.3826 220.06 82.8723 220.842 81.3203L214.914 70.3711H217.058L221.801 79.5343L225.989 70.3711Z" fill="black"/>
</svg>
