<svg width="280" height="140" viewBox="0 0 280 140" fill="none" xmlns="http://www.w3.org/2000/svg">
<path d="M196.688 46.3131L212.643 43.4858V104.441H196.688V46.3131ZM219.978 46.3131V104.408H235.933V43.4858L219.978 46.3131ZM174.006 104.408H189.961V59.8438H174.006V104.408ZM68.5751 66.138C66.5469 66.0033 61.8822 65.7004 61.8822 61.5268C61.8822 56.478 68.6089 56.478 71.1103 56.478C75.5385 56.478 81.285 57.7907 85.3751 59.0024C85.3751 59.0024 87.6737 59.8102 89.6005 60.618L89.7695 60.6516V46.8516L89.5329 46.7843C84.6991 45.1014 79.0878 43.4858 68.6427 43.4858C50.6596 43.4858 44.3047 53.9199 44.3047 62.8394C44.3047 67.9892 46.5357 80.1063 67.1216 81.5199C68.8793 81.6209 73.5103 81.8902 73.5103 86.2321C73.5103 89.7999 69.7244 91.9204 63.3357 91.9204C56.3385 91.9204 49.5779 90.1365 45.454 88.4536V102.691C51.6061 104.307 58.5695 105.115 66.716 105.115C84.2934 105.115 92.1695 95.2526 92.1695 85.458C92.1695 74.3507 83.3807 67.1477 68.5751 66.138ZM165.015 59.2043C150.277 59.6755 142.806 66.2726 142.806 79.3658V104.441H158.896V83.977C158.896 76.1346 159.91 72.7687 169.274 72.4658V59.4063C167.651 59.1033 165.015 59.2043 165.015 59.2043ZM121.747 59.8102C121.409 60.6853 118.84 67.8882 112.654 75.3268V43.4858L96.192 46.717V104.408H112.654V86.5687C117.42 93.7043 119.786 104.408 119.786 104.408H139.493C137.533 96.3297 129.015 81.4526 129.015 81.4526C136.654 71.7926 140.034 61.4931 140.575 59.7765H121.747V59.8102ZM181.95 55.5692C186.277 55.5692 189.826 52.0687 189.826 47.7604C189.826 43.4521 186.31 39.918 181.95 39.918C177.623 39.918 174.107 43.4185 174.107 47.7604C174.107 52.0687 177.623 55.5692 181.95 55.5692Z" fill="black"/>
</svg>
