<svg width="280" height="140" viewBox="0 0 280 140" fill="none" xmlns="http://www.w3.org/2000/svg">
<g clip-path="url(#clip0_1833_12250)">
<path d="M170.222 69.9996C170.222 86.7018 156.702 100.222 140 100.222V69.9996H170.222ZM140 39.7773V69.9996H109.777C109.777 53.2973 123.297 39.7773 140 39.7773Z" fill="black"/>
<path d="M140 39.7773C156.702 39.7773 170.222 53.2973 170.222 69.9996H140V39.7773ZM109.777 69.9996H140V100.222C123.297 100.222 109.777 86.7018 109.777 69.9996Z" fill="white"/>
<path d="M140 39.7778V41.4348C155.749 41.4348 168.565 54.2476 168.565 70H170.222C170.222 53.3098 156.69 39.7778 140 39.7778ZM140 98.5652C124.251 98.5652 111.435 85.7524 111.435 70H109.778C109.778 86.6902 123.31 100.222 140 100.222M140 19C111.834 19 89 41.8343 89 70C89 98.1657 111.834 121 140 121C168.166 121 191 98.1657 191 70C191 41.8343 168.166 19 140 19ZM187.684 70C187.684 96.3336 166.337 117.684 140 117.684C113.663 117.684 92.3164 96.3336 92.3164 70C92.3164 43.6664 113.666 22.3164 140 22.3164C166.334 22.3164 187.684 43.6664 187.684 70Z" fill="black"/>
<path d="M118.205 45.3971C119.835 43.6924 120.757 41.7228 119.128 39.8425C118.241 38.822 116.752 38.5989 115.518 39.1017L115.395 39.1493L115.434 39.0422C115.617 38.5572 115.733 37.0101 114.406 35.942C113.759 35.4214 112.947 35.228 112.126 35.3113C110.596 35.466 109.418 36.5044 106.213 40.0537C105.245 41.1248 103.837 42.8147 102.992 43.9096L111.797 52.2043C114.715 48.9971 115.904 47.8041 118.205 45.3971ZM106.716 43.3681C108.49 41.2141 110.374 39.2594 111.228 38.4858C111.497 38.2419 111.791 37.9979 112.147 37.9027C112.726 37.745 113.322 38.1526 113.457 38.7417C113.591 39.3337 113.217 39.8961 112.8 40.3602C111.863 41.4104 108.424 44.9836 108.424 44.9836L106.716 43.3681ZM110.164 46.617C110.164 46.617 113.514 43.1003 114.607 41.9757C115.041 41.5294 115.32 41.2587 115.62 41.1129C116.006 40.9255 116.428 40.8868 116.806 41.1367C117.177 41.3836 117.348 41.8091 117.255 42.2316C117.144 42.7344 116.731 43.2134 116.389 43.5793C115.928 44.0702 111.956 48.292 111.95 48.2979L110.164 46.617ZM141.006 35.5047L143.825 29.233L144.005 28.6767L143.954 29.2568L144.251 37.6379C145.239 37.7301 146.261 37.867 147.267 38.0336L146.809 25.6212C145.401 25.4665 143.999 25.3564 142.597 25.2969L139.82 32.1427L139.721 32.6515L139.622 32.1427L136.848 25.2969C135.446 25.3564 134.044 25.4665 132.636 25.6212L132.177 38.0336C133.184 37.867 134.206 37.7331 135.194 37.6379L135.491 29.2568L135.44 28.6767L135.62 29.233L138.439 35.5047H141.006ZM164.418 48.4794C165.11 49.2173 166.108 50.4073 166.668 51.1303L176.986 44.6266C176.471 43.9572 175.65 42.9397 175.036 42.2226L168.502 46.5128L168.055 46.8937L168.388 46.4117L171.273 40.6934L169.233 38.6673L163.472 41.5324L162.986 41.8626L163.373 41.4193L167.696 34.9335C166.935 34.2908 166.204 33.7017 165.272 32.9877L158.723 43.2253C159.553 43.859 160.647 44.7902 161.345 45.4239L167.51 42.2464L167.906 41.9578L167.615 42.3506L164.418 48.4794Z" fill="black"/>
</g>
<defs>
<clipPath id="clip0_1833_12250">
<rect width="102" height="102" fill="white" transform="translate(89 19)"/>
</clipPath>
</defs>
</svg>
