<svg width="280" height="140" viewBox="0 0 280 140" fill="none" xmlns="http://www.w3.org/2000/svg">
<g clip-path="url(#clip0_1833_12261)">
<path d="M116.62 64.4051L112.117 66.3156C111.924 66.3981 111.718 66.2606 111.704 66.0544C111.497 61.5461 108.082 58.3573 102.546 58.3573C97.6986 58.3573 94.2007 60.5702 94.2007 64.3226C94.2007 73.889 117.322 64.9823 117.322 80.0879C117.322 87.2901 111.139 91.4549 102.904 91.4549C94.7377 91.4549 88.7472 87.0702 87.742 79.7442C87.7282 79.6206 87.7971 79.4969 87.9072 79.4419L92.5619 77.2152C92.7547 77.1191 92.975 77.2565 92.975 77.4764C93.1541 83.0293 96.7345 86.6855 102.904 86.6855C107.999 86.6855 111.663 84.2663 111.663 80.4178C111.663 70.1916 88.582 79.5107 88.582 64.6938C88.582 57.8075 95.0682 53.5879 102.546 53.5879C110.781 53.5879 116.111 58.3573 116.785 64.1164C116.813 64.2264 116.744 64.3501 116.62 64.4051Z" fill="black"/>
<path d="M145.707 78.9987H125.863C125.684 78.9987 125.547 79.1498 125.574 79.3286C126.235 84.4554 129.54 86.8608 133.727 86.8608C137.555 86.8608 140.089 85.3763 141.604 82.2288C141.686 82.05 141.92 81.9951 142.058 82.1326L145.542 85.1564C145.653 85.2526 145.68 85.4175 145.598 85.5275C143.05 89.5959 138.436 91.4377 133.616 91.4377C125.271 91.4377 119.914 85.6237 119.914 77.3494C119.914 69.1299 125.533 63.0547 133.258 63.0547C141.19 63.0547 146.079 68.6626 146.079 76.827C146.079 77.418 146.079 78.0228 146.011 78.7238C145.983 78.8887 145.859 78.9987 145.707 78.9987ZM125.918 74.999H140.007C140.171 74.999 140.309 74.8616 140.295 74.6965C140.171 70.3945 137.472 67.6454 133.134 67.6454C129.457 67.6454 126.428 69.9546 125.615 74.6553C125.602 74.834 125.739 74.999 125.918 74.999Z" fill="black"/>
<path d="M188.412 73.4476V90.3813C188.412 90.5463 188.274 90.6699 188.122 90.6699H183.344C183.178 90.6699 183.054 90.5325 183.054 90.3813V74.4235C183.054 69.9977 181.099 67.9498 177.545 67.9498C173.469 67.9498 171.362 70.7812 171.362 75.6056V90.3813C171.362 90.5463 171.224 90.6699 171.074 90.6699H166.308C166.143 90.6699 166.02 90.5325 166.02 90.3813V74.4786C166.02 70.0115 164.008 67.9498 160.607 67.9498C156.489 67.9498 154.423 71.1385 154.328 76.1279V90.3813C154.328 90.5463 154.19 90.6699 154.038 90.6699H149.273C149.108 90.6699 148.984 90.5325 148.984 90.3813V64.2386C148.984 64.0737 149.122 63.95 149.273 63.95H154.011C154.176 63.95 154.3 64.0875 154.3 64.2386V66.5477C154.3 66.8364 154.672 66.9464 154.837 66.7128C156.627 64.0875 159.341 63.084 162.135 63.084C165.757 63.084 168.401 64.7472 169.985 67.4274C170.096 67.6199 170.37 67.6199 170.481 67.4274C172.092 64.8297 175.025 63.084 178.936 63.084C184.693 63.0704 188.412 66.6714 188.412 73.4476Z" fill="black"/>
<path d="M220.429 77.3095C220.429 85.2816 214.976 91.453 206.824 91.453C202.83 91.453 199.787 89.9547 197.652 87.6181C197.473 87.4257 197.142 87.5495 197.142 87.8106V90.3809C197.142 90.5459 197.005 90.6695 196.854 90.6695H192.089C191.924 90.6695 191.799 90.5321 191.799 90.3809V53.8609C191.799 53.696 191.937 53.5723 192.089 53.5723H196.854C197.019 53.5723 197.142 53.7097 197.142 53.8609V66.7398C197.142 67.0147 197.473 67.1384 197.652 66.9322C199.801 64.5544 202.871 63.07 206.879 63.07C214.976 63.07 220.429 69.2826 220.429 77.3095ZM214.866 77.3095C214.866 71.9629 211.41 67.8944 205.956 67.8944C200.655 67.8944 196.992 71.9079 196.992 77.3095C196.992 82.6563 200.655 86.5598 205.956 86.5598C211.423 86.5598 214.866 82.6013 214.866 77.3095Z" fill="black"/>
<path d="M228.676 53.8609V90.3809C228.676 90.5457 228.538 90.6695 228.386 90.6695H223.621C223.456 90.6695 223.332 90.5321 223.332 90.3809V53.8609C223.332 53.696 223.47 53.5723 223.621 53.5723H228.386C228.538 53.5723 228.676 53.696 228.676 53.8609Z" fill="black"/>
<path d="M257.421 78.9987H237.562C237.383 78.9987 237.245 79.1498 237.274 79.3286C237.934 84.4554 241.239 86.8608 245.426 86.8608C249.254 86.8608 251.789 85.3763 253.303 82.2288C253.386 82.05 253.62 81.9951 253.758 82.1326L257.242 85.1564C257.351 85.2526 257.38 85.4175 257.297 85.5275C254.75 89.5959 250.136 91.4377 245.316 91.4377C236.971 91.4377 231.613 85.6237 231.613 77.3494C231.613 69.1299 237.232 63.0547 244.958 63.0547C252.89 63.0547 257.779 68.6626 257.779 76.827C257.779 77.418 257.779 78.0228 257.709 78.7238C257.696 78.8887 257.573 78.9987 257.421 78.9987ZM237.632 74.999H251.719C251.885 74.999 252.022 74.8616 252.009 74.6965C251.885 70.3945 249.186 67.6454 244.848 67.6454C241.171 67.6454 238.141 69.9546 237.329 74.6553C237.301 74.834 237.453 74.999 237.632 74.999Z" fill="black"/>
<path d="M22.2227 60.2671V84.7329C22.2227 92.6224 28.6263 99 36.5171 99H61.0298C68.9345 99 75.3244 92.6087 75.3244 84.7329V60.2671C75.3382 52.3913 68.9345 46 61.0436 46H36.5309C28.6263 46 22.2227 52.3913 22.2227 60.2671Z" fill="black"/>
<path d="M47.8308 91.4583H49.7037C50.6402 91.4583 51.4114 90.7023 51.4114 89.7539V87.8846C51.4114 87.7609 51.3976 87.6509 51.37 87.541L50.4336 81.9606C50.3235 81.3696 49.8001 80.916 49.1667 80.916H48.3541C47.7207 80.916 47.1974 81.3696 47.0872 81.9606L46.1507 87.541C46.1232 87.6509 46.1094 87.7747 46.1094 87.8846V89.7539C46.1232 90.6885 46.8944 91.4583 47.8308 91.4583Z" fill="white"/>
<path d="M43.1911 80.4876C43.5629 79.9378 43.5767 79.2368 43.1084 78.7558L42.5301 78.1784C42.0618 77.7111 41.3595 77.7249 40.7949 78.096L35.3277 81.7109C34.8732 82.0133 34.5703 82.5356 34.5703 83.1266V84.9959C34.5703 85.9306 35.3277 86.7003 36.2779 86.7003H38.1508C38.7429 86.7003 39.2662 86.3979 39.5693 85.9444L43.1911 80.4876Z" fill="white"/>
<path d="M49.7446 53.5723H47.8717C46.9353 53.5723 46.1641 54.3282 46.1641 55.2766V57.1459C46.1641 57.2696 46.1778 57.3796 46.2054 57.4895L47.1419 63.07C47.252 63.661 47.7754 64.1145 48.4088 64.1145H49.2213C49.8547 64.1145 50.378 63.661 50.4883 63.07L51.4247 57.4895C51.4523 57.3796 51.4659 57.2559 51.4659 57.1459V55.2766C51.4523 54.3282 50.6949 53.5723 49.7446 53.5723Z" fill="white"/>
<path d="M54.3797 64.5271C54.0079 65.0769 53.9941 65.7779 54.4623 66.259L55.0407 66.8363C55.5088 67.3036 56.2113 67.2898 56.7759 66.9187L62.243 63.3039C62.6974 63.0014 63.0005 62.4792 63.0005 61.8882V60.0188C63.0005 59.0841 62.243 58.3145 61.2928 58.3145H59.4199C58.8277 58.3145 58.3044 58.6169 58.0015 59.0705C58.0015 59.0841 54.3934 64.5271 54.3797 64.5271Z" fill="white"/>
<path d="M62.3148 81.7373C62.301 81.7236 49.5627 71.3738 49.2184 70.9476C47.2491 68.5286 39.551 59.0171 39.5373 59.0034C39.2206 58.6185 38.7523 58.3711 38.2152 58.3711H36.3423C35.4059 58.3711 34.6348 59.1271 34.6348 60.0755V61.9448C34.6348 62.4808 34.8826 62.9482 35.2682 63.2643C35.282 63.2781 48.0203 73.6279 48.3646 74.0539C50.3201 76.5005 58.032 85.9982 58.032 86.012C58.3487 86.3968 58.8169 86.6442 59.354 86.6442H61.2269C62.1633 86.6442 62.9345 85.8882 62.9345 84.9399V83.0705C62.9483 82.5345 62.6866 82.0672 62.3148 81.7373Z" fill="white"/>
</g>
<defs>
<clipPath id="clip0_1833_12261">
<rect width="235.556" height="53" fill="white" transform="translate(22.2227 46)"/>
</clipPath>
</defs>
</svg>
