<svg width="280" height="140" viewBox="0 0 280 140" fill="none" xmlns="http://www.w3.org/2000/svg">
<mask id="mask0_1833_12251" style="mask-type:luminance" maskUnits="userSpaceOnUse" x="27" y="43" width="226" height="55">
<path d="M27.1797 43H252.821V98H27.1797V43Z" fill="white"/>
</mask>
<g mask="url(#mask0_1833_12251)">
<mask id="mask1_1833_12251" style="mask-type:luminance" maskUnits="userSpaceOnUse" x="27" y="42" width="226" height="56">
<path d="M31.1885 42.9902C28.9746 42.9902 27.1797 44.7716 27.1797 46.9716V94.0024C27.1797 96.2024 28.9751 97.9852 31.1885 97.9852H217.282C224.982 97.9852 227.809 95.6664 231.29 92.5144L251.961 72.5171C252.234 72.2541 252.45 71.9394 252.597 71.5917C252.745 71.2441 252.821 70.8705 252.82 70.4933C252.82 70.1144 252.745 69.7393 252.597 69.3898C252.45 69.0404 252.234 68.7237 251.961 68.4583L231.289 48.4751C227.81 45.3075 224.983 42.9902 217.282 42.9902H31.189H31.1885Z" fill="white"/>
</mask>
<g mask="url(#mask1_1833_12251)">
<path d="M27.1797 42.9902H252.821V97.9902H27.1797V42.9902Z" fill="black"/>
</g>
</g>
<mask id="mask2_1833_12251" style="mask-type:luminance" maskUnits="userSpaceOnUse" x="27" y="43" width="226" height="55">
<path d="M27.1797 43H252.821V98H27.1797V43Z" fill="white"/>
</mask>
<g mask="url(#mask2_1833_12251)">
<mask id="mask3_1833_12251" style="mask-type:luminance" maskUnits="userSpaceOnUse" x="42" y="55" width="178" height="34">
<path d="M42.7129 55.3477H219.467V88.486H42.7129V55.3477Z" fill="white"/>
</mask>
<g mask="url(#mask3_1833_12251)">
<path d="M53.5486 66.6815C53.5486 66.3292 53.2512 66.0374 52.89 66.0374H49.2931L49.8463 62.0807L49.8554 61.97C49.8554 61.8842 49.8383 61.7992 49.805 61.72C49.7717 61.6407 49.7229 61.5689 49.6615 61.5085C49.6001 61.4481 49.5272 61.4005 49.4471 61.3682C49.3669 61.336 49.2812 61.3199 49.1948 61.3209H45.5786C45.2564 61.3209 44.9788 61.5604 44.9337 61.8824L42.7654 77.127C42.6641 78.001 42.7066 78.7448 42.9174 79.3501C43.1271 79.969 43.4554 80.4602 43.9407 80.8386C44.4033 81.221 44.9914 81.5028 45.6667 81.6704C46.3431 81.8485 47.1106 81.9356 47.9399 81.9356C48.5063 81.9356 49.1026 81.9003 49.7019 81.8384C50.16 81.7917 50.6128 81.7033 51.0546 81.5743C51.1772 81.5407 51.2869 81.4715 51.3697 81.3756C51.4525 81.2796 51.5045 81.1613 51.5191 81.0358L51.8763 78.4529C51.8903 78.3509 51.8801 78.2471 51.8465 78.1498C51.8129 78.0525 51.7568 77.9643 51.6828 77.8923C51.5596 77.7766 51.396 77.7061 51.2268 77.7061C51.1898 77.7061 51.1528 77.7127 51.1229 77.7162L51.0216 77.7338L49.9871 77.8179C49.4552 77.8179 49.0514 77.7434 48.751 77.5995C48.4501 77.4586 48.2444 77.2563 48.1253 76.9891C48.0088 76.7375 47.945 76.4205 47.945 76.0617C47.945 75.7029 47.9754 75.3028 48.0387 74.8741L48.0438 74.8701L48.7388 69.9578H52.5171C52.8414 69.9578 53.1185 69.7188 53.1615 69.4018L53.5364 66.7927C53.5395 66.7534 53.5491 66.7238 53.5491 66.682M66.4185 70.1023C66.4591 70.1113 66.5107 70.1173 66.5553 70.1173C66.684 70.1173 66.8157 70.0806 66.9333 70.0016C67.0792 69.901 67.1795 69.7369 67.2038 69.5553L67.6395 66.4183C67.6648 66.2462 67.6172 66.0641 67.5037 65.9262C67.3963 65.7903 67.2337 65.6997 67.0629 65.6846L66.9444 65.6746L66.0806 65.6383C64.9899 65.6383 64.0375 65.8874 63.2451 66.373C62.4558 66.8646 61.7278 67.6059 61.0667 68.5851H60.9998L61.2597 66.7922L61.2628 66.6815C61.2628 66.3292 60.975 66.0374 60.6042 66.0374H56.9986C56.6719 66.0374 56.3973 66.2709 56.3471 66.5934L54.2903 81.1938C54.2774 81.2857 54.2845 81.3792 54.3111 81.4681C54.3376 81.5569 54.3831 81.6391 54.4443 81.7091C54.5709 81.851 54.7508 81.9356 54.9392 81.9356H58.5615C58.8888 81.9356 59.1634 81.692 59.209 81.374L60.054 75.2888C60.1614 74.5098 60.3073 73.7792 60.4947 73.1351C60.6807 72.4809 60.9532 71.9148 61.3053 71.4503C61.6463 70.9773 62.1326 70.611 62.7259 70.3533C63.31 70.0897 64.0861 69.9508 65.0259 69.9508C65.3942 69.9508 65.7493 69.9775 66.0811 70.0363L66.419 70.0967M82.162 67.7634C81.6934 67.0589 81.0322 66.5406 80.134 66.1748C79.2505 65.8155 78.067 65.6333 76.6212 65.6333C75.2939 65.6356 73.9758 65.8509 72.7177 66.2709C71.664 66.6206 70.6842 67.1228 69.7921 67.7634C69.6477 67.861 69.555 68.0301 69.5327 68.2022C69.5194 68.2908 69.5256 68.3813 69.551 68.4673C69.5764 68.5533 69.6202 68.6328 69.6796 68.7003L71.0535 70.3498C71.1146 70.4242 71.1916 70.4841 71.2789 70.5254C71.3661 70.5666 71.4615 70.5881 71.5581 70.5883C71.7115 70.5874 71.8596 70.5329 71.9766 70.4344C72.4426 70.0494 72.9543 69.7319 73.4797 69.4758C74.1949 69.1404 74.9766 68.9681 75.7675 68.9716C76.6222 68.9716 77.3264 69.2322 77.876 69.7405C78.4323 70.2638 78.6502 70.934 78.5336 71.8187L75.0963 71.9168C73.8419 71.9822 72.6169 72.1986 71.4689 72.5518C70.3225 72.9141 69.3138 73.4752 68.4678 74.2225C67.6157 74.9773 67.1065 76.027 66.9034 77.4093V77.4143C66.802 78.2194 66.8563 78.935 67.0721 79.5448C67.295 80.1598 67.6309 80.6619 68.1157 81.0781C68.5792 81.4892 69.1517 81.8017 69.8007 82.009C70.4608 82.2173 71.1716 82.325 71.9102 82.325C72.926 82.3246 73.9327 82.1346 74.8779 81.765C75.8405 81.3956 76.6632 80.7847 77.3238 79.9333H77.3836L77.2149 81.1923C77.2033 81.2843 77.2117 81.3778 77.2395 81.4663C77.2673 81.5548 77.3138 81.6364 77.376 81.7056C77.5027 81.8465 77.6785 81.931 77.8644 81.931H81.0966C81.4259 81.931 81.703 81.688 81.746 81.3705L82.7846 73.8426C82.9832 72.5216 83.0379 71.3416 82.9685 70.3302C82.8991 69.3188 82.6174 68.4533 82.164 67.7639M76.8537 74.9597H78.0721L77.9404 76.0063C77.8745 76.5055 77.7058 76.9483 77.449 77.3172C77.1855 77.683 76.8613 77.9965 76.4727 78.2305C76.0928 78.4695 75.6606 78.6532 75.193 78.7865C74.7204 78.9209 74.2371 78.9818 73.7603 78.9818C73.4969 78.9818 73.2203 78.9566 72.9498 78.8851C72.6944 78.8281 72.4546 78.7164 72.2471 78.5581C72.0524 78.4165 71.8937 78.2318 71.7835 78.0186C71.6721 77.8163 71.6417 77.5592 71.6848 77.2563V77.2412C71.7537 76.6977 71.9796 76.2816 72.393 75.9731C72.7993 75.6682 73.2715 75.4377 73.808 75.2878C74.3465 75.1377 74.8993 75.0441 75.4575 75.0085L76.8542 74.9602M101.033 67.7905C100.704 67.1062 100.189 66.5929 99.4536 66.2034C98.7312 65.823 97.7311 65.6328 96.4899 65.6328C95.8992 65.6328 95.3349 65.7133 94.809 65.8593C94.313 65.9996 93.8357 66.198 93.3869 66.4505C92.9864 66.6819 92.6126 66.9562 92.2724 67.2687C91.9431 67.5747 91.6776 67.8801 91.4831 68.1845H91.4173L91.6037 66.7846C91.6169 66.7484 91.6169 66.7182 91.6169 66.677C91.6155 66.505 91.5455 66.3405 91.4222 66.2198C91.2989 66.099 91.1324 66.0318 90.9593 66.0329H87.5407C87.2083 66.0329 86.9312 66.2663 86.8821 66.5889L84.8379 81.1938C84.8055 81.38 84.8632 81.5687 84.9889 81.7091C85.1145 81.8495 85.2959 81.9356 85.4843 81.9356H89.099C89.4283 81.9356 89.7059 81.696 89.75 81.3745L90.7921 74.0086C90.8564 73.4933 90.9542 72.9836 91.0839 72.5121C91.2242 72.029 91.4193 71.5973 91.6787 71.2118C91.9436 70.8354 92.2891 70.5275 92.7223 70.3025C93.1463 70.0721 93.6823 69.9563 94.3211 69.9563C94.9473 69.9563 95.4276 70.0887 95.7336 70.3589C96.036 70.6105 96.2518 70.9557 96.3567 71.3653C96.4692 71.7764 96.5016 72.2323 96.4565 72.7229L96.2954 74.141L95.309 81.1958C95.2857 81.3785 95.3409 81.5682 95.4625 81.7091C95.524 81.7794 95.5998 81.8359 95.685 81.8748C95.7702 81.9137 95.8627 81.9341 95.9565 81.9345H99.5757C99.905 81.9345 100.186 81.6955 100.234 81.374L101.374 73.1617C101.525 72.105 101.592 71.0986 101.577 70.1863C101.551 69.2745 101.378 68.4719 101.043 67.7951M114.978 66.0942C113.962 65.7917 112.908 65.638 111.848 65.6378C111.016 65.6378 110.176 65.74 109.349 65.9473C108.535 66.1424 107.76 66.4697 107.053 66.916C106.361 67.3437 105.77 67.9158 105.294 68.5841C104.819 69.2523 104.508 70.0665 104.374 70.9995V71.008C104.216 72.0034 104.303 72.8115 104.634 73.4083C104.971 74.0141 105.416 74.465 105.998 74.8022C106.58 75.1242 107.222 75.3758 107.911 75.5348L109.859 75.9988C110.463 76.1397 110.956 76.3077 111.341 76.5206C111.72 76.7284 111.884 77.0414 111.813 77.4445V77.4545C111.752 77.8888 111.476 78.1882 110.999 78.3523C110.516 78.5148 109.986 78.6039 109.417 78.6039C108.672 78.6039 108.031 78.4569 107.521 78.161C107.176 77.9668 106.862 77.7061 106.574 77.3926C106.452 77.2668 106.288 77.1888 106.107 77.1848H106.09C105.919 77.1848 105.753 77.2472 105.628 77.366L103.159 79.721C103.035 79.8468 102.959 80.0229 102.959 80.203C102.963 80.3842 103.04 80.5533 103.175 80.676C103.783 81.2205 104.493 81.6095 105.353 81.8566C106.447 82.1736 107.569 82.3346 108.684 82.3346C109.535 82.3346 110.423 82.2541 111.319 82.0865C112.188 81.9342 113.027 81.6478 113.807 81.2376C114.559 80.8361 115.223 80.2966 115.765 79.6284C116.313 78.9742 116.657 78.1188 116.787 77.0958C116.919 76.0969 116.825 75.2943 116.51 74.6965C116.19 74.0916 115.748 73.6166 115.173 73.2739C114.588 72.9144 113.948 72.6526 113.278 72.499L111.351 72.0436C110.759 71.8926 110.264 71.7341 109.868 71.5495C109.472 71.3648 109.312 71.0795 109.375 70.692V70.6829C109.446 70.1948 109.679 69.8678 110.098 69.664C110.515 69.4727 110.933 69.3736 111.351 69.3736C112.334 69.3736 113.09 69.6514 113.667 70.2361C113.728 70.2978 113.801 70.3466 113.882 70.3799C113.963 70.4132 114.049 70.4301 114.137 70.4298C114.295 70.43 114.448 70.3744 114.569 70.2728L116.971 68.1795C117.114 68.0572 117.194 67.8791 117.194 67.6985C117.199 67.5133 117.118 67.3311 116.984 67.2088C116.427 66.6956 115.768 66.3323 114.974 66.0988M144.311 67.9204C143.768 67.1917 143.043 66.6196 142.172 66.2316C141.296 65.8442 140.275 65.6429 139.141 65.6429C137.917 65.6429 136.715 65.8442 135.58 66.2316C134.444 66.6191 133.414 67.1917 132.523 67.9204C131.626 68.643 130.858 69.5271 130.263 70.5541C129.663 71.5706 129.262 72.728 129.091 73.988C128.915 75.243 128.985 76.4008 129.306 77.4223C129.621 78.4428 130.13 79.3325 130.825 80.0591C131.521 80.7857 132.396 81.3513 133.415 81.7448C134.428 82.1338 135.583 82.3336 136.81 82.3336C138.1 82.3336 139.405 82.0604 140.687 81.5164C141.724 81.0751 142.662 80.4732 143.47 79.7164C143.537 79.6518 143.59 79.5741 143.626 79.4882C143.662 79.4024 143.679 79.3101 143.678 79.2173C143.675 79.1257 143.652 79.0359 143.611 78.9538C143.57 78.8718 143.512 78.7993 143.441 78.7412L141.363 77.058C141.242 76.9584 141.095 76.9106 140.944 76.9106C140.782 76.9106 140.622 76.9725 140.484 77.0947C140.106 77.4645 139.686 77.7897 139.233 78.0639C138.631 78.4162 137.912 78.6023 137.105 78.6023C136.144 78.6023 135.359 78.3246 134.783 77.763C134.206 77.2095 133.881 76.4587 133.814 75.5263H144.718C145.039 75.5263 145.319 75.2867 145.363 74.9692L145.515 73.988V73.9829C145.693 72.7275 145.671 71.5701 145.465 70.5541C145.248 69.5261 144.87 68.642 144.323 67.9194M138.196 69.1789C139.104 69.1789 139.787 69.4657 140.272 70.0645C140.758 70.6548 140.933 71.3487 140.799 72.188H134.281C134.36 71.7965 134.521 71.4151 134.739 71.0573C134.961 70.7051 135.236 70.3805 135.558 70.1113C135.89 69.8371 136.276 69.6111 136.713 69.4355C137.15 69.2659 137.645 69.1839 138.195 69.1839M160.114 65.7531C160.08 65.7491 160.031 65.7491 159.999 65.7455L159.136 65.7083C158.05 65.7083 157.095 65.9624 156.311 66.444C155.518 66.9336 154.791 67.6819 154.13 68.6596H154.067L154.317 66.8667C154.325 66.8279 154.325 66.7982 154.325 66.757C154.325 66.5835 154.255 66.4171 154.132 66.2944C154.008 66.1717 153.841 66.1028 153.666 66.1028H150.059C149.73 66.1028 149.448 66.3418 149.4 66.6654L147.344 81.2693C147.316 81.4555 147.37 81.6397 147.499 81.7911C147.623 81.9255 147.803 82.0105 147.991 82.0105H151.612C151.771 82.01 151.924 81.9522 152.043 81.848C152.161 81.7437 152.238 81.6001 152.258 81.4439L153.107 75.3678C153.208 74.5853 153.368 73.8551 153.545 73.206C153.739 72.5559 154.004 71.9852 154.358 71.5228C154.712 71.0513 155.183 70.686 155.774 70.4218C156.363 70.1611 157.143 70.0313 158.074 70.0313C158.446 70.0313 158.808 70.0595 159.137 70.1168C159.251 70.1313 159.364 70.1504 159.475 70.1742C159.525 70.1913 159.568 70.1958 159.612 70.1958C159.749 70.1958 159.882 70.1455 159.986 70.0751C160.061 70.0234 160.124 69.9567 160.172 69.8793C160.22 69.802 160.251 69.7156 160.263 69.6257L160.704 66.4968C160.726 66.3204 160.678 66.1423 160.57 66.0007C160.459 65.8648 160.297 65.7777 160.115 65.7526M193.08 58.7389C191.817 57.6093 190.309 56.7765 188.59 56.2732C186.554 55.6679 184.232 55.3574 181.712 55.3574C179.241 55.3574 176.872 55.7469 174.67 56.5148C172.471 57.2797 170.488 58.4038 168.779 59.8359C167.057 61.2721 165.621 63.0313 164.472 65.0727C163.329 67.1107 162.564 69.4174 162.207 71.9349C161.855 74.4439 161.958 76.7506 162.524 78.7885C163.083 80.8265 164.034 82.5907 165.346 84.0218C166.652 85.4489 168.325 86.5716 170.302 87.341C172.277 88.1023 174.54 88.4963 177.002 88.4963C179.339 88.4956 181.669 88.2551 183.956 87.7787C186.092 87.346 188.244 86.6345 190.33 85.6743C190.606 85.5455 190.786 85.2934 190.84 84.99L192.964 70.0021C193.003 69.7505 192.92 69.4838 192.751 69.2951C192.579 69.1004 192.336 68.9856 192.075 68.9856H181.46C181.245 68.9862 181.037 69.063 180.874 69.2024C180.711 69.3417 180.604 69.5343 180.571 69.7455L179.892 74.3865C179.853 74.6381 179.931 74.8978 180.103 75.0991C180.269 75.2878 180.508 75.398 180.774 75.398H185.435L184.726 80.5306C184.037 80.8844 183.105 81.2331 181.948 81.5732C180.786 81.9154 179.422 82.0865 177.906 82.0865C176.413 82.0865 175.089 81.8349 173.963 81.3347C172.826 80.8215 171.89 80.119 171.158 79.2147C170.428 78.3125 169.907 77.2336 169.613 76.0043C169.312 74.784 169.268 73.4058 169.476 71.9284C169.679 70.4832 170.113 69.1165 170.759 67.8796C171.395 66.6387 172.216 65.5508 173.2 64.6491C174.184 63.7473 175.328 63.0348 176.609 62.5326C177.888 62.0264 179.287 61.7758 180.778 61.7758C182.562 61.7758 184.04 62.0264 185.172 62.5326C186.041 62.9196 186.832 63.4586 187.509 64.1237C187.677 64.2948 187.914 64.3829 188.135 64.3829C188.355 64.3829 188.576 64.3008 188.743 64.1413L193.101 60.0468C193.281 59.8787 193.386 59.6442 193.381 59.3891C193.378 59.1465 193.265 58.913 193.084 58.744M215.426 71.8947C215.044 70.6689 214.428 69.6041 213.588 68.7245C212.733 67.8519 211.682 67.1646 210.454 66.7006C209.207 66.2236 207.831 65.9961 206.36 65.9961C204.885 65.9961 203.446 66.2286 202.075 66.7006C200.735 67.1546 199.485 67.8397 198.384 68.7245C197.309 69.6051 196.392 70.6739 195.666 71.8947C194.942 73.1275 194.47 74.5194 194.254 76.036C194.041 77.5517 194.133 78.9425 194.507 80.1774C194.891 81.4012 195.505 82.471 196.334 83.3475C197.163 84.2211 198.213 84.9075 199.45 85.3704C200.685 85.8434 202.063 86.0824 203.536 86.0824C205.014 86.0824 206.453 85.8434 207.822 85.3704C209.192 84.9024 210.433 84.2216 211.52 83.3425C212.601 82.4669 213.523 81.3966 214.257 80.1733C214.997 78.938 215.473 77.5466 215.687 76.031C215.901 74.5153 215.816 73.1225 215.427 71.8896M209.736 76.031C209.525 77.4711 208.929 78.6476 207.963 79.5353C207 80.43 205.755 80.8788 204.254 80.8788C202.754 80.8788 201.635 80.43 200.941 79.5353C200.242 78.6522 199.999 77.4711 200.205 76.0305C200.42 74.5913 201.003 73.4138 201.952 72.5222C202.9 71.638 204.145 71.1867 205.642 71.1867C207.139 71.1867 208.264 71.638 208.976 72.5222C209.688 73.4143 209.936 74.5853 209.736 76.031ZM130.528 57.2334C130.427 57.0864 130.274 56.9893 130.103 56.9581C129.867 56.9179 129.624 56.8927 129.375 56.869C128.883 56.8222 128.389 56.7998 127.894 56.8021C126.563 56.8021 125.442 56.9712 124.588 57.3129C123.719 57.645 123.018 58.1155 122.491 58.7002C121.961 59.2859 121.572 59.9733 121.321 60.7452C121.068 61.5116 120.88 62.3404 120.748 63.2109L120.743 63.2149L120.48 65.0894C120.227 66.9431 122.834 67.7292 122.834 67.7292C122.834 67.7292 120.007 68.4673 119.764 70.1697L118.217 81.1928C118.196 81.378 118.248 81.5672 118.373 81.7081C118.498 81.849 118.673 81.9345 118.868 81.9345H122.48C122.812 81.9345 123.094 81.6945 123.139 81.3735L124.738 69.9548H127.825C128.15 69.9548 128.425 69.7158 128.472 69.3988L128.854 66.7685C128.864 66.6762 128.855 66.5827 128.827 66.4939C128.799 66.4052 128.753 66.3233 128.692 66.2533C128.568 66.1109 128.386 66.0354 128.195 66.0354H125.294L125.661 63.5053C125.813 62.4672 126.112 61.7677 126.549 61.4281C126.986 61.0969 127.611 60.9213 128.393 60.9213C128.698 60.9213 128.968 60.95 129.2 61.0044C129.226 61.0084 129.248 61.0174 129.282 61.0265C129.333 61.0391 129.384 61.0451 129.437 61.0451C129.562 61.0443 129.684 61.0108 129.792 60.948C129.942 60.8489 130.052 60.6944 130.088 60.5188L130.638 57.729C130.672 57.5529 130.638 57.3753 130.534 57.2258" fill="#7C7C7C"/>
</g>
</g>
<mask id="mask4_1833_12251" style="mask-type:luminance" maskUnits="userSpaceOnUse" x="27" y="43" width="226" height="55">
<path d="M27.1797 43H252.821V98H27.1797V43Z" fill="white"/>
</mask>
<g mask="url(#mask4_1833_12251)">
<path d="M53.5513 65.9629C53.5513 65.6106 53.254 65.3188 52.8928 65.3188H49.2958L49.849 61.3616L49.8582 61.2509C49.8582 61.165 49.841 61.08 49.8077 61.0008C49.7745 60.9216 49.7257 60.8497 49.6642 60.7894C49.6028 60.729 49.5299 60.6813 49.4498 60.6491C49.3697 60.6169 49.284 60.6008 49.1975 60.6017H45.5813C45.2591 60.6017 44.9815 60.8408 44.9364 61.1633L42.7732 76.4134C42.6719 77.2874 42.7144 78.0301 42.9252 78.6355C43.1349 79.2564 43.4632 79.7461 43.9485 80.125C44.4111 80.5059 44.9992 80.7892 45.6746 80.9583C46.3509 81.1344 47.1184 81.2214 47.9477 81.2214C48.5141 81.2214 49.1104 81.1882 49.7097 81.1248C50.1657 81.0775 50.6216 80.989 51.0624 80.8606C51.1852 80.827 51.2951 80.7576 51.3779 80.6614C51.4607 80.5651 51.5126 80.4465 51.5269 80.3207L51.8841 77.7393C51.916 77.532 51.836 77.3181 51.6906 77.1787C51.5675 77.063 51.4038 76.9925 51.2346 76.9925C51.1976 76.9925 51.1606 76.9976 51.1308 77.0011L51.0294 77.0197L49.9949 77.1037C49.463 77.1037 49.0592 77.0298 48.7588 76.8874C48.4584 76.745 48.2522 76.5427 48.1331 76.2755C48.0166 76.0249 47.9528 75.7069 47.9528 75.3481C47.9528 74.9918 47.9832 74.5892 48.0465 74.162L48.0516 74.157L48.7467 69.2457H52.525C52.8492 69.2457 53.1263 69.0072 53.1694 68.6897L53.5443 66.0806C53.5473 66.0414 53.5569 66.0102 53.5569 65.9699M66.4264 69.3907C66.4715 69.3985 66.5173 69.4027 66.5631 69.4032C66.6918 69.4032 66.8235 69.368 66.9411 69.2885C67.0145 69.2361 67.0764 69.1693 67.1229 69.0923C67.1694 69.0153 67.1996 68.9297 67.2116 68.8407L67.6473 65.7037C67.6726 65.5316 67.625 65.35 67.5115 65.2106C67.4041 65.0747 67.2415 64.9866 67.0708 64.97L66.9522 64.96L66.0884 64.9247C64.9977 64.9247 64.0453 65.1723 63.2529 65.6594C62.4636 66.1495 61.7356 66.8923 61.0745 67.8695H61.0076L61.2675 66.0781L61.2706 65.9674C61.2706 65.6151 60.9828 65.3233 60.612 65.3233H57.0014C56.6746 65.3233 56.4 65.5568 56.3499 65.8798L54.293 80.4797C54.2667 80.6649 54.3234 80.8556 54.447 80.995C54.5087 81.0654 54.5847 81.122 54.67 81.161C54.7554 81.2 54.8481 81.2206 54.942 81.2214H58.5643C58.8915 81.2214 59.1661 80.9784 59.2117 80.6599L60.0567 74.5741C60.1641 73.7957 60.31 73.0716 60.4975 72.422C60.6834 71.7663 60.956 71.1992 61.3081 70.7352C61.649 70.2632 62.1354 69.8964 62.7286 69.6403C63.3127 69.3756 64.0889 69.2377 65.0286 69.2377C65.3969 69.2377 65.7521 69.2644 66.0839 69.3212L66.4218 69.3846M82.1647 67.0513C81.6961 66.3448 81.035 65.826 80.1368 65.4612C79.2532 65.1014 78.0698 64.9202 76.6239 64.9202C75.3169 64.9202 74.0017 65.1326 72.7205 65.5583C71.6739 65.9039 70.6872 66.4075 69.7948 67.0513C69.6504 67.1519 69.5577 67.316 69.5354 67.4881C69.5101 67.6702 69.5618 67.8524 69.6874 67.9887L71.0613 69.6367C71.1225 69.7111 71.1994 69.771 71.2867 69.8123C71.3739 69.8535 71.4693 69.875 71.5659 69.8752C71.7179 69.8752 71.8608 69.8224 71.9844 69.7208C72.4451 69.3428 72.9498 69.021 73.4875 68.7622C74.1968 68.429 74.9668 68.2575 75.7753 68.2575C76.63 68.2575 77.3342 68.5176 77.8839 69.0274C78.4401 69.5507 78.658 70.2199 78.5414 71.1046L75.1041 71.2022C73.8497 71.2676 72.6247 71.484 71.4768 71.8387C70.3303 72.199 69.3216 72.7596 68.4756 73.5094C67.6235 74.2677 67.1143 75.3108 66.9112 76.6946V76.6997C66.8099 77.5048 66.8641 78.2193 67.0799 78.8297C67.3028 79.4436 67.6387 79.9488 68.1235 80.363C68.5871 80.7756 69.1595 81.0876 69.8085 81.2954C70.4686 81.5037 71.1794 81.6109 71.918 81.6109C72.934 81.6106 73.9407 81.4203 74.8857 81.0499C75.8483 80.6825 76.671 80.0701 77.3317 79.2182H77.3914L77.2227 80.4777C77.201 80.6679 77.2582 80.8551 77.3838 80.991C77.5105 81.1319 77.6863 81.2159 77.8722 81.2159H81.1044C81.2625 81.2164 81.4155 81.1599 81.535 81.057C81.6544 80.954 81.7322 80.8115 81.7539 80.6558L82.7924 73.1279C82.991 71.8065 83.0457 70.627 82.9763 69.6156C82.9069 68.6042 82.6252 67.7387 82.1718 67.0508M76.8641 74.2466H78.0825L77.9507 75.2932C77.8849 75.7964 77.7162 76.2342 77.4593 76.6031C77.1959 76.9694 76.8717 77.2824 76.4831 77.5189C76.1031 77.7564 75.671 77.9416 75.2034 78.0739C74.7372 78.2045 74.255 78.27 73.7707 78.2687C73.5073 78.2687 73.2306 78.2435 72.9601 78.172C72.7048 78.1149 72.465 78.0033 72.2574 77.845C72.0538 77.695 71.9013 77.5144 71.7939 77.3065C71.6824 77.1032 71.652 76.8471 71.6951 76.5432V76.5271C71.764 75.9836 71.99 75.568 72.4033 75.259C72.8097 74.9556 73.2818 74.7241 73.8183 74.5747C74.3566 74.4236 74.9096 74.3301 75.4678 74.2959L76.8646 74.2471M101.041 67.0774C100.712 66.3931 100.197 65.8798 99.4614 65.4914C98.739 65.1089 97.739 64.9207 96.4978 64.9207C95.9071 64.9207 95.3427 65.0002 94.8168 65.1451C94.2879 65.2971 93.8188 65.4999 93.3948 65.7389C92.9895 65.9769 92.6095 66.2512 92.2802 66.5561C91.9509 66.8611 91.6855 67.166 91.4909 67.4709H91.4251L91.6115 66.071C91.6247 66.0358 91.6247 66.0046 91.6247 65.9639C91.6233 65.7919 91.5533 65.6274 91.43 65.5067C91.3067 65.3859 91.1402 65.3187 90.9671 65.3198H87.5485C87.2161 65.3198 86.939 65.5527 86.8899 65.8758L84.8346 80.4757C84.8027 80.6609 84.8599 80.8516 84.9865 80.991C85.048 81.0616 85.124 81.1184 85.2093 81.1574C85.2947 81.1965 85.3875 81.2169 85.4815 81.2174H89.0962C89.4255 81.2174 89.7031 80.9779 89.7472 80.6558L90.7893 73.292C90.8509 72.7866 90.9485 72.2862 91.0811 71.7945C91.2209 71.3129 91.4154 70.8786 91.6753 70.4937C91.9442 70.1113 92.3023 69.7994 92.719 69.5844C93.143 69.3539 93.679 69.2392 94.3178 69.2392C94.9435 69.2392 95.4237 69.3725 95.7297 69.6418C96.0322 69.8934 96.248 70.2386 96.3529 70.6542C96.4653 71.0643 96.4978 71.5207 96.4527 72.0103L96.2916 73.4294L95.3052 80.4832C95.2935 80.5747 95.301 80.6675 95.3273 80.7559C95.3537 80.8442 95.3982 80.9262 95.4582 80.9965C95.5818 81.1384 95.7622 81.222 95.9521 81.222H99.5714C99.7303 81.2226 99.884 81.1661 100.004 81.063C100.125 80.9599 100.203 80.8171 100.226 80.6609L101.365 72.4486C101.517 71.3919 101.583 70.387 101.567 69.4757C101.544 68.5634 101.365 67.7648 101.035 67.083M114.97 65.3801C113.947 65.0747 112.891 64.9252 111.84 64.9252C111.009 64.9252 110.169 65.0269 109.342 65.2347C108.501 65.4375 107.741 65.7641 107.046 66.2034C106.354 66.6311 105.763 67.2022 105.287 67.87C104.812 68.5408 104.5 69.3534 104.366 70.2874V70.2939C104.208 71.2887 104.296 72.0984 104.627 72.6962C104.963 73.3 105.409 73.7559 105.991 74.0881C106.572 74.4101 107.215 74.6617 107.904 74.8207L109.852 75.2852C110.456 75.4246 110.949 75.5931 111.333 75.8075C111.712 76.0153 111.877 76.3268 111.806 76.7309V76.7399C111.745 77.1742 111.469 77.4731 110.991 77.6376C110.509 77.7997 109.978 77.8892 109.409 77.8892C108.665 77.8892 108.024 77.7383 107.514 77.4474C107.169 77.2527 106.855 76.992 106.566 76.679C106.506 76.6153 106.434 76.5639 106.354 76.528C106.274 76.492 106.188 76.4722 106.1 76.4697H106.083C105.911 76.4689 105.746 76.5338 105.621 76.6509L103.152 79.0058C103.028 79.1316 102.952 79.3078 102.952 79.4879C102.956 79.6691 103.033 79.8391 103.167 79.9609C103.775 80.5054 104.486 80.8949 105.346 81.1419C106.44 81.459 107.561 81.62 108.677 81.62C109.528 81.62 110.415 81.5395 111.312 81.3719C112.181 81.2192 113.02 80.9326 113.8 80.5225C114.552 80.1199 115.216 79.583 115.758 78.9133C116.305 78.2591 116.65 77.4037 116.78 76.3801C116.912 75.3813 116.818 74.5787 116.503 73.9799C116.199 73.3918 115.736 72.8997 115.165 72.5588C114.58 72.2007 113.94 71.939 113.271 71.7839L111.343 71.3285C110.752 71.1775 110.257 71.0185 109.861 70.8338C109.467 70.6527 109.304 70.3644 109.368 69.9764V69.9663C109.439 69.4792 109.672 69.1547 110.091 68.9499C110.508 68.7566 110.926 68.6595 111.344 68.6595C112.327 68.6595 113.083 68.9373 113.659 69.515C113.72 69.5773 113.793 69.6268 113.874 69.6605C113.955 69.6942 114.042 69.7115 114.129 69.7112C114.288 69.7108 114.441 69.6551 114.562 69.5537L116.963 67.4604C117.107 67.3371 117.186 67.1585 117.186 66.9773C117.191 66.7931 117.11 66.611 116.976 66.4882C116.419 65.9749 115.761 65.6126 114.967 65.3781M144.304 67.2022C143.76 66.4726 143.036 65.9005 142.165 65.513C141.288 65.1265 140.268 64.9252 139.134 64.9252C137.909 64.9252 136.708 65.1265 135.572 65.513C134.436 65.8994 133.407 66.4721 132.515 67.2022C131.619 67.9268 130.851 68.8115 130.256 69.8355C129.656 70.854 129.255 72.0093 129.083 73.2709C128.907 74.5248 128.978 75.6827 129.298 76.7042C129.614 77.7247 130.123 78.6154 130.818 79.3425C131.513 80.0696 132.389 80.6357 133.408 81.0282C134.421 81.4157 135.575 81.617 136.802 81.617C138.093 81.617 139.398 81.3422 140.679 80.7988C141.716 80.3574 142.655 79.7556 143.463 79.0008C143.53 78.9359 143.583 78.8581 143.618 78.7722C143.654 78.6863 143.672 78.5941 143.67 78.5011C143.667 78.4093 143.644 78.3192 143.603 78.2368C143.563 78.1544 143.505 78.0816 143.433 78.0231L141.356 76.3424C141.239 76.2445 141.09 76.1915 140.937 76.1929C140.775 76.1929 140.614 76.2558 140.477 76.3776C140.098 76.7471 139.678 77.0726 139.225 77.3478C138.624 77.7036 137.905 77.8852 137.098 77.8852C136.137 77.8852 135.351 77.6085 134.776 77.0469C134.198 76.4944 133.874 75.7421 133.807 74.8096H144.71C144.867 74.8093 145.019 74.753 145.137 74.6509C145.256 74.5488 145.333 74.4078 145.356 74.2536L145.508 73.2724V73.2673C145.686 72.0113 145.663 70.856 145.457 69.8375C145.241 68.8125 144.862 67.9274 144.315 67.2032M138.183 68.4628C139.092 68.4628 139.775 68.7496 140.259 69.3474C140.746 69.9387 140.92 70.6326 140.786 71.4719H134.268C134.348 71.0804 134.508 70.6985 134.727 70.3417C134.949 69.9834 135.223 69.6644 135.546 69.3947C135.877 69.1204 136.264 68.8915 136.701 68.7194C137.138 68.5508 137.633 68.4678 138.183 68.4678M160.102 65.037C160.068 65.0319 160.019 65.0319 159.987 65.0279L159.124 64.9927C158.038 64.9927 157.082 65.2443 156.298 65.7274C155.505 66.217 154.778 66.9652 154.117 67.9414H154.055L154.305 66.15C154.312 66.1098 154.312 66.0796 154.312 66.0393C154.312 65.9534 154.295 65.8684 154.262 65.789C154.229 65.7096 154.18 65.6375 154.119 65.5768C154.058 65.516 153.986 65.4678 153.906 65.435C153.826 65.4021 153.74 65.3852 153.654 65.3852H150.047C149.717 65.3852 149.436 65.6242 149.388 65.9473L147.331 80.5512C147.303 80.7374 147.358 80.9215 147.486 81.073C147.611 81.2089 147.79 81.2929 147.979 81.2929H151.6C151.758 81.2924 151.911 81.2347 152.03 81.1305C152.149 81.0264 152.225 80.8829 152.246 80.7268L153.094 74.6501C153.196 73.8677 153.355 73.1375 153.533 72.4884C153.727 71.8382 153.992 71.2691 154.345 70.8077C154.7 70.3362 155.171 69.9688 155.761 69.7042C156.351 69.4435 157.13 69.3157 158.061 69.3157C158.433 69.3157 158.796 69.3419 159.125 69.3987L159.463 69.4566C159.513 69.4747 159.555 69.4792 159.6 69.4792C159.736 69.4792 159.87 69.4289 159.974 69.3585C160.127 69.2538 160.224 69.0892 160.251 68.9086L160.691 65.7787C160.714 65.6026 160.666 65.4249 160.558 65.2835C160.446 65.1477 160.284 65.0596 160.103 65.0319M193.068 58.0163C191.804 56.8876 190.297 56.0578 188.578 55.5506C186.541 54.9452 184.22 54.6348 181.7 54.6348C179.229 54.6348 176.859 55.0253 174.658 55.7936C172.459 56.5585 170.475 57.6806 168.767 59.1087C167.044 60.5449 165.609 62.3041 164.459 64.342C163.316 66.379 162.551 68.6862 162.195 71.2027C161.843 73.7127 161.945 76.0183 162.512 78.0573C163.071 80.0953 164.021 81.86 165.333 83.2936C166.64 84.7212 168.312 85.8449 170.289 86.6133C172.265 87.3751 174.527 87.7686 176.99 87.7686C179.326 87.7676 181.656 87.5271 183.943 87.051C186.08 86.6183 188.231 85.9078 190.318 84.9467C190.593 84.8183 190.774 84.5672 190.827 84.2623L192.951 69.2744C192.991 69.0228 192.908 68.7561 192.739 68.5679C192.566 68.3666 192.323 68.2569 192.063 68.2569H181.448C181.233 68.2575 181.025 68.3343 180.862 68.4737C180.699 68.613 180.591 68.8056 180.559 69.0168L179.88 73.6573C179.84 73.915 179.919 74.1706 180.091 74.3698C180.174 74.4649 180.277 74.541 180.393 74.5927C180.509 74.6445 180.635 74.6708 180.762 74.6698H185.423L184.713 79.8024C184.024 80.1557 183.092 80.5054 181.935 80.844C180.773 81.1877 179.41 81.3573 177.894 81.3573C176.401 81.3573 175.076 81.1057 173.95 80.6065C172.814 80.0933 171.877 79.3923 171.145 78.486C170.416 77.5863 169.895 76.5054 169.6 75.2776C169.3 74.0574 169.256 72.6796 169.463 71.2007C169.667 69.7555 170.101 68.3898 170.747 67.1514C171.382 65.911 172.204 64.8236 173.187 63.9209C174.171 63.0181 175.315 62.3066 176.597 61.8044C177.875 61.2987 179.275 61.0476 180.765 61.0476C182.55 61.0476 184.028 61.2992 185.16 61.8039C186.028 62.1913 186.819 62.7302 187.496 63.395C187.664 63.5661 187.901 63.6537 188.122 63.6537C188.342 63.6537 188.563 63.5716 188.73 63.4121L193.089 59.3191C193.179 59.2346 193.251 59.1323 193.299 59.0188C193.347 58.9053 193.371 58.7831 193.369 58.6599C193.366 58.4168 193.252 58.1844 193.071 58.0143M215.414 71.166C215.032 69.9412 214.416 68.8764 213.576 67.9933C212.721 67.1192 211.67 66.4333 210.441 65.9679C209.195 65.4908 207.819 65.2634 206.348 65.2634C204.872 65.2634 203.434 65.4959 202.063 65.9679C200.693 66.4379 199.454 67.1192 198.372 67.9933C197.297 68.8719 196.379 69.9407 195.654 71.166C194.929 72.3988 194.458 73.7907 194.242 75.3073C194.029 76.8235 194.12 78.2158 194.495 79.4487C194.879 80.6735 195.493 81.7443 196.322 82.6188C197.151 83.4934 198.2 84.1752 199.438 84.6417C200.672 85.1157 202.051 85.3542 203.523 85.3542C205.002 85.3542 206.44 85.1157 207.809 84.6417C209.18 84.1752 210.421 83.4944 211.508 82.6138C212.588 81.7397 213.511 80.6689 214.245 79.4446C214.984 78.2108 215.461 76.8179 215.674 75.3033C215.885 73.7856 215.803 72.3948 215.415 71.1609M209.723 75.3023C209.512 76.7435 208.917 77.9189 207.95 78.8081C206.988 79.7008 205.742 80.1506 204.242 80.1506C202.741 80.1506 201.623 79.7008 200.928 78.8071C200.229 77.924 199.986 76.7429 200.192 75.3023C200.407 73.8616 200.991 72.6856 201.939 71.7924C202.888 70.9088 204.133 70.458 205.63 70.458C207.127 70.458 208.252 70.9088 208.963 71.7924C209.676 72.6861 209.923 73.8616 209.723 75.3023ZM130.531 56.5137C130.43 56.3628 130.277 56.2697 130.105 56.239C129.87 56.1987 129.627 56.1736 129.378 56.1504C128.898 56.1016 128.398 56.083 127.897 56.083C126.566 56.083 125.445 56.2526 124.591 56.5927C123.722 56.9248 123.02 57.3968 122.493 57.9816C121.962 58.5734 121.564 59.2707 121.324 60.0271C121.071 60.793 120.882 61.6232 120.751 62.4988L120.746 62.5018L120.483 64.3773C120.23 66.2311 122.837 67.0166 122.837 67.0166C122.837 67.0166 120.01 67.7543 119.767 69.4556L118.216 80.4757C118.194 80.6619 118.246 80.8516 118.371 80.991C118.432 81.0619 118.508 81.1189 118.594 81.158C118.68 81.1971 118.773 81.2173 118.867 81.2174H122.478C122.81 81.2174 123.092 80.9779 123.137 80.6564L124.736 69.2397H127.824C128.148 69.2397 128.423 69.0017 128.47 68.6837L128.852 66.0534C128.863 65.961 128.854 65.8674 128.826 65.7786C128.798 65.6898 128.751 65.6077 128.69 65.5376C128.566 65.3952 128.384 65.3203 128.193 65.3203H125.293L125.659 62.7907C125.811 61.7531 126.111 61.0536 126.547 60.7139C126.985 60.3808 127.609 60.2107 128.391 60.2107C128.696 60.2107 128.966 60.2399 129.198 60.2933C129.224 60.2983 129.246 60.3064 129.281 60.3159C129.331 60.3275 129.382 60.3335 129.436 60.3335C129.56 60.3334 129.683 60.2999 129.79 60.2364C129.942 60.1383 130.048 59.9845 130.086 59.8087L130.636 57.0174C130.671 56.8413 130.636 56.6632 130.532 56.5142" fill="white"/>
</g>
</svg>
