<svg width="280" height="140" viewBox="0 0 280 140" fill="none" xmlns="http://www.w3.org/2000/svg">
<g clip-path="url(#clip0_1833_12257)">
<path d="M96.8967 104.923C93.8753 104.923 90.8667 104.923 87.8454 104.923C87.8454 104.552 87.9729 104.22 88.1131 103.875C88.725 102.278 89.3497 100.669 89.9361 99.0588C90.701 97.0148 91.4277 94.958 92.1926 92.9012C92.9447 90.8955 93.7351 88.9026 94.4745 86.8969C95.2904 84.6612 96.0808 82.4256 96.9732 80.2283C97.2281 79.6023 97.1007 79.4234 96.425 79.4362C94.1941 79.4873 91.9631 79.5001 89.7449 79.4234C89.0692 79.3979 88.7888 79.5895 88.572 80.241C88.3426 80.9309 88.1131 81.608 87.8581 82.2851C87.0932 84.3035 86.3029 86.322 85.5507 88.3405C84.6201 90.8189 83.7404 93.3228 82.8226 95.8012C81.8919 98.2796 80.9103 100.745 80.0052 103.236C79.8012 103.786 79.4698 104.309 79.457 104.91C76.4867 104.91 73.5036 104.91 70.5332 104.91C70.7882 103.543 71.4383 102.317 71.8973 101.013C72.4454 99.4549 73.0701 97.9219 73.6565 96.3633C74.2557 94.7536 74.8549 93.144 75.454 91.5343C76.0405 89.9629 76.6396 88.4044 77.2261 86.833C77.8125 85.2617 78.3862 83.6903 78.9853 82.119C79.7375 80.1133 80.5151 78.1204 81.2673 76.1147C82.0322 74.0706 82.7716 72.0138 83.5365 69.957C84.4671 67.4787 85.436 65.0003 86.3666 62.5219C87.2972 60.0435 88.1896 57.5396 89.133 55.0612C90.0636 52.5828 91.0197 50.1044 91.9631 47.6261C93.3527 43.9851 95.9661 41.6473 99.6248 40.4336C99.8543 40.357 100.568 40.0121 101.652 40.0121C106.534 40.0121 107.223 40.0121 112.105 40.0121C113.495 39.9993 115.025 40.3442 115.229 40.4209C117.345 41.2385 118.365 42.9887 118.48 45.0966C118.543 46.3358 118.135 47.4728 117.689 48.6097C117.09 50.1939 116.529 51.8035 115.943 53.4004C115.318 55.1123 114.668 56.8114 114.03 58.5233C113.457 60.0691 112.883 61.6276 112.309 63.1862C111.71 64.8214 111.098 66.4439 110.486 68.0791C109.874 69.7271 109.25 71.3751 108.638 73.0231C108.23 74.1345 107.822 75.2587 107.401 76.3702C106.828 77.9415 106.254 79.5129 105.668 81.0842C105.068 82.6939 104.456 84.3035 103.857 85.9132C103.271 87.5101 102.697 89.107 102.111 90.6911C101.346 92.7351 100.581 94.7792 99.8161 96.8232C99.1914 98.5095 98.5412 100.196 97.9421 101.895C97.5596 102.917 97.0752 103.862 96.8967 104.923ZM91.8611 71.95C92.0013 72.0011 92.0906 72.0649 92.1926 72.0649C94.6147 72.0777 97.0369 72.0777 99.4591 72.0777C99.7906 72.0777 100.02 71.9116 100.135 71.5923C100.823 69.7271 101.524 67.8491 102.225 65.984C102.812 64.4126 103.398 62.8413 103.985 61.2699C104.597 59.6219 105.209 57.9739 105.82 56.3132C106.228 55.2017 106.649 54.0775 107.07 52.9661C107.656 51.3947 108.268 49.8362 108.842 48.2648C109.11 47.5366 108.931 47.3322 108.166 47.3322C106.024 47.3322 103.87 47.345 101.728 47.3195C101.155 47.3067 100.836 47.5239 100.632 48.0604C99.6503 50.756 98.6432 53.4388 97.6361 56.1215C96.6927 58.6255 95.7366 61.1166 94.7932 63.6206C93.9136 65.9456 93.0467 68.2707 92.1926 70.6086C92.0268 71.0174 91.8101 71.4262 91.8611 71.95Z" fill="black"/>
<path d="M55.4646 40.0254C61.928 40.0254 66.6831 40.0254 73.1465 40.0254C74.0134 40.0254 75.1098 40.3448 75.3265 40.4214C77.7486 41.2774 78.845 43.7302 78.4626 46.1064C78.0674 48.572 76.8818 50.7565 76.0914 53.0816C75.403 55.1129 74.5616 57.0802 73.8094 59.0859C73.0445 61.1299 72.3051 63.1868 71.5402 65.2308C70.7371 67.377 69.9212 69.5232 69.0926 71.6439C68.6209 72.832 68.0472 73.9562 67.2058 74.9527C66.0585 76.3324 64.6561 77.38 63.1264 78.2742C62.8204 78.4531 62.6292 78.683 62.5782 79.0663C62.3742 80.5226 62.132 81.9662 61.8898 83.4098C61.2906 86.8208 60.6787 90.2318 60.0795 93.6427C59.5441 96.7215 59.0214 99.8004 58.5115 102.879C58.3967 103.543 58.3457 104.233 58.2692 104.898C55.2097 104.898 52.1501 104.898 49.0905 104.898C49.116 104.642 49.116 104.387 49.1542 104.131C49.4602 102.483 49.7916 100.835 50.0848 99.1871C50.6713 95.9678 51.2067 92.7357 51.8441 89.5291C52.0736 88.3666 52.2648 87.1913 52.507 86.016C52.915 84.023 53.2847 82.0173 53.6671 80.0116C53.7436 79.6028 53.5779 79.3984 53.1572 79.3984C52.0481 79.4112 50.9517 79.4367 49.8426 79.4495C49.4857 79.4495 49.3199 79.6284 49.2052 79.9605C48.9885 80.5993 48.708 81.2253 48.4658 81.864C47.8539 83.4737 47.2547 85.0834 46.6428 86.693C46.0564 88.2388 45.47 89.7846 44.8835 91.3304C44.2971 92.8634 43.7107 94.3837 43.137 95.9039C42.5633 97.4369 42.0279 98.9827 41.4287 100.503C40.8551 101.959 40.2559 103.416 39.7715 104.91C36.8011 104.91 33.818 104.91 30.8477 104.91C30.8477 104.655 30.8477 104.399 30.8477 104.144C31.0261 104.106 31.1664 104.016 31.2174 103.825C31.5106 102.777 31.9823 101.806 32.352 100.784C32.7344 99.7237 33.1296 98.6761 33.5375 97.6286C34.1495 96.0445 34.7741 94.4731 35.3733 92.889C35.9725 91.3304 36.5589 89.7591 37.1453 88.1877C37.9102 86.182 38.6879 84.1891 39.44 82.1834C40.0264 80.6376 40.6001 79.079 41.1865 77.5332C41.9769 75.4764 42.7673 73.4197 43.5577 71.3501C44.1314 69.8426 44.6923 68.3351 45.266 66.8277C46.0691 64.7325 46.8723 62.6246 47.6754 60.5295C48.4148 58.5877 49.1415 56.6331 49.8809 54.6913C50.6713 52.6345 51.4617 50.5777 52.2521 48.5209C52.864 46.9368 53.5014 45.3654 54.0751 43.7685C54.5467 42.5421 55.1204 41.3285 55.4646 40.0254ZM56.102 72.3338C57.0964 72.3338 58.1035 72.3082 59.0979 72.3465C59.6716 72.3593 60.0413 72.1294 60.2325 71.6184C60.8189 70.0726 61.3926 68.514 61.9663 66.9682C62.5399 65.4352 63.1136 63.9149 63.6873 62.3819C64.2864 60.8106 64.8856 59.252 65.472 57.6807C66.0585 56.1093 66.6449 54.538 67.2441 52.9666C67.8305 51.4464 68.4296 49.9261 69.0033 48.3931C69.2455 47.7671 69.0288 47.5244 68.3787 47.5244C66.3134 47.5372 64.2609 47.5372 62.1957 47.5116C61.7878 47.5116 61.5711 47.6522 61.3798 47.9843C61.0994 48.4953 60.9591 49.0574 60.7552 49.5812C60.156 51.127 59.5568 52.66 58.9704 54.2058C58.3712 55.7772 57.8103 57.3485 57.2111 58.9198C56.459 60.9 55.6558 62.8674 54.9164 64.8603C54.1006 67.0448 53.3102 69.2422 52.4178 71.4012C52.1501 72.0527 52.303 72.321 53.0169 72.321C54.0623 72.3338 55.0822 72.3338 56.102 72.3338Z" fill="black"/>
<path d="M214.756 40.0254C216.439 40.0254 217.127 40.3448 217.344 40.4214C219.601 41.2518 220.799 43.4236 220.659 45.7614C220.595 46.8729 220.212 47.8821 219.856 48.8913C219.295 50.5393 218.683 52.1746 218.096 53.8098C217.459 55.5855 216.821 57.3613 216.184 59.1498C215.598 60.8106 215.037 62.4713 214.438 64.1321C213.673 66.2656 212.895 68.399 212.13 70.5325C211.556 72.1549 210.995 73.7774 210.422 75.3998C209.988 76.639 209.529 77.8782 209.096 79.1174C208.688 80.2799 208.28 81.4424 207.859 82.5922C207.26 84.2785 206.674 85.9521 206.075 87.6384C205.667 88.8009 205.246 89.9507 204.825 91.1132C204.188 92.889 203.538 94.6647 202.926 96.4533C202.607 97.3603 202.314 98.2546 201.817 99.0849C200.21 101.768 197.967 103.633 194.958 104.527C194.729 104.591 193.53 104.923 191.338 104.923C184.543 104.923 180.82 104.923 174.025 104.923C174.076 104.476 174.242 104.067 174.395 103.646C174.982 102.1 175.542 100.541 176.103 98.9827C176.69 97.322 177.263 95.6612 177.85 94.0004C178.628 91.8287 179.431 89.6569 180.221 87.4851C180.807 85.8499 181.394 84.2147 181.98 82.5667C182.58 80.9059 183.191 79.2579 183.791 77.5971C184.39 75.9364 184.963 74.2756 185.563 72.6148C186.315 70.5325 187.08 68.4757 187.832 66.3933C188.431 64.7325 188.992 63.0718 189.591 61.411C190.216 59.648 190.866 57.8978 191.503 56.1476C192.064 54.5891 192.612 53.0305 193.186 51.4719C193.811 49.7345 194.448 47.9971 195.073 46.2724C195.506 45.0716 195.991 43.8963 196.373 42.6826C196.654 41.7884 197.113 40.958 197.24 40.0254C203.78 40.0254 208.216 40.0254 214.756 40.0254ZM189.68 97.6158C190.7 97.6158 191.72 97.5902 192.74 97.6286C193.352 97.6413 193.709 97.3731 193.9 96.8365C194.295 95.7123 194.678 94.5881 195.073 93.4639C195.672 91.8031 196.271 90.1551 196.87 88.4943C197.444 86.8974 198.005 85.3005 198.579 83.6909C199.165 82.0301 199.739 80.3693 200.338 78.7086C200.924 77.0733 201.536 75.4381 202.11 73.8029C202.709 72.1294 203.283 70.4303 203.882 68.7567C204.647 66.6233 205.437 64.4898 206.202 62.3564C206.967 60.1974 207.719 58.0256 208.484 55.8666C209.402 53.3116 210.345 50.7693 211.276 48.2143C211.493 47.6266 211.301 47.3328 210.702 47.3328C208.573 47.32 206.457 47.3328 204.328 47.3328C203.767 47.3328 203.436 47.5883 203.27 48.1376C202.913 49.2746 202.505 50.386 202.097 51.5103C201.332 53.6309 200.542 55.7261 199.79 57.8467C199.178 59.5458 198.604 61.2577 198.005 62.9568C197.202 65.1925 196.386 67.4281 195.583 69.6638C195.009 71.2351 194.448 72.8192 193.887 74.4033C193.275 76.1024 192.663 77.7888 192.051 79.4879C191.631 80.6504 191.236 81.8129 190.815 82.9627C190.203 84.6618 189.591 86.3609 188.979 88.0472C188.558 89.2225 188.138 90.3978 187.717 91.5859C187.105 93.3106 186.468 95.0224 185.894 96.7471C185.665 97.4242 185.818 97.603 186.531 97.6158C187.551 97.6286 188.609 97.6158 189.68 97.6158Z" fill="black"/>
<path d="M152.109 40.0256C153.32 40.0383 154.098 40.3705 154.315 40.4471C156.074 41.022 157.514 43.0149 157.502 45.0717C157.502 46.477 157.119 47.7545 156.66 49.032C156.036 50.7439 155.411 52.4558 154.786 54.1676C154.187 55.8029 153.588 57.4381 152.989 59.0733C152.415 60.6319 151.854 62.1777 151.281 63.7362C150.49 65.8825 149.7 68.0415 148.922 70.1877C148.323 71.8229 147.736 73.4581 147.15 75.0934C146.423 77.1374 145.722 79.1814 144.18 80.8039C142.816 82.2474 141.235 83.3461 139.386 84.0743C138.035 84.6109 136.633 84.7258 135.205 84.7258C132.872 84.7258 130.526 84.7386 128.193 84.7131C127.645 84.7131 127.314 84.9047 127.135 85.4029C126.498 87.1531 125.848 88.9033 125.197 90.6535C124.458 92.6592 123.719 94.6777 122.967 96.6834C122.367 98.3186 121.768 99.9538 121.156 101.576C120.876 102.304 120.595 103.033 120.328 103.786C120.162 104.131 120.073 104.412 119.869 104.898C116.847 104.898 114.068 104.898 111.047 104.898C111.238 104.31 111.417 103.722 111.633 103.148C112.232 101.512 112.844 99.8899 113.444 98.2547C114.03 96.6578 114.604 95.0609 115.19 93.4768C115.789 91.8671 116.401 90.2575 116.988 88.6478C117.574 87.0509 118.148 85.454 118.734 83.8699C119.346 82.1963 119.971 80.5356 120.583 78.862C121.156 77.2907 121.73 75.7193 122.316 74.148C123.107 72.0145 123.897 69.8939 124.675 67.7604C125.248 66.2146 125.822 64.6561 126.396 63.1103C126.995 61.475 127.594 59.8526 128.193 58.2174C128.78 56.6205 129.366 55.0364 129.953 53.4395C130.552 51.8042 131.164 50.1818 131.763 48.5466C132.375 46.8986 132.987 45.2506 133.599 43.5898C134.032 42.4017 134.453 41.2009 134.873 40C141.222 40.0256 145.786 40.0256 152.109 40.0256ZM144.613 47.5118C144.613 47.5246 144.613 47.5246 144.613 47.5373C143.746 47.5373 142.867 47.614 142 47.5118C141.299 47.4351 140.954 47.6906 140.738 48.2783C140.33 49.377 139.935 50.4629 139.539 51.5615C138.927 53.2351 138.328 54.9086 137.716 56.5822C137.143 58.1279 136.556 59.6865 135.983 61.2323C135.358 62.9442 134.733 64.6561 134.109 66.3679C133.344 68.463 132.592 70.5582 131.814 72.6405C131.393 73.7903 130.96 74.9528 130.501 76.0898C130.22 76.7925 130.373 77.0607 131.164 77.0607C132.974 77.0607 134.771 77.0607 136.582 77.0607C137.41 77.0607 137.627 76.8691 137.908 76.0643C138.481 74.4163 139.08 72.7938 139.667 71.1586C140.253 69.5489 140.865 67.9393 141.464 66.3296C142.089 64.6433 142.701 62.9442 143.313 61.2451C143.899 59.6354 144.486 58.013 145.072 56.4033C145.684 54.7553 146.296 53.1073 146.908 51.4465C147.303 50.399 147.711 49.3386 148.081 48.2783C148.272 47.729 148.042 47.4735 147.482 47.4862C146.513 47.5118 145.557 47.5118 144.613 47.5118Z" fill="black"/>
<path d="M182.31 40.0245C181.915 41.1615 181.519 42.3112 181.111 43.4482C180.5 45.1601 179.875 46.8848 179.25 48.5966C178.651 50.2574 178.039 51.9054 177.44 53.5534C176.879 55.112 176.318 56.6705 175.757 58.2163C175.133 59.9537 174.495 61.6784 173.858 63.4158C173.284 64.9872 172.736 66.5713 172.162 68.1554C171.372 70.3527 170.556 72.5373 169.753 74.7218C169.179 76.2932 168.644 77.8901 168.083 79.4614C167.509 81.0838 166.923 82.6935 166.323 84.3032C165.724 85.9384 165.138 87.5736 164.539 89.2089C163.901 90.959 163.264 92.722 162.626 94.4722C161.887 96.5035 161.16 98.5475 160.434 100.579C159.988 101.818 159.529 103.044 159.07 104.284C158.993 104.488 158.955 104.692 158.98 104.91C156.01 104.91 153.027 104.91 150.057 104.91C150.095 103.951 150.605 103.134 150.898 102.252C151.637 100.042 152.466 97.8576 153.256 95.6603C153.996 93.6291 154.748 91.5978 155.487 89.5666C156.278 87.3948 157.055 85.2102 157.846 83.0384C158.42 81.4416 159.019 79.8574 159.605 78.2605C160.204 76.6253 160.791 74.9901 161.39 73.3549C162.168 71.2214 162.958 69.088 163.736 66.9673C164.296 65.4343 164.845 63.9013 165.406 62.3555C166.043 60.6053 166.693 58.8551 167.318 57.0921C167.892 55.4952 168.452 53.8983 169.039 52.3014C169.651 50.6279 170.275 48.9543 170.887 47.2808C171.461 45.6839 172.035 44.087 172.596 42.4901C172.876 41.6725 173.284 40.8932 173.399 40.0117C176.369 40.0245 179.339 40.0245 182.31 40.0245Z" fill="black"/>
<path d="M208.443 104.923C208.456 104.348 208.737 103.863 208.915 103.352C209.897 100.656 210.917 97.9863 211.924 95.3035C212.944 92.5824 213.963 89.8613 214.983 87.1402C216.016 84.4063 217.036 81.6596 218.081 78.9258C219.19 75.9875 220.325 73.062 221.421 70.1237C222.008 68.5779 222.543 67.0193 223.104 65.4607C223.142 65.333 223.193 65.218 223.346 65.1797C223.69 65.2947 223.614 65.614 223.614 65.8695C223.627 66.5977 223.601 67.3131 223.601 68.0413C223.601 80.3438 223.601 92.6335 223.601 104.936C218.566 104.923 213.504 104.923 208.443 104.923Z" fill="#CCCCCC"/>
<path d="M249.112 72.8566C248.615 72.9588 248.105 72.9844 247.595 72.9844C242.623 72.9844 237.664 72.9844 232.692 72.9716C232.246 72.9716 231.673 73.0993 231.545 72.4606C231.418 71.7707 232.004 71.7196 232.463 71.5663C235.841 70.4677 239.232 69.3434 242.611 68.2448C243.35 68.0021 244.115 67.8104 244.867 67.606C245.02 67.5677 245.211 67.5805 245.288 67.325C245.007 67.0439 244.638 67.1206 244.293 67.1333C240.431 67.21 236.568 67.2483 232.705 67.2228C232.45 67.2228 232.195 67.2228 231.94 67.1717C231.698 67.1206 231.52 66.9673 231.52 66.6862C231.52 66.4179 231.673 66.2391 231.915 66.1752C232.119 66.1241 232.335 66.1113 232.539 66.1113C237.613 66.1113 242.687 66.1113 247.761 66.1113C248.207 66.1113 248.653 66.1752 249.087 66.2135C249.087 66.5585 249.087 66.8906 249.087 67.2355C247.2 67.8615 245.313 68.5131 243.426 69.1135C241.068 69.8672 238.697 70.5826 236.338 71.3236C235.994 71.4386 235.675 71.6174 235.306 71.9624C235.994 71.9624 236.542 71.9496 237.091 71.9624C241.094 72.0262 245.096 71.6557 249.099 71.9624C249.112 72.269 249.112 72.5628 249.112 72.8566Z" fill="black"/>
<path d="M249.11 51.9073C249.085 52.5843 248.804 53.0315 248.741 53.1976C248.307 54.2962 247.351 54.59 246.331 54.6411C245.082 54.705 243.833 54.6922 242.57 54.6411C241.602 54.6156 240.747 54.2579 240.225 53.4403C239.906 53.402 239.74 53.5553 239.613 53.7213C239.052 54.4495 238.262 54.6411 237.407 54.6539C235.75 54.6795 234.093 54.6667 232.436 54.6667C232.028 54.6667 231.543 54.6667 231.543 54.1046C231.53 53.4914 232.053 53.5169 232.474 53.5169C234.029 53.5042 235.572 53.5169 237.127 53.5169C238.771 53.5169 239.409 52.8782 239.422 51.2557C239.422 50.8469 239.434 50.4509 239.409 50.0421C239.383 49.6461 239.179 49.4672 238.733 49.48C236.63 49.5183 234.526 49.5183 232.436 49.5183C232.002 49.5183 231.569 49.4289 231.569 48.8923C231.569 48.3685 232.002 48.2791 232.448 48.2791C237.624 48.2791 242.8 48.2791 247.989 48.2791C248.371 48.2791 248.753 48.2663 249.123 48.2791C249.11 49.8249 249.11 50.4253 249.11 51.9073ZM244.113 53.5425C244.967 53.5425 245.566 53.5425 246.153 53.5425C246.216 53.5425 246.28 53.5425 246.344 53.5297C247.402 53.4147 247.938 52.8398 247.989 51.7795C248.001 51.2941 248.014 50.7958 248.027 50.3104C248.039 49.6588 247.899 49.5311 247.262 49.5311C245.222 49.5311 243.182 49.5439 241.143 49.5055C240.696 49.4928 240.493 49.6716 240.48 50.0676C240.454 50.7319 240.403 51.3963 240.556 52.035C240.722 52.7121 241.104 53.2103 241.831 53.402C242.685 53.6447 243.527 53.5042 244.113 53.5425Z" fill="black"/>
<path d="M249.11 102.23C249.085 102.907 248.804 103.354 248.741 103.52C248.307 104.618 247.351 104.912 246.331 104.963C245.082 105.027 243.833 105.015 242.57 104.963C241.602 104.938 240.747 104.58 240.225 103.763C239.906 103.724 239.74 103.878 239.613 104.044C239.052 104.772 238.262 104.963 237.407 104.976C235.75 105.002 234.093 104.989 232.436 104.989C232.028 104.989 231.543 104.989 231.543 104.427C231.53 103.814 232.053 103.839 232.474 103.839C234.029 103.826 235.572 103.839 237.127 103.839C238.771 103.839 239.409 103.2 239.422 101.578C239.422 101.169 239.434 100.773 239.409 100.364C239.383 99.9683 239.179 99.7895 238.733 99.8022C236.63 99.8406 234.526 99.8406 232.436 99.8406C232.002 99.8406 231.569 99.7511 231.569 99.2146C231.569 98.6908 232.002 98.6014 232.448 98.6014C237.624 98.6014 242.8 98.6014 247.989 98.6014C248.371 98.6014 248.753 98.5886 249.123 98.6014C249.11 100.134 249.11 100.748 249.11 102.23ZM244.113 103.852C244.967 103.852 245.566 103.852 246.153 103.852C246.216 103.852 246.28 103.852 246.344 103.839C247.402 103.724 247.938 103.149 247.989 102.089C248.001 101.604 248.014 101.105 248.027 100.62C248.039 99.9683 247.899 99.8406 247.262 99.8406C245.222 99.8406 243.182 99.8533 241.143 99.815C240.696 99.8022 240.493 99.9811 240.48 100.377C240.454 101.041 240.403 101.706 240.556 102.345C240.722 103.022 241.104 103.52 241.831 103.711C242.685 103.954 243.527 103.814 244.113 103.852Z" fill="black"/>
<path d="M249.112 79.501C249.099 79.9353 248.806 80.408 248.717 80.5613C248.22 81.4811 247.327 81.6983 246.397 81.7749C245.632 81.8388 244.867 81.7877 244.102 81.8005C243.694 81.8005 243.375 81.66 243.375 81.1873C243.375 80.7274 243.719 80.6507 244.089 80.638C244.765 80.6252 245.453 80.6507 246.129 80.638C247.544 80.6124 248.092 80.0503 248.105 78.6578C248.118 76.9715 247.595 76.4477 245.912 76.4349C242.878 76.4222 242.853 76.4349 241.068 78.875C240.596 79.5265 240.099 80.1653 239.551 80.7657C238.875 81.4811 238.046 81.7877 237.103 81.8005C236.109 81.826 235.102 81.826 234.107 81.8005C232.488 81.7749 231.494 80.804 231.405 79.1816C231.366 78.479 231.354 77.7891 231.583 77.0992C231.953 75.9495 232.781 75.4129 233.903 75.3235C234.961 75.2468 236.032 75.2979 237.09 75.2979C237.473 75.2979 237.855 75.3874 237.842 75.8728C237.83 76.3583 237.435 76.4222 237.065 76.4222C236.134 76.4349 235.191 76.4222 234.26 76.4222C233.189 76.4349 232.514 77.0737 232.45 78.1468C232.424 78.4662 232.424 78.7856 232.463 79.1049C232.552 79.9864 233.049 80.5102 233.916 80.638C235.051 80.804 236.198 80.7913 237.345 80.6252C238.046 80.523 238.556 80.1653 238.977 79.6159C239.691 78.6834 240.418 77.7763 241.119 76.8437C241.909 75.7834 242.967 75.3107 244.255 75.2979C244.982 75.2852 245.695 75.2724 246.422 75.3107C247.365 75.3618 248.232 75.6045 248.755 76.4988C248.844 76.6521 249.099 76.9843 249.15 77.4825C249.15 78.5939 249.15 78.134 249.112 79.501Z" fill="black"/>
<path d="M249.111 60.9785C246.613 61.4512 244.114 61.9239 241.615 62.3838C240.341 62.6137 239.066 62.8309 237.791 63.0608C236.274 63.3419 234.757 63.6357 233.227 63.9168C232.908 63.9807 232.602 64.0318 232.284 64.0573C231.965 64.0829 231.595 64.0956 231.544 63.6613C231.493 63.2142 231.825 63.0864 232.182 63.0225C232.896 62.882 233.597 62.767 234.311 62.6265C235.241 62.4476 235.241 62.4476 235.241 61.5278C235.241 60.723 235.229 59.9054 235.254 59.1005C235.267 58.6023 235.05 58.3724 234.566 58.2957C233.788 58.1935 233.023 58.0402 232.245 57.9125C231.85 57.8486 231.506 57.6825 231.57 57.2354C231.634 56.7371 232.041 56.7627 232.411 56.8393C235.19 57.3376 237.957 57.8486 240.736 58.3596C243.324 58.8323 245.924 59.2411 248.487 59.8032C248.691 59.8415 248.907 59.8287 249.124 59.8415C249.111 60.212 249.111 60.5952 249.111 60.9785ZM245.682 60.4292C245.555 60.1353 245.312 60.1353 245.083 60.097C242.393 59.6499 239.69 59.2028 237.001 58.7428C236.554 58.6662 236.312 58.8323 236.299 59.2411C236.261 60.0715 236.261 60.9018 236.299 61.7322C236.312 62.1027 236.554 62.2688 236.962 62.1921C239.512 61.745 242.062 61.3107 244.599 60.8635C244.981 60.7741 245.402 60.7741 245.682 60.4292Z" fill="black"/>
<path d="M249.111 96.3648C248.015 96.3137 247.989 96.3009 247.989 95.1767C247.989 94.4485 247.976 93.7331 247.989 93.0049C248.002 92.4428 247.747 92.2639 247.212 92.2767C245.363 92.2895 243.515 92.3023 241.679 92.2767C241.143 92.2767 240.965 92.5194 240.965 93.0049C240.965 93.8353 240.965 94.6657 240.965 95.4961C240.965 95.8793 240.927 96.2498 240.417 96.237C239.945 96.2242 239.92 95.8665 239.92 95.5088C239.92 94.6784 239.92 93.8481 239.92 93.0177C239.92 92.4939 239.716 92.2639 239.155 92.2639C237.268 92.2895 235.381 92.2639 233.494 92.2767C232.704 92.2767 232.564 92.43 232.551 93.2093C232.551 93.9758 232.551 94.7423 232.551 95.5088C232.551 95.8921 232.564 96.352 232.016 96.3392C231.518 96.3264 231.518 95.9049 231.506 95.5344C231.506 94.3591 231.493 93.1965 231.506 92.0212C231.518 91.293 231.684 91.127 232.424 91.127C237.599 91.127 242.775 91.127 247.964 91.127C248.346 91.127 248.729 91.1908 249.098 91.2292C249.111 92.9666 249.111 94.6657 249.111 96.3648Z" fill="black"/>
<path d="M249.11 89.2086C248.014 89.1575 247.988 89.1447 247.988 88.0205C247.988 87.3562 247.976 86.7047 248.001 86.0404C248.027 85.4783 247.835 85.2228 247.236 85.2228C245.388 85.2483 243.539 85.2483 241.691 85.2228C241.143 85.21 240.964 85.4783 240.964 85.951C240.951 86.743 240.964 87.5223 240.964 88.3144C240.964 88.6976 240.951 89.0809 240.429 89.0809C239.906 89.0809 239.906 88.6848 239.906 88.3016C239.906 87.5351 239.906 86.7686 239.906 86.0021C239.906 85.4527 239.677 85.21 239.09 85.2228C236.923 85.2483 234.756 85.2355 232.589 85.2355C232.155 85.2355 231.569 85.325 231.543 84.699C231.53 84.0219 232.142 84.1113 232.589 84.1113C237.662 84.1113 242.749 84.1113 247.823 84.1113C248.256 84.1113 248.664 84.1624 249.085 84.2391C249.11 85.8871 249.11 87.5478 249.11 89.2086Z" fill="black"/>
<path d="M249.111 46.7962C248.028 46.7834 247.977 46.7451 248.002 45.6209C248.028 43.8324 248.283 43.9857 246.332 43.9857C241.781 43.9857 237.243 43.9857 232.691 43.9857C232.436 43.9857 232.181 43.9729 231.939 43.9218C231.697 43.8707 231.531 43.6791 231.531 43.4108C231.531 43.117 231.697 42.9254 231.977 42.8743C232.181 42.8359 232.398 42.8359 232.615 42.8359C237.421 42.8359 242.214 42.8359 247.02 42.8359C247.964 42.8359 248.04 42.7593 248.015 41.8139C247.989 41.2135 247.989 40.6258 247.977 40.0254C248.359 40.0254 248.741 40.0254 249.124 40.0254C249.111 42.2866 249.111 44.5478 249.111 46.7962Z" fill="black"/>
</g>
<defs>
<clipPath id="clip0_1833_12257">
<rect width="218.302" height="65" fill="white" transform="translate(30.8496 40)"/>
</clipPath>
</defs>
</svg>
