<svg width="280" height="140" viewBox="0 0 280 140" fill="none" xmlns="http://www.w3.org/2000/svg">
<g clip-path="url(#clip0_1833_12264)">
<path d="M112.265 76.48L113.834 71.696H104.942L105.834 68.9163H116.385L118.013 63.9316H100.75L93.9414 84.7741H111.638L113.288 79.6971H102.326L103.369 76.48H112.265Z" fill="black"/>
<path d="M98.2817 63.9316H78.0473L76.2559 69.4077H83.1205L78.0945 84.7741H84.8131L89.8279 69.4077H96.4857L98.2817 63.9316Z" fill="black"/>
<path d="M128.471 63.9316H121.764L114.953 84.7741H131.4L133.205 79.2372H123.47L128.471 63.9316Z" fill="black"/>
<path d="M208.661 63.9316L201.848 84.7741H208.71L215.523 63.9316H208.661Z" fill="black"/>
<path d="M258.374 84.7741L257.192 63.9316H250.39L235.807 84.5126L230.967 71.6126L241.667 63.9339H233.591L224.199 70.8303L226.449 63.9339H219.814L213.008 84.7764H219.63L221.803 78.137L224.597 76.4259L227.65 84.7764H242.186L243.969 82.0214H251.755L251.717 84.7764H258.372L258.374 84.7741ZM246.758 77.6365L251.669 70.4222L251.878 77.6365H246.76H246.758Z" fill="black"/>
<path d="M197.987 63.9316L194.114 76.5995L190.643 63.9316H184.273L177.467 84.7741H183.83L187.672 72.1649L191.18 84.7741H197.544L204.357 63.9316H197.987Z" fill="black"/>
<path d="M157.62 63.9316H137.394L135.594 69.4077H142.458L137.437 84.7741H144.155L149.17 69.4077H155.824L157.62 63.9316Z" fill="black"/>
<path d="M178.06 73.1784C178.123 72.9057 178.206 72.4615 178.3 71.8415C178.705 69.1971 178.206 67.123 176.79 65.6305C175.387 64.1335 173.218 63.3828 170.294 63.3828C166.945 63.3828 163.948 64.3883 161.325 66.379C158.691 68.3855 156.825 71.0457 155.719 74.3688C155.416 75.2931 155.214 76.1092 155.112 76.8059C154.708 79.4526 155.207 81.5357 156.616 83.044C158.019 84.5657 160.188 85.3232 163.108 85.3232C166.52 85.3232 169.516 84.3448 172.101 82.3857C174.686 80.4243 176.556 77.7527 177.682 74.371C177.864 73.8548 177.986 73.458 178.062 73.183L178.06 73.1784ZM171.456 72.3353C171.375 72.8809 171.204 73.5572 170.937 74.3665C170.361 76.107 169.646 77.4416 168.788 78.3727C167.72 79.5293 166.405 80.1041 164.838 80.1041C163.582 80.1041 162.721 79.7367 162.271 79.0085C161.892 78.4065 161.797 77.5386 161.975 76.3978C162.02 76.0709 162.096 75.7327 162.184 75.3833C162.271 75.0339 162.373 74.6979 162.481 74.3688C163.063 72.6284 163.771 71.2982 164.605 70.3716C165.679 69.2061 167.001 68.6289 168.592 68.6289C169.849 68.6289 170.703 68.9987 171.152 69.7291C171.532 70.3311 171.627 71.1968 171.456 72.3375V72.3353Z" fill="black"/>
<path d="M66.7756 88.0733L51.7493 72.9977L66.7756 57.9289L72.168 63.3374L78.8169 56.6687L72.168 50L65.5191 56.6732L58.8657 50L52.2123 56.6732L45.5612 50L22.625 72.9955L45.5612 96L52.2146 89.3291L58.8635 96L65.5168 89.3291L72.1657 96L78.8146 89.3313L72.1657 82.6626L66.7733 88.0711L66.7756 88.0733ZM40.1688 88.0733L25.1447 72.9955L40.1688 57.9289L45.5634 63.3374L35.9273 72.9955L45.5634 82.6626L40.1688 88.0711V88.0733ZM53.4733 88.0733L38.447 72.9977L53.4733 57.9289L58.868 63.3374L49.2453 72.9955L58.868 82.6626L53.4733 88.0711V88.0733Z" fill="black"/>
</g>
<defs>
<clipPath id="clip0_1833_12264">
<rect width="235.75" height="46" fill="white" transform="translate(22.625 50)"/>
</clipPath>
</defs>
</svg>
