<svg width="280" height="140" viewBox="0 0 280 140" fill="none" xmlns="http://www.w3.org/2000/svg">
<g clip-path="url(#clip0_1833_12263)">
<path fill-rule="evenodd" clip-rule="evenodd" d="M37.009 59.3243C31.7047 59.3243 27.4036 63.5722 27.4036 68.8108C27.4036 74.0495 31.7047 78.2973 37.009 78.2973C42.3133 78.2973 46.6143 74.0495 46.6143 68.8108C46.6143 63.5722 42.3133 59.3243 37.009 59.3243ZM27.4036 81.4595C30.0782 83.4453 33.4059 84.6216 37.009 84.6216C45.8502 84.6216 53.0179 77.5426 53.0179 68.8108C53.0179 60.079 45.8502 53 37.009 53C28.4901 53 21.5251 59.571 21.0277 67.8601C21.0107 67.9992 21 68.1404 21 68.2838V68.8108V88.8378C21 90.5834 22.4344 92 24.2018 92C25.9692 92 27.4036 90.5834 27.4036 88.8378V81.4595ZM120.964 55.6394C122.435 56.6091 122.832 58.5717 121.852 60.0242L109.583 78.2003V88.8378C109.583 90.5834 108.149 92 106.381 92C104.614 92 103.179 90.5834 103.179 88.8378V78.2003L90.9101 60.0242C89.9303 58.5717 90.3274 56.607 91.7981 55.6394C93.2688 54.6696 95.2581 55.0638 96.2379 56.5163L106.381 71.5429L116.524 56.5163C117.504 55.0638 119.494 54.6696 120.964 55.6394ZM219.511 58.2703C219.511 56.5248 218.077 55.1081 216.309 55.1081C214.542 55.1081 213.108 56.5248 213.108 58.2703V79.4378L195.38 56.3582C194.55 55.2768 193.111 54.8383 191.809 55.2725C190.505 55.7068 189.628 56.9126 189.628 58.2703V88.8378C189.628 90.5834 191.062 92 192.83 92C194.597 92 196.031 90.5834 196.031 88.8378V67.6703L213.759 90.7478C214.589 91.8292 216.028 92.2656 217.33 91.8335C218.634 91.4013 219.511 90.1955 219.511 88.8378V58.2703ZM232.852 55.1081C230.79 55.1081 229.117 56.7609 229.117 58.7973V88.3108C229.117 90.3472 230.79 92 232.852 92H240.323C250.637 92 259 83.7425 259 73.5541C259 63.3677 250.637 55.1081 240.323 55.1081H232.852ZM235.52 85.6757V61.4324H240.323C247.102 61.4324 252.596 66.8587 252.596 73.5541C252.596 80.2494 247.102 85.6757 240.323 85.6757H235.52ZM180.022 58.2703C180.022 60.0158 178.588 61.4324 176.821 61.4324H165.081V69.8649H176.821C178.588 69.8649 180.022 71.2815 180.022 73.027C180.022 74.7725 178.588 76.1892 176.821 76.1892H165.081V85.6757H176.821C178.588 85.6757 180.022 87.0923 180.022 88.8378C180.022 90.5834 178.588 92 176.821 92H162.946C160.588 92 158.677 90.1132 158.677 87.7838V73.027V59.3243C158.677 56.9949 160.588 55.1081 162.946 55.1081H176.821C178.588 55.1081 180.022 56.5248 180.022 58.2703ZM133.381 64.232C133.863 62.575 135.398 61.4324 137.144 61.4324H137.69C139.187 61.4324 140.672 61.6981 142.073 62.2166L143.68 62.8111C145.336 63.4246 147.181 62.5961 147.802 60.9602C148.423 59.3243 147.584 57.5029 145.928 56.8895L144.322 56.295C142.201 55.5108 139.955 55.1081 137.69 55.1081H137.144C132.542 55.1081 128.497 58.1185 127.227 62.4865C125.611 68.0498 129.005 73.826 134.7 75.1963L141.076 76.7331C143.656 77.355 145.119 80.0512 144.209 82.5156L144.111 82.7834C143.682 83.9512 142.707 84.843 141.494 85.1761C138.504 85.9982 135.3 85.5344 132.674 83.8964L131.573 83.2092C130.077 82.2774 128.1 82.718 127.157 84.1958C126.213 85.6736 126.659 87.6257 128.155 88.5575L129.257 89.2447C133.411 91.8356 138.48 92.5692 143.212 91.2685C146.416 90.3873 148.995 88.0325 150.13 84.9442L150.229 84.6764C152.44 78.6725 148.88 72.1016 142.593 70.5879L136.218 69.0511C134.055 68.5325 132.768 66.3422 133.381 64.232ZM84.2674 90.1723C85.0145 91.7555 86.9185 92.4406 88.5216 91.7049C90.1246 90.967 90.8183 89.0866 90.0734 87.5034L75.6653 56.9358C75.1402 55.8206 74.0068 55.1081 72.7623 55.1081C71.5179 55.1081 70.3845 55.8206 69.8594 56.9358L55.4513 87.5034C54.7042 89.0866 55.4001 90.967 57.0031 91.7049C58.6061 92.4427 60.5101 91.7555 61.2572 90.1723L72.7623 65.7625L84.2674 90.1723Z" fill="black"/>
</g>
<defs>
<clipPath id="clip0_1833_12263">
<rect width="238" height="39" fill="white" transform="translate(21 53)"/>
</clipPath>
</defs>
</svg>
