<svg width="280" height="140" viewBox="0 0 280 140" fill="none" xmlns="http://www.w3.org/2000/svg">
<g clip-path="url(#clip0_1833_12252)">
<path d="M240 29H39V111H240V29Z" fill="black"/>
<path d="M58.6461 36.9141H80.5095L93.9123 82.6906H94.1157L103.309 36.9141H119.823L105.932 102.924H84.1704L70.4625 57.2501H70.2795L61.1884 102.924H44.6738L58.6461 36.9141Z" fill="white"/>
<path d="M126.269 36.9141H143.821L138.655 62.1701H159.4L164.566 36.9141H182.118L168.512 102.924H150.858L156.675 74.6546H136.032L130.215 102.924H112.684L126.269 36.9141Z" fill="white"/>
<path d="M228.267 51.8581C223.768 49.7706 218.86 48.7335 213.908 48.8241C206.973 48.8241 201.339 49.8696 201.339 55.1586C201.339 64.5271 226.762 61.0216 226.762 81.0706C226.762 99.3156 209.962 104.051 194.77 104.051C187.865 103.889 181.018 102.744 174.432 100.648L178.499 87.2206C181.977 89.4961 188.912 91.0131 194.627 91.0131C200.342 91.0131 208.6 89.9676 208.6 83.1616C208.6 72.5631 183.177 76.5401 183.177 57.9056C183.177 40.8906 198.003 35.7656 212.362 35.7656C220.497 35.7656 228.023 36.6266 232.436 38.6971L228.267 51.8581Z" fill="white"/>
</g>
<defs>
<clipPath id="clip0_1833_12252">
<rect width="201" height="82" fill="white" transform="translate(39 29)"/>
</clipPath>
</defs>
</svg>
