<svg width="280" height="140" viewBox="0 0 280 140" fill="none" xmlns="http://www.w3.org/2000/svg">
<g clip-path="url(#clip0_1833_12256)">
<path fill-rule="evenodd" clip-rule="evenodd" d="M256.666 62.0698C256.666 63.8366 255.962 65.531 254.709 66.7803C253.455 68.0296 251.755 68.7315 249.983 68.7315C248.21 68.7315 246.51 68.0296 245.256 66.7803C244.003 65.531 243.299 63.8366 243.299 62.0698C243.299 60.3031 244.003 58.6086 245.256 57.3593C246.51 56.1101 248.21 55.4082 249.983 55.4082C251.755 55.4082 253.455 56.1101 254.709 57.3593C255.962 58.6086 256.666 60.3031 256.666 62.0698Z" fill="#CCCCCC"/>
<path fill-rule="evenodd" clip-rule="evenodd" d="M256.666 82.9175C256.666 84.6843 255.962 86.3787 254.709 87.628C253.455 88.8773 251.755 89.5791 249.983 89.5791C248.21 89.5791 246.51 88.8773 245.256 87.628C244.003 86.3787 243.299 84.6843 243.299 82.9175C243.299 81.1507 244.003 79.4563 245.256 78.207C246.51 76.9577 248.21 76.2559 249.983 76.2559C251.755 76.2559 253.455 76.9577 254.709 78.207C255.962 79.4563 256.666 81.1507 256.666 82.9175Z" fill="#888888"/>
<path fill-rule="evenodd" clip-rule="evenodd" d="M39.1867 65.0053H33.8609V52.3393H39.1867C42.9769 52.3393 45.0933 54.9593 45.0933 58.7368C45.0933 62.7696 42.7179 65.0053 39.1867 65.0053ZM40.3453 44.659H23.332V88.8112H33.8609V72.6847H40.3453C48.8825 72.6847 55.3041 67.3756 55.3041 58.3506C55.3041 50.5459 50.4867 44.659 40.3453 44.659ZM110.669 56.1767L103.605 75.6768L95.4944 56.1767H84.9796L98.8286 87.2758L94.5084 97.967H104.284L120.875 56.1767H110.669ZM186.545 54.8331V56.1767H181.087V63.152H186.545V88.8112H196.752V63.1511H203.816V56.1767H196.752V54.4488C196.752 51.5689 197.908 49.5211 201.055 49.5211C202.017 49.5211 203.238 49.7138 204.072 49.97V42.6748C202.482 42.2443 200.841 42.0291 199.193 42.0353C190.911 42.0353 186.545 47.0901 186.545 54.8331ZM167.872 81.6432C166.91 82.3473 165.433 82.9242 163.828 82.9242C161.26 82.9242 159.527 81.4515 159.527 79.084C159.527 76.3967 161.652 73.7674 167.872 74.7969V81.6432ZM165.882 55.4081C159.527 55.4081 154.519 57.3922 151.437 59.3119L154.262 65.1343C156.124 64.3021 160.041 62.8313 163.379 62.8313C165.754 62.8313 167.872 63.6635 167.872 66.1582V68.334C153.714 67.3297 149.644 73.5384 149.644 79.272C149.644 84.8747 154.403 89.5779 160.668 89.5779C163.139 89.5779 165.821 88.6466 167.872 87.3637V88.8102H178.145V66.0955C178.145 58.7368 173.458 55.409 165.882 55.409V55.4081ZM74.4611 81.6441C73.4986 82.3482 72.0219 82.9251 70.4167 82.9251C67.849 82.9251 66.1153 81.4525 66.1153 79.085C66.1153 76.3977 68.2402 73.7684 74.4611 74.7978V81.6441ZM72.0876 55.409C65.7316 55.409 60.7247 57.3932 57.642 59.3128L60.4677 65.1352C62.329 64.3031 66.2457 62.8322 69.5837 62.8322C71.96 62.8322 74.0774 63.6644 74.0774 66.1591V68.3349C59.9189 67.3307 55.8492 73.5393 55.8492 79.2729C55.8492 84.8756 60.6084 89.5788 66.8724 89.5788C69.3444 89.5788 72.0257 88.6475 74.0774 87.3647V88.8112H84.3501V66.0955C84.3501 58.7368 79.6631 55.409 72.0876 55.409ZM131.444 65.3914C131.444 63.8561 132.985 62.8949 135.553 62.8949C138.249 62.8949 141.073 63.8561 143.129 64.7519L146.017 58.0327C143.321 56.6891 139.212 55.409 135.039 55.409C127.399 55.409 121.236 58.8649 121.236 65.7757C121.236 76.6539 136.643 74.6697 136.643 79.4683C136.643 81.2608 134.846 82.1565 131.829 82.1565C128.747 82.1565 125.794 81.1327 123.483 79.9807L120.209 86.5718C124.06 88.6195 128.555 89.5788 132.728 89.5788C140.176 89.5788 146.595 85.7396 146.595 78.7007C146.595 67.9506 131.444 69.7431 131.444 65.3914ZM220.797 62.577C223.622 62.577 225.87 64.8154 226.254 69.1671H215.34C215.725 64.8154 217.972 62.577 220.797 62.577ZM236.628 74.5416V71.9937C236.628 62.4236 229.914 55.41 220.797 55.41C211.68 55.41 204.619 62.6406 204.619 72.6875C204.619 82.9887 211.296 89.5798 221.953 89.5798C224.924 89.5798 230.801 89.0449 235.332 85.9191L232.469 79.5749C229.397 81.3113 226.283 82.093 223.493 82.093C223.251 82.093 223.013 82.0836 222.778 82.0705L222.618 82.0612C222.394 82.0443 222.173 82.0228 221.957 81.9938C221.908 81.9873 221.86 81.9789 221.811 81.9714C221.638 81.9456 221.465 81.915 221.293 81.8798C221.232 81.8676 221.171 81.8564 221.111 81.8433C220.845 81.7829 220.582 81.7096 220.322 81.6236C220.066 81.5386 219.814 81.44 219.567 81.3281L219.454 81.2739C219.249 81.1769 219.048 81.0702 218.853 80.9541L218.837 80.9447C218.423 80.694 218.038 80.3987 217.689 80.0639L217.673 80.049C217.48 79.8621 217.299 79.6635 217.13 79.4543C216.932 79.2111 216.75 78.9549 216.587 78.6876L216.577 78.6726C215.93 77.587 215.5 76.221 215.34 74.5435L236.628 74.5416Z" fill="black"/>
</g>
<defs>
<clipPath id="clip0_1833_12256">
<rect width="233.333" height="56" fill="white" transform="translate(23.334 42)"/>
</clipPath>
</defs>
</svg>
