<svg width="280" height="140" viewBox="0 0 280 140" fill="none" xmlns="http://www.w3.org/2000/svg">
<path d="M154.654 84.3128C154.735 84.5969 154.654 85.033 154.133 85.3641L149.049 88.5692C148.51 88.9113 147.814 88.9659 146.923 88.9659H139.654C136.75 88.9659 134.392 86.4787 134.392 83.4812V73.0177C134.392 71.231 135.062 69.6125 136.482 68.8072L141.974 65.7004C142.662 65.307 143.466 64.7431 144.291 64.7431H152.159C152.628 64.7431 153.004 65.1343 153.004 65.6152V69.2148C153.004 69.6891 152.628 70.0803 152.159 70.0803H142.472C141.89 70.0803 141.416 70.572 141.416 71.1731V82.7184C141.416 83.3183 141.89 83.7959 142.472 83.7959H153.968C154.287 83.7959 154.567 84.0025 154.654 84.3128ZM173.94 64.448C173.09 64.448 172.06 64.5825 171.367 64.7791L163.604 67.0128V56.7657C163.604 56.2051 163.376 55.8183 162.792 55.8205C162.616 55.8236 162.482 55.8452 162.298 55.8957L157.889 57.0323C157.437 57.1525 157.042 57.6245 157.042 58.101L157.048 88.0894C157.048 88.5691 157.42 88.9658 157.885 88.9658H162.774C163.234 88.9658 163.604 88.5746 163.604 88.0894V71.1325C163.604 70.5293 164.068 70.0397 164.653 70.0397H170.499C171.083 70.0397 171.554 70.5293 171.554 71.1325V88.0894C171.554 88.5746 171.932 88.9658 172.402 88.9658H177.267C177.733 88.9658 178.12 88.5691 178.12 88.0894V68.9732C178.12 66.3592 176.366 64.448 173.94 64.448ZM203.87 84.5312C203.87 84.7979 203.69 85.1355 203.324 85.3639L198.231 88.5691C197.69 88.9111 196.803 88.9658 195.924 88.9658H187.658C184.766 88.9658 182.413 86.4786 182.413 83.481V73.1247C182.413 71.4396 183.135 69.7578 184.49 68.8989L189.55 65.6751C190.404 65.1233 191.369 64.7692 192.376 64.7692H198.342C201.258 64.7692 203.63 67.2116 203.63 70.2364V75.7179C203.63 77.5363 202.016 79.0094 200.25 79.0094H190.001C189.427 79.0094 188.96 79.5033 188.96 80.0978V82.7183C188.96 83.3182 189.427 83.7958 190.001 83.7958H203.163C203.624 83.7958 203.87 84.0603 203.87 84.5312ZM188.96 73.576C188.96 74.1825 189.427 74.6612 190.001 74.6612H196.612C197.198 74.6612 197.67 74.1825 197.67 73.576V70.7927C197.67 70.1873 197.198 69.6977 196.612 69.6977H190.001C189.427 69.6977 188.96 70.1873 188.96 70.7927V73.576ZM237.617 64.3692C236.78 64.3692 235.734 64.4907 235.044 64.7113L227.641 67.0662C227.019 65.4336 225.597 64.3692 223.784 64.3692C222.948 64.3692 221.905 64.4907 221.222 64.7113L214.371 66.8914L209.321 64.7113C209.062 64.5976 208.846 64.566 208.498 64.566C208.038 64.566 207.576 64.9507 207.576 65.5834V88.0894C207.576 88.5692 207.961 88.9658 208.431 88.9658H213.303C213.768 88.9658 214.141 88.5692 214.141 88.0894V71.0791C214.141 70.4736 214.624 69.9797 215.203 69.9797H220.357C220.938 69.9797 221.412 70.4736 221.412 71.0791V88.0894C221.412 88.5692 221.778 88.9658 222.245 88.9658H227.118C227.582 88.9658 227.967 88.5692 227.967 88.0894V71.0791C227.967 70.4736 228.441 69.9797 229.018 69.9797H234.178C234.757 69.9797 235.227 70.4736 235.227 71.0791V88.0894C235.227 88.5692 235.613 88.9658 236.072 88.9658H240.946C241.418 88.9658 241.802 88.5692 241.802 88.0894V68.9109C241.802 66.2882 240.029 64.3692 237.617 64.3692ZM94.5655 84.5313C94.5655 84.798 94.3862 85.1356 94.0169 85.364L88.919 88.5692C88.3814 88.9112 87.4951 88.9658 86.6056 88.9658H78.3419C75.4514 88.9658 73.0899 86.4787 73.0899 83.4811C73.0899 83.4811 73.0812 74.6678 73.0899 73.1248C73.0986 71.5861 73.8571 69.7218 75.1761 68.8989C76.4907 68.0782 80.2423 65.6752 80.2423 65.6752C81.1077 65.1233 82.0465 64.7693 83.0737 64.7693H89.025C91.9493 64.7693 94.3261 67.2116 94.3261 70.2365V75.7179C94.3261 77.5363 92.7088 79.0094 90.9516 79.0094H80.7056C80.1177 79.0094 79.6543 79.5034 79.6543 80.0978V82.7184C79.6543 83.3183 80.1155 83.7958 80.7012 83.7958H93.854C94.3229 83.7958 94.5655 84.0604 94.5655 84.5313ZM79.6543 73.5761C79.6543 74.1826 80.1177 74.6612 80.7056 74.6612H87.3104C87.8951 74.6612 88.3606 74.1826 88.3606 73.5761V70.7927C88.3606 70.1873 87.8951 69.6977 87.3104 69.6977H80.7056C80.1177 69.6977 79.6543 70.1873 79.6543 70.7927V73.5761ZM64.2394 57.9689C63.116 57.9689 62.3828 58.089 61.1796 58.4004L52.387 60.7434C51.7838 59.0616 50.3479 57.9689 48.524 57.9689C47.3973 57.9689 46.6772 58.089 45.4696 58.4004L37.3404 60.562L32.4195 58.7087C31.9518 58.5383 31.8087 58.5033 31.5245 58.5033C30.9301 58.5033 30.1094 58.9164 30.1094 60.09V87.8032C30.1094 88.4556 30.4809 88.9659 30.9476 88.9659H36.3099C36.7721 88.9659 37.1437 88.5747 37.1437 88.0961V65.9725C37.1437 65.3693 37.6169 64.8819 38.2015 64.8819H44.6894C45.2587 64.8819 45.7374 65.3693 45.7374 65.9725V88.0961C45.7374 88.6097 46.1155 88.9659 46.5788 88.9659H51.9313C52.4001 88.9659 52.7782 88.5747 52.7782 88.0961V65.9725C52.7782 65.3693 53.2525 64.8819 53.8295 64.8819H60.3108C60.8878 64.8819 61.3643 65.3693 61.3643 65.9725V88.0961C61.3643 88.5747 61.7347 88.9659 62.2024 88.9659H67.5659C68.0325 88.9659 68.3997 88.5747 68.3997 88.0961V62.5816C68.3997 59.9589 66.6534 57.9689 64.2394 57.9689ZM128.637 64.7431H127.703H123.757H118.172H115.401H113.569C112.86 64.7431 112.521 64.8141 112.035 65.6556L108.105 72.4429C107.877 72.8593 107.573 72.8549 107.34 72.4522L103.376 65.6114C103.085 65.0989 102.381 64.7437 101.858 64.7437H97.0111C96.5565 64.7437 96.0517 65.0988 96.0473 65.8485C96.0429 66.1785 96.1282 66.4244 96.2374 66.5774L102.984 75.9874C103.121 76.1863 103.185 76.4125 103.185 76.654C103.181 76.8956 103.131 77.1119 103.067 77.2015L95.8997 87.1262C95.7992 87.2758 95.6735 87.5174 95.6691 87.8256C95.654 88.4321 96.1729 88.9665 96.669 88.9665H101.52C102.039 88.9665 102.757 88.5796 103.095 88.007L107.503 80.6351C107.609 80.4526 107.853 80.4319 107.962 80.6351L112.06 88.0179C112.554 88.9075 112.916 88.9665 113.625 88.9665H118.224C118.792 88.9665 119.435 88.584 119.445 87.8442C119.445 87.4596 119.362 87.2716 119.035 86.8082L112.445 77.2955C112.301 77.0966 112.267 76.8726 112.267 76.654C112.265 76.4257 112.325 76.195 112.464 76.0049L117.2 69.3782H122.914V88.0901C122.914 88.5698 123.295 88.9665 123.757 88.9665H128.636C129.101 88.9665 129.483 88.5698 129.483 88.0901V65.6157C129.483 65.1349 129.101 64.7431 128.637 64.7431ZM128.155 55.8964L123.757 57.033C123.306 57.1532 122.914 57.6252 122.914 58.1017V60.7954C122.914 61.2762 123.295 61.6587 123.757 61.6587H128.636C129.101 61.6587 129.483 61.2762 129.483 60.7954V56.7663C129.483 56.0669 129.141 55.6374 128.155 55.8964Z" fill="black"/>
<path d="M247.626 86.8723C247.594 86.7741 247.48 86.7115 247.395 86.7028V86.6483C247.395 86.6483 247.827 86.4897 247.827 86.0494C247.827 85.667 247.561 85.502 246.993 85.502H245.965V87.7531H246.581V86.9259H246.957L247.344 87.7531H248.094L247.626 86.8723ZM246.848 86.4581H246.581V85.9598H246.914C247.1 85.9598 247.17 85.9935 247.17 86.1837C247.17 86.3739 247.06 86.4581 246.848 86.4581Z" fill="black"/>
<path d="M246.872 84.3691C245.602 84.3691 244.574 85.2346 244.574 86.6586C244.574 88.1076 245.602 88.9687 246.872 88.9687C248.142 88.9687 249.179 88.0541 249.179 86.6586C249.179 85.2565 248.142 84.3691 246.872 84.3691ZM246.872 88.3688C245.898 88.3688 245.222 87.7426 245.222 86.6586C245.222 85.568 245.871 84.9461 246.872 84.9461C247.841 84.9461 248.516 85.6051 248.516 86.6586C248.516 87.7142 247.818 88.3688 246.872 88.3688Z" fill="black"/>
</svg>
