<svg width="280" height="140" viewBox="0 0 280 140" fill="none" xmlns="http://www.w3.org/2000/svg">
<path d="M83.6055 60.7617H90.1864L93.867 75.8044L98.1324 60.7617H102.939L107.201 75.8044L110.918 60.7617H117.471L110.818 84.6476H104.378L100.561 71.169L96.7441 84.6476H90.2894L83.6055 60.7617Z" fill="black"/>
<path d="M115.273 76.1141C115.273 71.0329 119.33 67.0957 124.381 67.0957C129.432 67.0957 133.486 71.0226 133.486 76.1141C133.486 81.2056 129.46 85.1325 124.381 85.1325C119.371 85.1093 115.273 81.1979 115.273 76.1141ZM127.822 76.1141C127.822 74.0012 126.357 72.5634 124.381 72.5634C122.406 72.5634 120.968 74.0012 120.968 76.1141C120.968 78.227 122.431 79.6674 124.381 79.6674C126.331 79.6674 127.827 78.2296 127.827 76.1141H127.822Z" fill="black"/>
<path d="M145.923 67.2422V73.5138C143.672 73.1737 140.805 74.1967 140.805 77.5695V84.6297H135.139V67.5875H140.805V70.7645C141.495 68.4352 143.646 67.2422 145.923 67.2422Z" fill="black"/>
<path d="M147.527 59.7383H153.194V84.642H147.527V59.7383Z" fill="black"/>
<path d="M172.968 60.7617V84.6476H167.301V83.081C166.212 84.3693 164.638 85.1423 162.459 85.1423C157.89 85.1423 154.443 81.2515 154.443 76.1239C154.443 70.9963 157.884 67.1055 162.459 67.1055C164.646 67.1055 166.212 67.8579 167.301 69.1669V60.7669L172.968 60.7617ZM167.301 76.1136C167.301 73.8977 165.836 72.398 163.721 72.398C161.606 72.398 160.141 73.8977 160.141 76.1136C160.141 78.3296 161.606 79.8318 163.721 79.8318C165.836 79.8318 167.314 78.3321 167.314 76.1136H167.301Z" fill="black"/>
<path d="M185.087 76.9304H182.9V84.6399H176.801V60.7617H186.362C191.204 60.7617 194.957 64.2042 194.957 69.0071C194.957 70.4003 194.58 71.7676 193.866 72.9635C193.152 74.1595 192.127 75.1395 190.9 75.7993L195.815 84.6373H189.249L185.087 76.9304ZM182.908 71.7461H186.284C187.784 71.7822 188.84 70.6871 188.84 69.0844C188.84 67.4817 187.778 66.3918 186.284 66.3918H182.908V71.7461Z" fill="black"/>
<path d="M204.699 80.2723C205.845 80.2957 206.955 79.8682 207.79 79.0819L211.882 81.9472C210.177 84.0987 207.581 85.1242 204.549 85.1242C198.649 85.1242 195.004 81.1974 195.004 76.1496C195.004 71.0323 198.754 67.1055 204.073 67.1055C209.188 67.1055 212.871 70.9705 212.871 76.0801C212.877 76.7915 212.797 77.5009 212.632 78.193H200.876C201.559 79.8317 203.061 80.2723 204.699 80.2723ZM207.357 74.2687C206.842 72.4933 205.515 71.8775 204.153 71.8775C202.515 71.8775 201.286 72.6943 200.804 74.2687H207.357Z" fill="black"/>
<path d="M240.811 74.2043V84.6425H235.116V74.8511C235.116 73.3849 234.434 72.4625 233.004 72.4625C231.402 72.4625 230.65 73.6246 230.65 75.3278V84.6399H224.999V74.8485C224.999 73.3824 224.285 72.4599 222.848 72.4599C221.282 72.4599 220.497 73.622 220.497 75.3252V84.6373H214.83V67.59H220.497V69.1927C221.419 67.9662 222.92 67.1133 225.099 67.1133C227.114 67.1133 228.543 67.8992 229.465 69.3009C230.526 68.0126 232.056 67.1133 234.41 67.1133C238.32 67.1081 240.811 69.7647 240.811 74.2043Z" fill="black"/>
<path d="M242.513 64.0906C241.483 61.3929 244.192 58.8187 246.861 59.9319C247.251 60.096 247.605 60.3357 247.903 60.6373C248.2 60.9389 248.435 61.2964 248.594 61.6892C249.673 64.3818 246.92 67.0822 244.216 65.8969C243.433 65.5424 242.821 64.8934 242.513 64.0906ZM242.735 67.5821H248.401V84.6397H242.735V67.5821Z" fill="black"/>
<path d="M257.825 72.9988V77.946C257.825 79.5487 259.089 79.6492 261.376 79.5126V84.6299C254.422 85.4828 252.168 83.3416 252.168 78.0748V72.9988H250.195V67.5723H252.168V64.5137L257.835 62.8105V67.5877H261.384V73.0168H257.825V72.9988Z" fill="black"/>
<path d="M48.3967 47.424C48.5012 47.424 48.6041 47.4506 48.6955 47.5013L65.046 56.7671C65.1155 56.806 65.1766 56.8584 65.2257 56.9212C65.2748 56.984 65.3109 57.056 65.3319 57.1329L70.357 75.2445C70.3786 75.3208 70.3848 75.4008 70.375 75.4795C70.3653 75.5583 70.3399 75.6343 70.3004 75.7031L61.0459 92.0677C61.0072 92.1369 60.9551 92.1978 60.8928 92.2469C60.8305 92.296 60.7591 92.3323 60.6827 92.3537L42.5782 97.3782C42.5255 97.3935 42.4708 97.4013 42.4159 97.4014C42.3113 97.4021 42.2083 97.3755 42.1172 97.3241L25.7641 88.0532C25.6948 88.0142 25.6341 87.9618 25.5854 87.8989C25.5368 87.8361 25.5012 87.7641 25.4808 87.6873L20.4556 69.5758C20.434 69.4994 20.4279 69.4195 20.4376 69.3407C20.4473 69.2619 20.4727 69.1859 20.5123 69.1171L29.759 52.7577C29.8383 52.6177 29.9698 52.5149 30.1247 52.4717L48.2293 47.4446C48.2824 47.4314 48.3368 47.4245 48.3915 47.424M48.3915 45.6074C48.1731 45.6071 47.9555 45.6365 47.745 45.695L29.6457 50.7221C29.3383 50.8075 29.051 50.9531 28.8003 51.1503C28.5496 51.3476 28.3406 51.5927 28.1852 51.8714L18.9411 68.2204C18.6251 68.7804 18.5436 69.4428 18.7144 70.0628L23.7396 88.1743C23.9082 88.7904 24.3126 89.3152 24.8652 89.6353L41.2182 98.8907C41.777 99.207 42.4384 99.2886 43.0573 99.1175L61.1618 94.0904C61.4683 94.0055 61.7551 93.861 62.0057 93.6651C62.2563 93.4693 62.4658 93.2259 62.6222 92.9489L71.8767 76.5895C72.0333 76.3127 72.1338 76.0077 72.1722 75.692C72.2107 75.3763 72.1864 75.0561 72.1008 74.7498L67.0833 56.6382C66.911 56.0195 66.5007 55.4942 65.9423 55.1772L49.5918 45.9218C49.2282 45.7154 48.8173 45.6071 48.3993 45.6074H48.3915Z" fill="black"/>
<path opacity="0.7" d="M42.1234 63.4258H41.9688L39.3648 71.0708L39.048 71.9984C38.9475 72.2915 38.9475 72.6097 39.048 72.9028L41.5876 80.352C41.6541 80.545 41.7615 80.7214 41.9024 80.8691C42.0433 81.0167 42.2145 81.1322 42.4041 81.2075L42.8909 81.3879L45.5078 73.7119L45.8659 72.6658C45.9664 72.3762 45.9664 72.0612 45.8659 71.7717L43.3314 64.3637C43.2442 64.106 43.0832 63.8797 42.8684 63.713C42.6536 63.5462 42.3945 63.4463 42.1234 63.4258Z" fill="black"/>
<path opacity="0.7" d="M60.0757 62.9199H54.592C54.4384 62.92 54.2887 62.9682 54.1639 63.0579C54.0391 63.1476 53.9456 63.2742 53.8966 63.4198L51.3518 70.8922L51.1432 71.5106C50.9887 71.958 50.9887 72.4443 51.1432 72.8917L53.8914 80.9542C53.9396 81.0947 54.0323 81.2156 54.1556 81.2984C54.2788 81.3812 54.4258 81.4214 54.574 81.4128L54.8187 81.387L60.7788 63.8965C60.8154 63.785 60.825 63.6665 60.8071 63.5505C60.7891 63.4346 60.744 63.3245 60.6755 63.2293C60.6069 63.1341 60.5169 63.0565 60.4126 63.0027C60.3084 62.949 60.193 62.9206 60.0757 62.9199Z" fill="black"/>
<path d="M42.1895 81.8921H36.7161C36.5622 81.8922 36.412 81.844 36.2868 81.7544C36.1616 81.6647 36.0677 81.538 36.0181 81.3922L30.0528 63.8939C30.0152 63.7832 30.0045 63.6651 30.0215 63.5494C30.0386 63.4337 30.0829 63.3237 30.1509 63.2285C30.2188 63.1333 30.3085 63.0557 30.4123 63.0021C30.5162 62.9484 30.6314 62.9202 30.7483 62.9199H36.2319C36.3859 62.9198 36.536 62.968 36.6612 63.0576C36.7864 63.1473 36.8804 63.274 36.9299 63.4198L42.8978 80.9181C42.9358 81.0299 42.9463 81.1491 42.9286 81.2658C42.9109 81.3825 42.8654 81.4933 42.796 81.5888C42.7266 81.6842 42.6353 81.7616 42.5297 81.8144C42.4242 81.8672 42.3075 81.8938 42.1895 81.8921Z" fill="black"/>
<path d="M54.1113 81.8921H48.6276C48.474 81.892 48.3243 81.8438 48.1995 81.7541C48.0747 81.6644 47.9812 81.5378 47.9322 81.3922L41.9669 63.8939C41.9293 63.7832 41.9186 63.6651 41.9356 63.5494C41.9527 63.4337 41.997 63.3237 42.0649 63.2285C42.1329 63.1333 42.2225 63.0557 42.3264 63.0021C42.4303 62.9484 42.5454 62.9202 42.6623 62.9199H48.1537C48.3072 62.9204 48.4568 62.9688 48.5815 63.0584C48.7062 63.148 48.7997 63.2744 48.8491 63.4198L54.8144 80.9181C54.8511 81.0294 54.8608 81.1479 54.8428 81.2637C54.8249 81.3795 54.7798 81.4894 54.7112 81.5845C54.6426 81.6795 54.5524 81.7569 54.4482 81.8104C54.3439 81.8638 54.2284 81.8918 54.1113 81.8921Z" fill="black"/>
</svg>
