<svg width="280" height="140" viewBox="0 0 280 140" fill="none" xmlns="http://www.w3.org/2000/svg">
<g clip-path="url(#clip0_1833_12249)">
<path fill-rule="evenodd" clip-rule="evenodd" d="M64.5984 80.9934C64.1149 81.5047 62.7991 81.6931 62.4293 82.2798C61.8657 83.165 60.5705 85.1812 59.5593 86.1413C56.2959 89.2487 49.3088 90.81 45.8629 87.8428C45.637 87.8586 45.7673 87.9898 46.0392 88.839C46.2897 90.4454 47.5811 94.2175 47.1038 95.18C47.4147 96.2514 47.737 95.8592 48.3242 96.4542C48.7244 96.8554 48.8879 97.9053 49.3476 98.1894C49.8723 98.1539 50.3977 98.1143 50.9224 98.0783C51.0155 98.3715 51.1163 98.6649 51.2088 98.9643C51.8801 98.9164 52.5575 98.8655 53.2319 98.8173C53.6107 98.9046 54.7563 99.4965 55.0931 99.5892C55.8423 99.5362 56.5907 99.4842 57.3369 99.4336C59.0522 99.8916 60.5499 99.1733 61.9962 98.1924C62.8019 97.6512 63.6848 97.7375 64.4012 97.1242C65.4391 96.2298 66.8535 94.4864 67.5156 93.2779C69.1385 90.323 68.5863 83.2397 67.1162 81.4895C66.5403 80.8585 65.86 80.847 64.5984 80.9934ZM78.1713 79.0522C76.954 79.9856 76.4438 79.7551 75.7312 81.197C75.6565 81.197 75.838 81.4122 75.7673 81.4122C76.4921 82.8655 78.154 83.4489 79.3767 84.4689C79.7555 84.7921 80.7881 86.5868 81.2776 86.7155C81.829 87.3733 82.1872 89.195 82.5484 89.195C82.9211 89.7066 82.5156 90.9118 82.8822 91.3811C82.9039 93.5412 82.6079 93.6906 82.2323 94.1064C82.2323 94.2557 82.4377 94.6477 82.4377 94.794C82.5392 94.8959 83.4046 95.5184 83.7803 95.4433C84.9526 95.4761 89.7558 99.2359 90.1372 99.9603C93.5831 100.22 93.3326 99.1638 95.71 98.1531C96.3516 97.8751 96.8648 98.1381 97.2848 97.6983C97.727 97.2473 97.7621 96.3551 98.186 95.892C98.2424 87.3935 86.7131 79.3451 78.1713 79.0522ZM87.5296 61.0969C83.2603 61.7394 80.6504 63.1069 79.0364 64.2257C77.9084 65.0152 77.5807 65.5411 77.3417 65.8736C77.0941 66.2051 76.9301 66.9386 77.0494 67.7128C77.1747 68.4785 77.4885 69.2955 78.1537 69.7526C83.3952 69.3637 92.5004 69.0321 94.2719 73.4473C94.3641 74.063 94.505 74.4344 94.5161 74.5807C96.2528 74.1494 94.982 74.3027 97.5413 74.703C98.1262 74.7958 99.5705 74.4695 100.528 74.2336C100.964 74.1318 101.211 73.7367 101.211 73.7367C101.211 73.7367 101.127 73.3155 101.151 73.0851C101.151 73.0851 102.049 73.154 102.416 72.87C104.842 72.4779 103.568 71.3353 104.71 70.0459C104.024 61.7906 95.5752 59.8732 87.5296 61.0969ZM55.0207 76.148C55.96 75.9053 57.5593 75.7798 58.3971 75.3615C59.7336 74.6916 64.3216 71.4755 62.8601 68.8552C62.4126 63.3366 55.7692 67.9999 52.9377 66.0649C50.0769 65.6944 46.8611 60.2685 45.9982 57.9414C45.6644 57.0225 45.8011 57.3363 45.3421 56.6098C45.3463 56.5356 45.0498 56.8609 45.0526 56.7866C44.2171 57.7615 44.3606 58.6167 44.2293 60.9983C43.8535 60.9735 43.4801 60.9533 43.1043 60.9263C43.0323 61.7907 42.946 62.2603 42.5437 62.7059C42.463 62.8528 42.3764 62.993 42.2932 63.1423C41.5799 62.9034 41.9381 63.241 41.6486 62.643C39.0173 62.7783 39.2105 65.4329 38 66.94C38.0534 71.902 47.8384 78.0177 55.0227 76.1516M74.0858 49.1936C74.3117 47.3207 74.0346 44.5839 75.5086 43.2951C75.9408 41.2966 79.0797 41.7636 78.5902 40.4895C78.2864 39.6931 76.8123 40.0737 76.2158 40.2199C75.7621 40.3279 71.4602 41.6916 69.8074 41.8769C69.1063 41.6825 68.4052 41.4879 67.7072 41.2905C65.0044 41.6556 63.4473 43.8088 61.9463 45.5203C60.6877 46.9529 58.9808 50.4675 60.3387 52.5701C60.2639 53.028 60.186 53.4882 60.1118 53.9492L63.1781 58.4415C64.2374 59.2042 64.378 59.7692 65.5174 60.5205C65.7527 60.8734 65.9856 61.2265 66.2216 61.5817C67.1518 62.1951 69.9027 62.2042 70.3623 61.803C74.7866 62.2166 74.3061 53.2399 75.7083 51.3524C75.532 50.5063 74.7888 49.6264 74.0854 49.1931" fill="#333333"/>
<path d="M145.337 62.6824C149.302 62.6824 152.528 61.3589 152.528 54.2857C152.528 48.2685 149.302 46.2681 145.337 46.2681H143.257V62.682L145.337 62.6824ZM147.439 41.4977C154.618 41.4977 159.477 46.0815 159.477 54.2857C159.477 64.5938 152.806 67.6465 145.812 67.6465H136.452C136.486 67.0733 136.452 65.5488 136.452 63.6365V45.5049C136.452 43.596 136.486 42.3757 136.452 41.4971M169.654 63.6364C169.654 65.5485 169.748 67.6471 169.748 67.6471H162.805C162.805 67.6471 162.849 65.5485 162.849 63.6364V45.5016C162.849 43.5928 162.805 41.4978 162.805 41.4978H179.219V46.557C179.219 46.557 175.548 46.4627 174.305 46.4627H169.654V51.7296L174.305 51.7774C175.174 51.7774 178.17 51.7296 178.17 51.7296V56.5486C178.17 56.5486 175.513 56.4753 174.305 56.4753L169.654 56.5025M116.814 51.379C116.917 49.8659 117.451 46.3523 121.235 46.3523C125.113 46.3523 125.325 49.6527 125.325 51.4V51.7512C125.325 51.7512 122.733 51.8238 121.187 51.8238C119.641 51.8238 116.789 51.7512 116.789 51.7512L116.815 51.3787L116.814 51.379ZM122.591 62.3611C119.327 62.3611 116.814 60.1413 116.814 56.6731V56.3772C116.814 56.3772 122.881 56.2281 124.938 56.2281C128.435 56.2281 129.878 56.1937 132.636 56.1577V54.1848C132.636 45.2764 128.894 40.9395 121.188 40.9395C117.636 40.9395 109.377 42.2869 109.377 54.7641C109.377 63.0907 113.538 68.0643 120.813 68.0643C126.524 68.0643 130.03 66.5909 132.57 64.7186C132.284 64.2854 130.157 60.4245 129.879 60.0038C128.354 61.178 125.839 62.361 122.592 62.361" fill="black"/>
<path d="M112.533 75.7548H126.007V73.1843H109.648V98.8893H126.007V96.3187H112.533V86.8933H125.43V84.4942H112.533V75.7548ZM151.547 73.1843H148.662V96.6615H148.594L134.34 73.1843H129.589V98.8893H132.474V75.5835H132.542L146.83 98.8893H151.547L151.547 73.1843ZM158.138 75.7548H171.611V73.1843H155.245V98.8893H171.603V96.3187H158.129V86.8933H171.026V84.4942H158.129L158.138 75.7548ZM178.112 88.6071H187.377C189.051 88.6071 190.182 88.9841 190.77 89.7382C191.359 90.4922 191.653 91.726 191.653 93.4397V98.8891H194.537V92.0689C194.537 90.6522 194.198 89.5555 193.519 88.7788C192.863 87.979 191.834 87.5334 190.431 87.4419V87.3732C191.404 87.2589 192.184 87.0075 192.773 86.6192C193.383 86.2308 193.836 85.751 194.13 85.1798C194.447 84.6085 194.65 83.9687 194.741 83.2604C194.831 82.5292 194.877 81.6381 194.877 80.5871C194.877 77.7537 194.266 75.8116 193.044 74.7606C191.845 73.7096 189.82 73.1841 186.969 73.1841H175.227V98.889H178.111L178.112 88.6071ZM178.112 86.0367V75.755H187.004C188.135 75.755 189.029 75.835 189.685 75.9949C190.363 76.1548 190.861 76.4176 191.178 76.7831C191.517 77.1259 191.732 77.5715 191.823 78.1199C191.936 78.6454 191.992 79.3651 191.992 80.2791C191.992 81.4443 191.936 82.3697 191.823 83.0552C191.71 83.7406 191.483 84.3004 191.144 84.7345C190.827 85.1458 190.341 85.4543 189.685 85.6599C189.029 85.8655 188.135 85.9912 187.004 86.0369L178.112 86.0367ZM208.187 86.0367V88.6071H216.298V91.7945C216.298 92.8685 216.207 93.7139 216.026 94.3308C215.868 94.9249 215.562 95.3818 215.11 95.7017C214.68 96.0216 214.08 96.2386 213.311 96.3527C212.564 96.4671 211.512 96.5243 210.155 96.5243H207.44C206.195 96.5243 205.177 96.4443 204.385 96.2844C203.593 96.1016 202.949 95.7931 202.451 95.3589C201.976 94.9248 201.625 94.3193 201.399 93.5424C201.173 92.7656 201.059 91.7603 201.059 90.5264V82.2665C201.059 80.7585 201.139 79.5932 201.297 78.7707C201.455 77.9253 201.738 77.2741 202.145 76.8171C202.575 76.3372 203.197 76.0059 204.012 75.8231C204.826 75.6403 205.946 75.5489 207.372 75.5489H210.935C213.017 75.5489 214.42 75.7889 215.144 76.2688C215.528 76.5429 215.8 76.9199 215.958 77.3998C216.139 77.8567 216.23 78.4622 216.23 79.2162V80.69H219.114V78.7021C219.114 76.7371 218.492 75.2976 217.248 74.3836C216.026 73.4469 214.386 72.9785 212.327 72.9785H205.641C204.487 72.9785 203.458 73.127 202.553 73.424C201.67 73.7211 200.901 74.2124 200.245 74.8979C199.589 75.5604 199.08 76.4743 198.718 77.6397C198.356 78.8049 198.175 80.233 198.175 81.9239V89.8756C198.175 91.8406 198.367 93.4285 198.752 94.6394C199.136 95.8504 199.713 96.7872 200.483 97.4497C201.252 98.0895 202.225 98.5237 203.401 98.7521C204.6 98.9806 206.116 99.0949 207.949 99.0949H210.732C212.248 99.0949 213.526 98.9806 214.567 98.7521C215.607 98.5237 216.467 98.1467 217.146 97.6211C217.825 97.0727 218.334 96.3187 218.673 95.3592C219.012 94.3766 219.182 93.1313 219.182 91.6232V86.037L208.187 86.0367ZM241.997 73.1844H238.57L231.028 85.2155L223.497 73.1844H220.137L229.471 88.1619V98.8894H232.355V88.1619L241.997 73.1844Z" fill="#333333"/>
</g>
<defs>
<clipPath id="clip0_1833_12249">
<rect width="204" height="60" fill="white" transform="translate(38 40)"/>
</clipPath>
</defs>
</svg>
