<svg width="280" height="140" viewBox="0 0 280 140" fill="none" xmlns="http://www.w3.org/2000/svg">
<g clip-path="url(#clip0_1840_2754)">
<rect x="26.7153" y="47.7153" width="50.0732" height="50.0732" rx="22.1753" fill="black"/>
<rect x="26.7153" y="47.7153" width="50.0732" height="50.0732" rx="22.1753" stroke="black" stroke-width="1.43066"/>
<rect x="26" y="47" width="51.5039" height="51.5039" rx="2.86133" fill="black"/>
<path d="M60.7428 81.1852L52.3297 72.7385L60.7428 64.3042L63.7671 67.3486L67.4883 63.618L63.7671 59.875L60.0459 63.618L56.3122 59.875L52.591 63.618L48.8574 59.875L36.0137 72.751L48.8574 85.6269L52.591 81.8964L56.3122 85.6269L60.0459 81.8964L63.7671 85.6269L67.4883 81.8964L63.7671 78.1659L60.7428 81.1852ZM45.8456 81.1852L37.4325 72.7385L45.8456 64.3167L48.8698 67.3486L43.4685 72.751L48.8698 78.1659L45.8456 81.1852ZM53.288 81.1852L44.8748 72.7385L53.288 64.3042L56.3122 67.3361L50.9233 72.7385L56.3122 78.1534L53.288 81.1852Z" fill="white"/>
<path d="M244.059 80.0355V65.4688H253.874V68.008H247.138V71.479H253.369V74.0182H247.138V77.4963H253.903V80.0355H244.059Z" fill="black"/>
<path d="M224.904 80.0355V65.4688H230.651C231.751 65.4688 232.69 65.6655 233.468 66.0591C234.25 66.4479 234.845 67.0003 235.253 67.7164C235.666 68.4276 235.872 69.2645 235.872 70.2271C235.872 71.1945 235.663 72.0266 235.246 72.7237C234.829 73.416 234.224 73.9471 233.432 74.3169C232.645 74.6868 231.692 74.8717 230.573 74.8717H226.725V72.3965H230.075C230.663 72.3965 231.152 72.3159 231.54 72.1547C231.929 71.9934 232.219 71.7516 232.408 71.4292C232.603 71.1067 232.7 70.706 232.7 70.2271C232.7 69.7435 232.603 69.3357 232.408 69.0037C232.219 68.6718 231.927 68.4205 231.533 68.2498C231.144 68.0744 230.654 67.9866 230.061 67.9866H227.984V80.0355H224.904ZM232.771 73.4065L236.391 80.0355H232.991L229.449 73.4065H232.771Z" fill="black"/>
<path d="M206.423 80.0355H203.123L208.152 65.4688H212.121L217.142 80.0355H213.842L210.193 68.7975H210.079L206.423 80.0355ZM206.217 74.3098H214.013V76.7139H206.217V74.3098Z" fill="black"/>
<path d="M195.97 70.5685H192.855C192.798 70.1654 192.682 69.8074 192.506 69.4945C192.331 69.1768 192.105 68.9065 191.83 68.6836C191.555 68.4608 191.238 68.29 190.877 68.1715C190.522 68.053 190.135 67.9937 189.718 67.9937C188.964 67.9937 188.307 68.181 187.748 68.5556C187.188 68.9254 186.754 69.466 186.446 70.1773C186.138 70.8838 185.984 71.7421 185.984 72.7521C185.984 73.7905 186.138 74.663 186.446 75.3695C186.759 76.0761 187.195 76.6095 187.755 76.9699C188.314 77.3303 188.962 77.5104 189.697 77.5104C190.109 77.5104 190.491 77.4559 190.842 77.3469C191.197 77.2378 191.513 77.0789 191.788 76.8703C192.063 76.6569 192.29 76.3985 192.471 76.095C192.655 75.7915 192.784 75.4454 192.855 75.0566L195.97 75.0708C195.889 75.7394 195.688 76.3843 195.365 77.0054C195.048 77.6219 194.619 78.1743 194.078 78.6627C193.542 79.1464 192.902 79.5304 192.158 79.815C191.418 80.0947 190.581 80.2346 189.647 80.2346C188.348 80.2346 187.186 79.9406 186.162 79.3526C185.142 78.7646 184.336 77.9135 183.743 76.7992C183.155 75.6849 182.861 74.3358 182.861 72.7521C182.861 71.1636 183.16 69.8122 183.758 68.6978C184.355 67.5835 185.166 66.7347 186.19 66.1515C187.214 65.5635 188.367 65.2695 189.647 65.2695C190.491 65.2695 191.273 65.3881 191.994 65.6252C192.719 65.8623 193.362 66.2084 193.922 66.6636C194.481 67.1141 194.936 67.6665 195.287 68.3209C195.643 68.9752 195.87 69.7244 195.97 70.5685Z" fill="black"/>
<path d="M174.828 72.7521C174.828 74.3406 174.527 75.692 173.924 76.8063C173.327 77.9206 172.511 78.7718 171.478 79.3597C170.449 79.943 169.292 80.2346 168.007 80.2346C166.712 80.2346 165.55 79.9406 164.521 79.3526C163.492 78.7646 162.679 77.9135 162.082 76.7992C161.484 75.6849 161.186 74.3358 161.186 72.7521C161.186 71.1636 161.484 69.8122 162.082 68.6978C162.679 67.5835 163.492 66.7347 164.521 66.1515C165.55 65.5635 166.712 65.2695 168.007 65.2695C169.292 65.2695 170.449 65.5635 171.478 66.1515C172.511 66.7347 173.327 67.5835 173.924 68.6978C174.527 69.8122 174.828 71.1636 174.828 72.7521ZM171.705 72.7521C171.705 71.7231 171.551 70.8554 171.243 70.1488C170.939 69.4423 170.51 68.9065 169.955 68.5414C169.401 68.1762 168.751 67.9937 168.007 67.9937C167.262 67.9937 166.613 68.1762 166.058 68.5414C165.503 68.9065 165.071 69.4423 164.763 70.1488C164.46 70.8554 164.308 71.7231 164.308 72.7521C164.308 73.781 164.46 74.6488 164.763 75.3553C165.071 76.0618 165.503 76.5977 166.058 76.9628C166.613 77.3279 167.262 77.5104 168.007 77.5104C168.751 77.5104 169.401 77.3279 169.955 76.9628C170.51 76.5977 170.939 76.0618 171.243 75.3553C171.551 74.6488 171.705 73.781 171.705 72.7521Z" fill="black"/>
<path d="M142.164 68.008V65.4688H154.128V68.008H149.668V80.0355H146.624V68.008H142.164Z" fill="black"/>
<path d="M127.164 80.0355V65.4688H130.244V77.4963H136.489V80.0355H127.164Z" fill="black"/>
<path d="M108.893 80.0355V65.4688H118.708V68.008H111.972V71.479H118.203V74.0182H111.972V77.4963H118.737V80.0355H108.893Z" fill="black"/>
<path d="M88.9492 68.008V65.4688H100.913V68.008H96.4531V80.0355H93.4089V68.008H88.9492Z" fill="black"/>
</g>
<defs>
<clipPath id="clip0_1840_2754">
<rect width="227.902" height="51.5039" fill="white" transform="translate(26 47)"/>
</clipPath>
</defs>
</svg>
