<svg width="280" height="140" viewBox="0 0 280 140" fill="none" xmlns="http://www.w3.org/2000/svg">
<g clip-path="url(#clip0_1833_12253)">
<path d="M37.687 97.1081C44.4555 102.632 53.3513 106 63.069 106C70.5628 106 77.5247 104.024 83.423 100.566C60.0715 93.4257 43.2468 95.8956 37.687 97.1081ZM100.586 61.9001C99.7643 58.5769 98.4106 55.4782 96.6701 52.5591C74.2371 67.3789 55.5753 81.7944 43.4402 91.7191C66.0182 76.63 86.6623 67.2442 100.586 61.9001ZM95.9449 88.9349C98.0238 85.8362 99.5709 82.3782 100.538 78.7407C75.3008 80.4921 55.1885 88.0816 42.8601 94.0544C59.1046 87.9469 82.9396 88.2612 95.9449 88.9349ZM40.7811 90.0576C56.9773 74.3846 72.4483 55.4333 84.0999 40.1196C80.909 38.1885 77.3797 36.7065 73.6086 35.7185C67.662 49.0563 57.2674 68.8608 40.4427 90.3719L40.7811 90.0576ZM55.6236 35C51.8042 35.6736 48.2266 36.8862 44.8906 38.5478C45.6642 51.0772 45.8092 75.4624 38.2188 90.9108C44.7939 79.6388 53.7864 59.969 55.6236 35ZM24.4883 70.1632C24.4883 79.8634 28.6461 88.7103 35.4146 95.1322C36.5266 91.2252 40.4427 74.1151 31.3052 49.7748C27.0507 55.6129 24.4883 62.6186 24.4883 70.1632Z" fill="black"/>
<path d="M131.706 52.293C132.48 52.6074 133.253 52.7421 134.027 52.7421H134.268C134.8 52.7421 135.332 52.6523 135.912 52.5175C136.492 52.3379 137.072 52.0685 137.653 51.6643C138.184 51.2601 138.668 50.6763 139.006 49.9578C139.345 49.2393 139.538 48.2962 139.538 47.2184V40.078C139.538 39.9432 139.49 39.8085 139.441 39.7187L139.103 39.584H137.749L137.411 39.7187L137.266 40.0331V47.1735C137.266 48.5207 136.976 49.4638 136.444 50.0476C135.912 50.6314 135.187 50.9458 134.22 50.9458H133.978C133.06 50.9458 132.335 50.6763 131.754 50.0476C131.223 49.4638 130.932 48.5207 130.932 47.1735V40.0331C130.932 39.8983 130.884 39.7636 130.836 39.6738L130.497 39.5391H129.144L128.805 39.6738L128.66 39.9881V47.1735C128.66 48.6105 128.95 49.7332 129.53 50.5416C130.256 51.3948 130.932 51.9787 131.706 52.293Z" fill="black"/>
<path d="M118.555 52.4283C119.329 52.6529 120.247 52.7427 121.311 52.7427C122.278 52.7427 123.245 52.7427 124.26 52.6978C125.324 52.6529 125.952 52.608 126.291 52.563C126.484 52.563 126.532 52.4283 126.532 52.2038V51.0811C126.532 50.9014 126.436 50.8116 126.242 50.8116H121.311C120.392 50.8116 119.764 50.7218 119.28 50.5871C118.845 50.4524 118.555 50.1829 118.41 49.8236C118.265 49.4644 118.168 48.9704 118.168 48.3417V35.453L118.023 35.1386L117.685 35.0039H116.379L115.993 35.1386L115.848 35.453V48.3417C115.848 49.5542 116.089 50.4973 116.573 51.1709C117.153 51.7996 117.782 52.2487 118.555 52.4283Z" fill="black"/>
<path d="M158.151 52.293C158.925 52.6074 159.698 52.7421 160.472 52.7421H160.714C161.246 52.7421 161.777 52.6523 162.357 52.5175C162.938 52.3379 163.518 52.0685 164.098 51.6643C164.63 51.2601 165.113 50.6763 165.452 49.9578C165.79 49.2393 165.984 48.2962 165.984 47.2184V40.078C165.984 39.9432 165.935 39.8085 165.887 39.7187L165.548 39.584H164.195L163.856 39.7187L163.711 40.0331V47.1735C163.711 48.5207 163.421 49.4638 162.889 50.0476C162.357 50.6314 161.632 50.9458 160.665 50.9458H160.424C159.505 50.9458 158.78 50.6763 158.2 50.0476C157.668 49.4638 157.378 48.5207 157.378 47.1735V40.0331C157.378 39.8983 157.329 39.7636 157.281 39.6738L156.943 39.5391H155.589L155.251 39.6738L155.105 39.9881V47.1735C155.105 48.6105 155.396 49.7332 155.976 50.5416C156.701 51.3948 157.378 51.9787 158.151 52.293Z" fill="black"/>
<path d="M145 52.4283C145.774 52.6529 146.693 52.7427 147.756 52.7427C148.675 52.7427 149.69 52.7427 150.705 52.6978C151.721 52.6529 152.397 52.608 152.736 52.563C152.929 52.563 152.978 52.4283 152.978 52.2038V51.0811C152.978 50.9014 152.881 50.8116 152.688 50.8116H147.756C146.838 50.8116 146.209 50.7218 145.726 50.5871C145.29 50.4524 145 50.1829 144.807 49.8236C144.662 49.4644 144.565 48.9704 144.565 48.3417V35.453L144.42 35.1386L144.082 35.0039H142.776L142.438 35.1386L142.293 35.453V48.3417C142.293 49.5542 142.535 50.4973 143.018 51.1709C143.598 51.7996 144.227 52.2487 145 52.4283Z" fill="black"/>
<path d="M117.685 58.0391H116.379L115.993 58.1738L115.848 58.533V60.4192L115.993 60.7336L116.379 60.8683H117.685L118.023 60.7336L118.168 60.3743V58.4881C118.168 58.3534 118.12 58.2187 118.023 58.1289C117.975 58.084 117.83 58.0391 117.685 58.0391Z" fill="black"/>
<path d="M126.291 82.1582C126 82.1133 125.517 82.1133 124.84 82.0684C124.163 82.0235 123.583 82.0234 123.1 82.0234C122.616 82.0234 122.036 82.0234 121.311 82.0234C119.474 82.0234 118.12 82.3827 117.201 83.0563C116.283 83.73 115.848 84.8527 115.848 86.4245V95.5408C115.848 97.1126 116.283 98.2353 117.201 98.909C118.12 99.6275 119.474 99.9418 121.263 99.9418C123.777 99.9418 125.42 99.8969 126.242 99.8071C126.436 99.7622 126.484 99.6724 126.484 99.4479V98.2353C126.484 98.0557 126.387 97.9659 126.194 97.9659H121.263C120.344 97.9659 119.715 97.8761 119.232 97.7413C118.797 97.6066 118.458 97.3372 118.313 96.9779C118.168 96.6186 118.072 96.1246 118.072 95.4959V91.4991H126.049L126.387 91.3644L126.532 91.0051V90.1069L126.387 89.7477L126.049 89.6129H118.217V86.3346C118.217 85.7059 118.313 85.2119 118.458 84.8527C118.603 84.4934 118.894 84.2689 119.377 84.0892C119.812 83.9545 120.489 83.8647 121.408 83.8647H126.339C126.532 83.8647 126.629 83.7749 126.629 83.5503V82.3827L126.581 82.1582" fill="black"/>
<path d="M135.862 93.0274L140.165 87.369L140.31 87.0546C140.31 86.875 140.213 86.7852 139.971 86.7852H138.473L138.183 86.8301C138.134 86.875 138.037 86.9648 137.941 87.0995L134.653 91.5454L131.414 87.0995C131.269 86.875 131.076 86.7852 130.931 86.7852H129.287C129.045 86.7852 128.9 86.875 128.9 87.0546L129.045 87.369L133.396 93.1621L128.803 99.2696L128.658 99.584C128.658 99.7187 128.755 99.8086 128.948 99.8086H130.495L130.737 99.7636L130.931 99.584L134.605 94.689L138.279 99.6289L138.618 99.8086H140.406C140.648 99.8086 140.745 99.7187 140.745 99.5391L140.648 99.2696" fill="black"/>
<path d="M150.365 86.8749C149.301 86.6953 148.238 86.6055 147.174 86.6055C146.014 86.6055 145.047 86.83 144.225 87.324C143.403 87.7731 142.775 88.4467 142.339 89.3449C141.904 90.1981 141.711 91.231 141.711 92.3986V94.2399C141.711 95.4075 141.904 96.4404 142.339 97.2936C142.775 98.1469 143.403 98.8205 144.225 99.3145C145.047 99.7636 146.014 100.033 147.126 100.033C148.238 100.033 149.301 99.9432 150.317 99.7636C150.655 99.7187 150.848 99.5391 150.848 99.2247V98.3714C150.848 98.1469 150.703 98.0122 150.413 98.0122H150.317C149.301 98.1469 148.238 98.1918 147.126 98.1918C146.111 98.1918 145.289 97.8775 144.757 97.2038C144.225 96.5302 143.935 95.5871 143.935 94.2848V92.4435C143.935 89.8389 144.999 88.4916 147.126 88.4916C148.189 88.4916 149.253 88.5365 150.317 88.6263H150.413C150.703 88.6263 150.848 88.5365 150.848 88.2671V87.4138C150.848 87.2342 150.8 87.1444 150.752 87.0546C150.703 86.9647 150.558 86.9198 150.365 86.8749Z" fill="black"/>
<path d="M163.127 87.9064C162.643 87.5023 162.112 87.143 161.386 86.9184C160.71 86.6939 159.888 86.6041 158.921 86.6041C158.002 86.6041 157.035 86.6939 155.972 86.9633V82.4725L155.826 82.1582L155.488 82.0234H154.183L153.844 82.1582L153.699 82.4725V99.4029L153.844 99.7622L154.183 99.8969H155.44L155.778 99.7622L155.923 99.4029V88.8046C156.793 88.5801 157.76 88.4453 158.872 88.4453C161.096 88.4453 162.208 89.4333 162.208 91.4542V99.4029L162.353 99.7622L162.692 99.8969H163.949L164.287 99.7622L164.432 99.4029V91.4542C164.432 90.7356 164.336 90.1069 164.094 89.4782C163.949 88.8495 163.61 88.3555 163.127 87.9064Z" fill="black"/>
<path d="M177.776 87.1444C177.341 87.0546 176.858 86.9648 176.278 86.8749C175.697 86.7851 175.166 86.7402 174.634 86.6953C174.102 86.6504 173.57 86.6055 173.038 86.6055C172.071 86.6055 171.25 86.7402 170.573 87.0097C169.896 87.2791 169.316 87.6833 168.832 88.1773C168.349 88.7162 168.01 89.3 167.817 90.0185C167.575 90.737 167.479 91.5454 167.479 92.4435V94.1052C167.479 95.3177 167.672 96.3506 168.107 97.2038C168.494 98.0571 169.122 98.7756 169.944 99.2247C170.766 99.7187 171.83 99.9432 173.038 99.9432C174.585 99.9432 176.181 99.7636 177.728 99.4043C177.97 99.3594 178.066 99.3145 178.163 99.2247C178.211 99.1349 178.26 99.0451 178.26 98.8654V87.6384C178.26 87.4587 178.211 87.324 178.163 87.2791C178.163 87.2342 178.018 87.1893 177.776 87.1444ZM176.084 98.0122C175.649 98.102 175.117 98.1469 174.537 98.1918C173.957 98.2367 173.474 98.2367 173.087 98.2367C171.878 98.2367 171.056 97.8775 170.524 97.2038C170.041 96.4853 169.751 95.4973 169.751 94.1501V92.4885C169.751 91.1412 169.993 90.1532 170.524 89.4347C171.008 88.7162 171.878 88.4018 173.087 88.4018C173.474 88.4018 173.86 88.4018 174.247 88.4467C174.682 88.4916 174.972 88.4916 175.214 88.5365C175.407 88.5365 175.697 88.5814 176.084 88.6263V98.0122Z" fill="black"/>
<path d="M191.219 87.5486C190.301 86.9198 189.285 86.6055 188.125 86.6055H186.336C185.611 86.6055 184.934 86.6953 184.257 86.9647C183.58 87.1893 183 87.6384 182.565 88.2671C182.082 88.8958 181.84 89.794 181.84 90.9167V99.4043L181.985 99.7187L182.323 99.8534H183.677L184.015 99.7187C184.112 99.6289 184.16 99.5391 184.16 99.3594V90.8718C184.16 89.9736 184.306 89.3449 184.644 88.9407C184.982 88.5814 185.563 88.4018 186.384 88.4018H188.173C188.753 88.4018 189.189 88.4916 189.527 88.6263C189.865 88.806 190.107 89.0305 190.204 89.3898C190.349 89.7491 190.397 90.243 190.397 90.8718V99.3594L190.542 99.6738L190.881 99.8085H192.186L192.524 99.6738C192.621 99.584 192.621 99.4941 192.621 99.3145V90.8269C192.524 89.2551 192.089 88.1324 191.219 87.5486Z" fill="black"/>
<path d="M205.868 87.1444C204.128 86.7851 202.629 86.6055 201.275 86.6055C199.341 86.6055 197.939 87.0995 196.972 88.0425C196.054 88.9856 195.57 90.4676 195.57 92.3986V94.1501C195.57 98.0122 197.456 99.9881 201.275 99.9881C201.662 99.9881 202.145 99.9432 202.726 99.8983C203.306 99.8534 203.789 99.7636 204.128 99.6738V99.8983C204.128 100.707 204.031 101.335 203.886 101.74C203.741 102.144 203.451 102.413 203.016 102.593C202.629 102.728 202 102.817 201.179 102.817C200.598 102.817 199.922 102.772 199.245 102.728C198.568 102.683 197.746 102.593 196.876 102.503H196.827L196.489 102.593L196.344 102.862V103.536L196.441 103.85C196.489 103.895 196.634 103.985 196.827 104.03C197.262 104.12 197.891 104.21 198.665 104.299C199.438 104.389 200.26 104.434 201.179 104.434C202.339 104.434 203.354 104.299 204.079 103.985C204.853 103.716 205.385 103.222 205.771 102.503C206.158 101.829 206.352 100.886 206.352 99.7187V87.5935C206.352 87.4138 206.303 87.2791 206.255 87.2342C206.207 87.2342 206.062 87.1893 205.868 87.1444ZM204.128 97.9673C203.741 98.0571 203.257 98.102 202.726 98.1469C202.145 98.1918 201.662 98.2367 201.275 98.2367C200.502 98.2367 199.873 98.102 199.341 97.8325C198.81 97.5631 198.471 97.1589 198.181 96.5302C197.939 95.9464 197.794 95.138 197.794 94.1501V92.3986C197.794 91.6801 197.843 91.0514 197.988 90.5125C198.084 89.9736 198.278 89.5694 198.568 89.2551C198.858 88.9407 199.196 88.7162 199.631 88.5814C200.067 88.4467 200.598 88.3569 201.227 88.3569C202.145 88.3569 203.064 88.4467 204.079 88.6263V97.9673H204.128Z" fill="black"/>
<path d="M218.192 87.3689C217.37 86.8749 216.307 86.6055 215.098 86.6055C213.938 86.6055 212.922 86.8749 212.052 87.3689C211.182 87.8629 210.553 88.5814 210.118 89.4796C209.683 90.3778 209.441 91.3658 209.441 92.4885V94.1501C209.441 95.5871 209.731 96.7547 210.263 97.608C210.843 98.5062 211.569 99.09 212.439 99.4492C213.309 99.8085 214.324 99.9881 215.388 99.9881C216.21 99.9881 216.984 99.9432 217.66 99.8983C218.337 99.8534 219.062 99.7187 219.788 99.6289C219.981 99.584 220.126 99.5391 220.174 99.4492C220.223 99.3594 220.271 99.2247 220.271 99.09V98.2816C220.271 98.0571 220.126 97.9673 219.836 97.9673H219.691C219.062 98.0571 218.386 98.1469 217.515 98.1918C216.693 98.2816 215.968 98.2816 215.291 98.2816C214.518 98.2816 213.841 98.1469 213.261 97.8325C212.729 97.5631 212.294 97.114 212.004 96.4853C211.714 95.9015 211.569 95.138 211.569 94.2399V93.9704H220.126C220.464 93.9704 220.61 93.7908 220.61 93.4315V92.4435C220.61 91.3208 220.416 90.2879 219.981 89.4347C219.691 88.5365 219.062 87.8629 218.192 87.3689ZM218.434 92.3537H211.665V92.219C211.665 91.4107 211.81 90.737 212.052 90.1532C212.294 89.5694 212.729 89.1203 213.212 88.8509C213.744 88.5365 214.324 88.4018 215.05 88.4018C216.162 88.4018 216.984 88.7162 217.564 89.3449C218.095 89.9736 218.386 90.9167 218.386 92.219V92.3537H218.434Z" fill="black"/>
<path d="M143.359 75.6418V74.8334C143.359 74.6088 143.165 74.5191 142.827 74.5191H140.748C140.361 74.5191 140.071 74.519 139.83 74.4292C139.588 74.3843 139.394 74.2945 139.298 74.2047C139.153 74.1149 139.056 73.9352 139.008 73.7107C138.911 73.4861 138.911 73.2167 138.911 72.9023V64.6392H142.924L143.262 64.5045L143.407 64.1901V63.3818C143.407 63.1123 143.262 62.9776 142.924 62.9776H138.911V60.4628L138.814 60.1484L138.476 60.0137H138.428L137.17 60.1933C137.025 60.2382 136.88 60.2831 136.784 60.3729L136.639 60.6424V72.9023C136.639 73.7556 136.784 74.3843 137.074 74.8783C137.364 75.3723 137.799 75.6867 138.331 75.9112C138.863 76.0908 139.588 76.1806 140.41 76.1806C140.748 76.1806 141.183 76.1806 141.715 76.1357C142.247 76.0908 142.634 76.0908 142.875 76.0459C143.165 76.001 143.359 75.8663 143.359 75.6418Z" fill="black"/>
<path d="M155.639 75.5977C155.688 75.5078 155.736 75.418 155.736 75.2384V74.43C155.736 74.2055 155.591 74.0708 155.301 74.0708H155.204C154.576 74.1606 153.85 74.2504 153.029 74.2953C152.207 74.3851 151.481 74.3851 150.805 74.3851C150.031 74.3851 149.354 74.2504 148.774 73.936C148.194 73.6666 147.807 73.2175 147.517 72.5888C147.227 72.005 147.082 71.2416 147.082 70.3434V70.0739H155.688C156.026 70.0739 156.171 69.8943 156.171 69.535V68.5471C156.171 67.4244 155.978 66.3915 155.543 65.5382C155.107 64.64 154.479 63.9664 153.657 63.4724C152.787 62.9784 151.771 62.709 150.563 62.709C149.354 62.709 148.339 62.9784 147.517 63.4724C146.647 63.9664 146.018 64.6849 145.583 65.5831C145.148 66.4813 144.906 67.4693 144.906 68.592V70.2536C144.906 71.6906 145.196 72.8582 145.728 73.7115C146.308 74.6097 147.034 75.1935 147.904 75.5528C148.774 75.912 149.789 76.0917 150.853 76.0917C151.675 76.0917 152.448 76.0467 153.125 76.0018C153.802 75.912 154.527 75.8222 155.252 75.7324C155.446 75.7324 155.591 75.6875 155.639 75.5977ZM147.13 68.4572C147.13 67.6489 147.275 66.9753 147.517 66.3915C147.807 65.8076 148.194 65.3586 148.677 65.0891C149.209 64.8197 149.789 64.64 150.514 64.64C151.626 64.64 152.448 64.9544 153.029 65.5831C153.609 66.2118 153.85 67.1549 153.85 68.4572V68.592H147.082V68.4572H147.13Z" fill="black"/>
<path d="M165.401 62.8437C165.305 62.7988 165.16 62.7988 164.966 62.7988C163.709 62.7988 162.646 62.8437 161.872 62.9336C161.05 63.0234 160.325 63.203 159.648 63.4725C159.358 63.6072 159.213 63.7868 159.213 64.0114V75.5528C159.213 75.6875 159.261 75.8222 159.358 75.912L159.696 76.0468H161.05L161.388 75.912C161.485 75.8222 161.534 75.6875 161.534 75.5528V64.8646C162.355 64.7299 163.516 64.6401 165.063 64.6401C165.305 64.6401 165.401 64.5952 165.498 64.5503C165.595 64.5054 165.595 64.4155 165.595 64.2359V63.1581C165.498 63.0234 165.498 62.8886 165.401 62.8437Z" fill="black"/>
<path d="M177.631 63.7419C176.712 63.1132 175.697 62.7988 174.537 62.7988H172.699C171.974 62.7988 171.297 62.9336 170.62 63.1581C169.944 63.3826 169.363 63.8317 168.928 64.4604C168.445 65.0892 168.203 65.9873 168.203 67.11V75.5528L168.348 75.8671L168.687 76.0019H170.04L170.379 75.8671C170.475 75.7773 170.524 75.6875 170.524 75.5079V67.0651C170.524 66.1669 170.669 65.5382 171.007 65.1341C171.297 64.7748 171.926 64.5952 172.748 64.5952H174.585C175.165 64.5952 175.6 64.685 175.939 64.8646C176.277 64.9993 176.519 65.2688 176.615 65.6281C176.761 65.9873 176.809 66.4813 176.809 67.11V75.5528L176.954 75.8671L177.292 76.0019H178.646L178.984 75.8671C179.081 75.7773 179.13 75.6875 179.13 75.5079V67.0651C178.984 65.4484 178.501 64.3257 177.631 63.7419Z" fill="black"/>
<path d="M192.284 63.3377C191.849 63.2479 191.366 63.1581 190.785 63.0683C190.254 62.9785 189.673 62.9336 189.142 62.8887C188.61 62.8437 188.078 62.7988 187.546 62.7988C186.579 62.7988 185.757 62.9336 185.081 63.203C184.404 63.4725 183.824 63.8766 183.34 64.3706C182.905 64.8646 182.518 65.4933 182.325 66.2119C182.083 66.9304 181.986 67.7387 181.986 68.6369V70.2985C181.986 71.4661 182.18 72.5439 182.615 73.3972C183.002 74.2954 183.63 74.969 184.452 75.4181C185.274 75.9121 186.338 76.1366 187.546 76.1366C189.093 76.1366 190.689 75.957 192.236 75.5977C192.478 75.5528 192.623 75.5079 192.671 75.4181C192.768 75.3283 192.768 75.2384 192.768 75.0588V63.8766C192.768 63.697 192.719 63.5623 192.671 63.5174C192.623 63.4275 192.478 63.3826 192.284 63.3377ZM190.544 74.2055C190.06 74.2954 189.577 74.3402 188.997 74.3852C188.416 74.4301 187.933 74.4301 187.546 74.4301C186.338 74.4301 185.516 74.0708 184.984 73.3972C184.5 72.6787 184.21 71.6907 184.21 70.3434V68.6818C184.21 67.3346 184.452 66.3466 184.984 65.6281C185.467 64.9095 186.338 64.5952 187.546 64.5952C187.885 64.5952 188.271 64.5952 188.707 64.6401C189.142 64.685 189.432 64.685 189.673 64.7299C189.867 64.7299 190.157 64.7748 190.544 64.8197V74.2055Z" fill="black"/>
<path d="M197.987 75.8663C198.519 76.0459 199.244 76.1357 200.066 76.1357C200.404 76.1357 200.84 76.1357 201.371 76.0908C201.903 76.0459 202.29 76.0459 202.532 76.001C202.87 75.9561 203.015 75.8214 203.015 75.5968V74.7885C203.015 74.5639 202.822 74.4741 202.483 74.4741H200.404C200.018 74.4741 199.728 74.4741 199.486 74.3843C199.244 74.3394 199.051 74.2945 198.954 74.1598C198.809 74.0699 198.712 73.8903 198.616 73.6658C198.567 73.4412 198.519 73.1718 198.519 72.8574V64.5943H202.532L202.87 64.4596L203.015 64.1452V63.3369C203.015 63.0674 202.87 62.9327 202.532 62.9327H198.519V60.4178L198.422 60.1035L198.132 59.9688H198.084L196.778 60.1933L196.392 60.3729L196.295 60.6424V72.9023C196.295 73.7556 196.44 74.3843 196.73 74.8783C197.02 75.3274 197.407 75.6867 197.987 75.8663Z" fill="black"/>
<path d="M207.414 62.9785H206.206L205.819 63.1132L205.674 63.4276V75.5079L205.819 75.8223L206.157 75.957H207.366L207.704 75.8223C207.801 75.7325 207.849 75.5977 207.849 75.463V63.3827C207.849 63.248 207.801 63.1132 207.704 63.0234C207.704 63.0234 207.559 62.9785 207.414 62.9785Z" fill="black"/>
<path d="M221.194 64.3706C220.711 63.8766 220.131 63.4725 219.405 63.203C218.729 62.9336 217.858 62.7988 216.94 62.7988C215.103 62.7988 213.701 63.3377 212.734 64.3706C211.767 65.4035 211.283 66.8406 211.283 68.592V70.3883C211.283 72.1847 211.767 73.5768 212.734 74.6097C213.701 75.6426 215.103 76.1366 216.94 76.1366C218.148 76.1366 219.212 75.9121 220.082 75.4181C220.953 74.9241 221.581 74.2954 222.016 73.3972C222.451 72.5439 222.645 71.511 222.645 70.3434V68.5471C222.645 67.6938 222.548 66.8855 222.306 66.1669C222.016 65.4933 221.678 64.8646 221.194 64.3706ZM220.372 70.3883C220.372 71.6458 220.082 72.6337 219.502 73.3074C218.922 73.981 218.052 74.3403 216.891 74.3403C214.619 74.3403 213.459 73.0379 213.459 70.3883V68.592C213.459 67.3346 213.749 66.3466 214.329 65.673C214.909 64.9993 215.731 64.6401 216.891 64.6401C218.052 64.6401 218.922 64.9993 219.502 65.673C220.082 66.3915 220.324 67.3346 220.324 68.592V70.3883H220.372Z" fill="black"/>
<path d="M235.022 63.7419C234.104 63.1132 233.088 62.7988 231.928 62.7988H230.139C229.414 62.7988 228.737 62.9336 228.06 63.1581C227.384 63.3826 226.852 63.8317 226.368 64.4604C225.885 65.0892 225.691 65.9873 225.691 67.11V75.5528L225.836 75.8671L226.175 76.0019H227.529L227.867 75.8671C227.964 75.7773 228.012 75.6875 228.012 75.5079V67.0651C228.012 66.1669 228.157 65.5382 228.496 65.1341C228.834 64.7748 229.414 64.5952 230.236 64.5952H232.025C232.605 64.5952 233.04 64.685 233.379 64.8646C233.717 64.9993 233.959 65.2688 234.055 65.6281C234.2 65.9873 234.249 66.4813 234.249 67.11V75.5528L234.394 75.8671L234.732 76.0019H236.086L236.424 75.8671C236.521 75.7773 236.521 75.6875 236.521 75.5079V67.0651C236.376 65.4484 235.941 64.3257 235.022 63.7419Z" fill="black"/>
<path d="M249.671 63.3377C249.236 63.2479 248.752 63.1581 248.172 63.0683C247.592 62.9785 247.06 62.9336 246.528 62.8887C245.997 62.8437 245.465 62.7988 244.933 62.7988C243.966 62.7988 243.144 62.9336 242.467 63.203C241.79 63.4725 241.21 63.8766 240.727 64.3706C240.292 64.8646 239.905 65.4933 239.711 66.2119C239.47 66.9304 239.373 67.7387 239.373 68.6369V70.2985C239.373 71.4661 239.566 72.5439 239.953 73.3972C240.34 74.2954 240.968 74.969 241.79 75.4181C242.612 75.9121 243.676 76.1366 244.885 76.1366C246.432 76.1366 248.027 75.957 249.574 75.5977C249.768 75.5528 249.913 75.5079 250.009 75.4181C250.106 75.3283 250.106 75.2384 250.106 75.0588V63.8766C250.106 63.697 250.058 63.5623 250.009 63.5174C250.058 63.4275 249.913 63.3826 249.671 63.3377ZM247.979 74.2055C247.495 74.2954 247.012 74.3402 246.432 74.3852C245.852 74.4301 245.368 74.4301 244.981 74.4301C243.773 74.4301 242.951 74.0708 242.419 73.3972C241.935 72.6787 241.645 71.6907 241.645 70.3434V68.6818C241.645 67.3346 241.887 66.3466 242.419 65.6281C242.902 64.9095 243.773 64.5952 244.981 64.5952C245.368 64.5952 245.755 64.5952 246.19 64.6401C246.625 64.685 246.915 64.685 247.157 64.7299C247.35 64.7299 247.64 64.7748 248.027 64.8197V74.2055H247.979Z" fill="black"/>
<path d="M256.054 58.3105L255.715 58.1758H254.41L254.071 58.3105L253.975 58.6249V75.5104C253.975 75.6451 254.023 75.7798 254.12 75.8697L254.458 76.0044H255.763L256.102 75.8697C256.199 75.7798 256.199 75.69 256.199 75.5104V58.6249L256.054 58.3105Z" fill="black"/>
<path d="M116.331 76.0005H117.733L118.072 75.8658L118.217 75.5515V58.8456L118.072 58.5312L117.733 58.3965H116.331L115.993 58.5312L115.848 58.8456V75.5515C115.848 75.6862 115.896 75.8209 115.993 75.9107" fill="black"/>
<path d="M130.544 65.6241C130.689 65.9834 130.737 66.4774 130.737 67.1061V75.5938L130.882 75.9081L131.221 76.0428H132.574L132.913 75.9081C133.009 75.8183 133.058 75.7285 133.058 75.5489V67.0612C133.058 65.4445 132.623 64.3218 131.704 63.6931C130.785 63.0643 129.77 62.75 128.61 62.75H126.676C125.951 62.75 125.274 62.8847 124.597 63.1093C123.92 63.3338 123.34 63.7829 122.905 64.4116C122.421 65.0403 122.18 65.9385 122.18 67.0612V75.5489L122.325 75.8632L122.663 75.9979H124.017L124.355 75.8632C124.452 75.7734 124.452 75.6836 124.452 75.5039V67.0163C124.452 66.1181 124.597 65.4445 124.935 65.0852C125.274 64.726 125.854 64.5014 126.676 64.5014H128.513C129.093 64.5014 129.528 64.5912 129.867 64.7709C130.157 64.9954 130.399 65.2649 130.544 65.6241Z" fill="black"/>
</g>
<defs>
<clipPath id="clip0_1833_12253">
<rect width="280" height="140" fill="white"/>
</clipPath>
</defs>
</svg>
